font.ufo
<glyph name="hungarumlautcmb" format="1">
	<unicode hex="030B"/>
	<outline>
		<contour>
			<point x="-50" y="570" type="line"/>
			<point x="42" y="730" type="line"/>
			<point x="16" y="746" type="line"/>
			<point x="-70" y="580" type="line"/>
		</contour>
		<contour>
			<point x="78" y="570" type="line"/>
			<point x="170" y="730" type="line"/>
			<point x="144" y="746" type="line"/>
			<point x="58" y="580" type="line"/>
		</contour>
		<contour>
			<point name="_aboveLC" x="0" y="502" type="move"/>
		</contour>
	</outline>
</glyph>
<glyph name="dieresistonos" format="1">
	<unicode hex="0385"/>
	<advance width="532"/>
	<outline>
		<component base="dieresistonoscmb" xOffset="276"/>
		<contour>
			<point name="_aboveLC" x="276" y="502" type="move"/>
		</contour>
	</outline>
</glyph>
<glyph name="tau" format="1">
	<unicode hex="03C4"/>
	<advance width="434"/>
	<outline>
		<contour>
			<point x="270" y="-12" type="curve" smooth="yes"/>
			<point x="290" y="-12"/>
			<point x="310" y="-6"/>
			<point x="320" y="-2" type="curve"/>
			<point x="314" y="24" type="line"/>
			<point x="302" y="20"/>
			<point x="286" y="16"/>
			<point x="272" y="16" type="curve" smooth="yes"/>
			<point x="242" y="16"/>
			<point x="230" y="32"/>
			<point x="230" y="66" type="curve" smooth="yes"/>
			<point x="230" y="195"/>
			<point x="230" y="321"/>
			<point x="232" y="450" type="curve"/>
			<point x="408" y="450" type="line"/>
			<point x="408" y="478" type="line"/>
			<point x="92" y="478" type="line"/>
			<point x="26" y="474" type="line"/>
			<point x="26" y="450" type="line"/>
			<point x="202" y="450" type="line"/>
			<point x="202" y="72" type="line" smooth="yes"/>
			<point x="202" y="12"/>
			<point x="220" y="-12"/>
		</contour>
	</outline>
</glyph>
<glyph name="omega" format="1">
	<unicode hex="03C9"/>
	<advance width="664"/>
	<outline>
		<contour>
			<point x="208" y="-12" type="curve" smooth="yes"/>
			<point x="260" y="-12"/>
			<point x="308" y="16"/>
			<point x="330" y="72" type="curve"/>
			<point x="334" y="72" type="line"/>
			<point x="356" y="16"/>
			<point x="404" y="-12"/>
			<point x="456" y="-12" type="curve" smooth="yes"/>
			<point x="540" y="-12"/>
			<point x="604" y="55"/>
			<point x="604" y="212" type="curve" smooth="yes"/>
			<point x="604" y="334"/>
			<point x="566" y="408"/>
			<point x="508" y="490" type="curve"/>
			<point x="482" y="474" type="line"/>
			<point x="542" y="389"/>
			<point x="572" y="326"/>
			<point x="572" y="212" type="curve" smooth="yes"/>
			<point x="572" y="75"/>
			<point x="522" y="16"/>
			<point x="454" y="16" type="curve" smooth="yes"/>
			<point x="403" y="16"/>
			<point x="346" y="48"/>
			<point x="346" y="160" type="curve" smooth="yes"/>
			<point x="346" y="196"/>
			<point x="346" y="242"/>
			<point x="350" y="290" type="curve"/>
			<point x="312" y="290" type="line"/>
			<point x="316" y="242"/>
			<point x="316" y="196"/>
			<point x="316" y="160" type="curve" smooth="yes"/>
			<point x="316" y="48"/>
			<point x="261" y="16"/>
			<point x="210" y="16" type="curve" smooth="yes"/>
			<point x="146" y="16"/>
			<point x="90" y="80"/>
			<point x="90" y="206" type="curve" smooth="yes"/>
			<point x="90" y="324"/>
			<point x="124" y="393"/>
			<point x="184" y="472" type="curve"/>
			<point x="160" y="490" type="line"/>
			<point x="104" y="411"/>
			<point x="60" y="330"/>
			<point x="60" y="210" type="curve" smooth="yes"/>
			<point x="60" y="58"/>
			<point x="130" y="-12"/>
		</contour>
		<contour>
			<point name="aboveLC" x="326" y="502" type="move"/>
		</contour>
		<contour>
			<point name="belowLC" x="326" y="-22" type="move"/>
		</contour>
	</outline>
</glyph>
<glyph name="Ie" format="1">
	<unicode hex="0415"/>
	<advance width="510"/>
	<outline>
		<component base="E"/>
		<contour>
			<point name="aboveUC" x="282" y="682" type="move"/>
		</contour>
	</outline>
</glyph>
<glyph name="dialytikatilde" format="1">
	<unicode hex="1FC1"/>
	<advance width="532"/>
	<outline>
		<component base="dieresistilde" xOffset="266"/>
		<contour>
			<point name="_aboveLC" x="266" y="502" type="move"/>
		</contour>
	</outline>
</glyph>
<glyph name="varia" format="1">
	<unicode hex="1FEF"/>
	<advance width="532"/>
	<outline>
		<component base="variacmb" xOffset="266"/>
		<contour>
			<point name="_aboveLC" x="266" y="502" type="move"/>
		</contour>
	</outline>
</glyph>
<glyph name="tugrik" format="1">
	<unicode hex="20AE"/>
	<advance width="472"/>
	<outline>
		<contour>
			<point x="220" y="0" type="line"/>
			<point x="250" y="0" type="line"/>
			<point x="250" y="612" type="line"/>
			<point x="434" y="612" type="line"/>
			<point x="434" y="640" type="line"/>
			<point x="34" y="640" type="line"/>
			<point x="34" y="612" type="line"/>
			<point x="220" y="612" type="line"/>
		</contour>
		<contour>
			<point x="76" y="170" type="line"/>
			<point x="222" y="246" type="line"/>
			<point x="248" y="258" type="line"/>
			<point x="394" y="334" type="line"/>
			<point x="394" y="364" type="line"/>
			<point x="248" y="288" type="line"/>
			<point x="222" y="276" type="line"/>
			<point x="76" y="200" type="line"/>
		</contour>
		<contour>
			<point x="76" y="286" type="line"/>
			<point x="222" y="362" type="line"/>
			<point x="248" y="374" type="line"/>
			<point x="394" y="450" type="line"/>
			<point x="394" y="480" type="line"/>
			<point x="248" y="404" type="line"/>
			<point x="222" y="392" type="line"/>
			<point x="76" y="316" type="line"/>
		</contour>
	</outline>
</glyph>
<glyph name="trianglewhiteright" format="1">
	<unicode hex="25B7"/>
	<advance width="910"/>
	<outline>
		<contour>
			<point x="45" y="-50" type="line"/>
			<point x="47" y="-50" type="line"/>
			<point x="885" y="348" type="line"/>
			<point x="885" y="352" type="line"/>
			<point x="47" y="750" type="line"/>
			<point x="45" y="750" type="line"/>
		</contour>
		<contour>
			<point x="75" y="-5" type="line"/>
			<point x="75" y="705" type="line"/>
			<point x="825" y="350" type="line"/>
		</contour>
	</outline>
</glyph>
<glyph name="Acyr" format="1">
  <advance width="520"/>
  <outline>
    <contour>
      <point x="260" y="682" type="move" name="aboveUC"/>
    </contour>
    <component base="A"/>
  </outline>
</glyph>
<glyph name="Alpha.sc" format="1">
	<advance width="444"/>
	<outline>
		<component base="A.sc"/>
		<contour>
			<point name="aboveLC" x="222" y="562" type="move"/>
		</contour>
		<contour>
			<point name="belowLC" x="222" y="-22" type="move"/>
		</contour>
	</outline>
</glyph>
<glyph name="Alpha.sc" format="1">
  <advance width="444"/>
  <outline>
    <contour>
      <point x="222" y="562" type="move" name="aboveLC"/>
    </contour>
    <contour>
      <point x="222" y="-22" type="move" name="belowLC"/>
    </contour>
    <component base="A.sc"/>
  </outline>
</glyph>
<glyph name="Beta.sc" format="1">
	<advance width="509"/>
	<outline>
		<component base="B.sc"/>
		<contour>
			<point name="aboveLC" x="265" y="562" type="move"/>
		</contour>
		<contour>
			<point name="belowLC" x="276" y="-22" type="move"/>
		</contour>
	</outline>
</glyph>
<glyph name="Beta.sc" format="1">
  <advance width="509"/>
  <outline>
    <contour>
      <point x="265" y="562" type="move" name="aboveLC"/>
    </contour>
    <contour>
      <point x="276" y="-22" type="move" name="belowLC"/>
    </contour>
    <component base="B.sc"/>
  </outline>
</glyph>
<glyph name="Be.sc" format="1">
  <advance width="501"/>
  <outline>
    <contour>
      <point x="100" y="0" type="line"/>
      <point x="250" y="0" type="line" smooth="yes"/>
      <point x="376" y="0"/>
      <point x="455" y="50"/>
      <point x="455" y="148" type="curve" smooth="yes"/>
      <point x="455" y="242"/>
      <point x="371" y="283"/>
      <point x="250" y="283" type="curve" smooth="yes"/>
      <point x="131" y="283" type="line"/>
      <point x="131" y="483" type="line"/>
      <point x="418" y="483" type="line"/>
      <point x="418" y="510" type="line"/>
      <point x="100" y="510" type="line"/>
    </contour>
    <contour>
      <point x="131" y="26" type="line"/>
      <point x="131" y="257" type="line"/>
      <point x="240" y="257" type="line" smooth="yes"/>
      <point x="357" y="257"/>
      <point x="424" y="222"/>
      <point x="424" y="147" type="curve" smooth="yes"/>
      <point x="424" y="64"/>
      <point x="354" y="26"/>
      <point x="240" y="26" type="curve" smooth="yes"/>
    </contour>
  </outline>
</glyph>
<glyph name="C.sups" format="1">
  <advance width="369"/>
  <outline>
    <contour>
      <point x="218" y="262" type="curve" smooth="yes"/>
      <point x="274" y="262"/>
      <point x="314" y="286"/>
      <point x="346" y="323" type="curve"/>
      <point x="329" y="341" type="line"/>
      <point x="298" y="307"/>
      <point x="264" y="288"/>
      <point x="219" y="288" type="curve" smooth="yes"/>
      <point x="124" y="288"/>
      <point x="65" y="366"/>
      <point x="65" y="488" type="curve" smooth="yes"/>
      <point x="65" y="607"/>
      <point x="125" y="685"/>
      <point x="222" y="685" type="curve" smooth="yes"/>
      <point x="261" y="685"/>
      <point x="293" y="667"/>
      <point x="317" y="640" type="curve"/>
      <point x="335" y="659" type="line"/>
      <point x="311" y="686"/>
      <point x="272" y="710"/>
      <point x="221" y="710" type="curve" smooth="yes"/>
      <point x="110" y="710"/>
      <point x="34" y="623"/>
      <point x="34" y="487" type="curve" smooth="yes"/>
      <point x="34" y="349"/>
      <point x="110" y="262"/>
    </contour>
  </outline>
</glyph>
<glyph name="Che" format="1">
  <advance width="572"/>
  <outline>
    <contour>
      <point x="440" y="0" type="line"/>
      <point x="472" y="0" type="line"/>
      <point x="472" y="660" type="line"/>
      <point x="440" y="660" type="line"/>
      <point x="440" y="348" type="line"/>
      <point x="408" y="342"/>
      <point x="363" y="336"/>
      <point x="306" y="336" type="curve" smooth="yes"/>
      <point x="180" y="336"/>
      <point x="104" y="374"/>
      <point x="104" y="500" type="curve" smooth="yes"/>
      <point x="104" y="660" type="line"/>
      <point x="72" y="660" type="line"/>
      <point x="72" y="500" type="line" smooth="yes"/>
      <point x="72" y="356"/>
      <point x="160" y="306"/>
      <point x="304" y="306" type="curve" smooth="yes"/>
      <point x="362" y="306"/>
      <point x="406" y="312"/>
      <point x="440" y="318" type="curve"/>
    </contour>
    <contour>
      <point x="280" y="682" type="move" name="aboveUC"/>
    </contour>
  </outline>
</glyph>
<glyph name="Chi.sc" format="1">
  <advance width="408"/>
  <outline>
    <component base="X.sc"/>
    <contour>
      <point x="285" y="582" type="move" name="aboveUC"/>
    </contour>
    <contour>
      <point x="284" y="0" type="move" name="baseLC"/>
    </contour>
    <contour>
      <point x="284" y="-22" type="move" name="belowLC"/>
    </contour>
  </outline>
</glyph>
<glyph name="De" format="1">
  <advance width="612"/>
  <outline>
    <contour>
      <point x="68" y="0" type="line"/>
      <point x="544" y="0" type="line"/>
      <point x="544" y="-188" type="line"/>
      <point x="570" y="-188" type="line"/>
      <point x="576" y="12" type="line"/>
      <point x="576" y="28" type="line"/>
      <point x="36" y="28" type="line"/>
      <point x="36" y="12" type="line"/>
      <point x="42" y="-188" type="line"/>
      <point x="68" y="-188" type="line"/>
    </contour>
    <contour>
      <point x="476" y="20" type="line"/>
      <point x="508" y="20" type="line"/>
      <point x="508" y="660" type="line"/>
      <point x="220" y="660" type="line"/>
      <point x="196" y="506"/>
      <point x="182" y="415"/>
      <point x="156" y="272" type="curve" smooth="yes"/>
      <point x="122" y="86"/>
      <point x="92" y="40"/>
      <point x="66" y="28" type="curve"/>
      <point x="92" y="14" type="line"/>
      <point x="120" y="30"/>
      <point x="150" y="68"/>
      <point x="186" y="264" type="curve" smooth="yes"/>
      <point x="211" y="399"/>
      <point x="222" y="494"/>
      <point x="246" y="632" type="curve"/>
      <point x="476" y="632" type="line"/>
    </contour>
  </outline>
</glyph>
<glyph name="De.sc" format="1">
  <advance width="529"/>
  <outline>
    <contour>
      <point x="66" y="-172" type="line"/>
      <point x="66" y="0" type="line"/>
      <point x="472" y="0" type="line"/>
      <point x="472" y="-172" type="line"/>
      <point x="498" y="-172" type="line"/>
      <point x="502" y="12" type="line"/>
      <point x="502" y="28" type="line"/>
      <point x="36" y="28" type="line"/>
      <point x="36" y="12" type="line"/>
      <point x="40" y="-172" type="line"/>
    </contour>
    <contour>
      <point x="406" y="10" type="line"/>
      <point x="438" y="10" type="line"/>
      <point x="438" y="510" type="line"/>
      <point x="190" y="510" type="line"/>
      <point x="170" y="393"/>
      <point x="158" y="322"/>
      <point x="136" y="214" type="curve" smooth="yes"/>
      <point x="108" y="72"/>
      <point x="83" y="36"/>
      <point x="61" y="27" type="curve"/>
      <point x="83" y="12" type="line"/>
      <point x="109" y="23"/>
      <point x="136" y="56"/>
      <point x="166" y="207" type="curve" smooth="yes"/>
      <point x="186" y="308"/>
      <point x="197" y="380"/>
      <point x="216" y="483" type="curve"/>
      <point x="406" y="483" type="line"/>
    </contour>
  </outline>
</glyph>
<glyph name="De.sc" format="1">
  <advance width="511"/>
  <outline>
    <contour>
      <point x="386" y="0" type="line"/>
      <point x="418" y="0" type="line"/>
      <point x="418" y="510" type="line"/>
      <point x="147" y="510" type="line"/>
      <point x="147" y="371" type="line" smooth="yes"/>
      <point x="147" y="285"/>
      <point x="141" y="214"/>
      <point x="128" y="157" type="curve" smooth="yes"/>
      <point x="115" y="96"/>
      <point x="92" y="50"/>
      <point x="55" y="27" type="curve"/>
      <point x="76" y="8" type="line"/>
      <point x="116" y="36"/>
      <point x="144" y="84"/>
      <point x="159" y="153" type="curve" smooth="yes"/>
      <point x="172" y="212"/>
      <point x="177" y="283"/>
      <point x="177" y="371" type="curve" smooth="yes"/>
      <point x="177" y="483" type="line"/>
      <point x="386" y="483" type="line"/>
    </contour>
    <contour>
      <point x="41" y="-148" type="line"/>
      <point x="67" y="-148" type="line"/>
      <point x="67" y="0" type="line"/>
      <point x="466" y="0" type="line"/>
      <point x="466" y="27" type="line"/>
      <point x="36" y="27" type="line"/>
      <point x="36" y="10" type="line"/>
    </contour>
    <contour>
      <point x="444" y="-148" type="line"/>
      <point x="470" y="-148" type="line"/>
      <point x="475" y="10" type="line"/>
      <point x="475" y="27" type="line"/>
      <point x="48" y="27" type="line"/>
      <point x="48" y="0" type="line"/>
      <point x="444" y="0" type="line"/>
    </contour>
  </outline>
</glyph>
<glyph name="Dzhe.sc" format="1">
  <advance width="564"/>
  <outline>
    <contour>
      <point x="100" y="0" type="line"/>
      <point x="464" y="0" type="line"/>
      <point x="464" y="510" type="line"/>
      <point x="433" y="510" type="line"/>
      <point x="433" y="27" type="line"/>
      <point x="131" y="27" type="line"/>
      <point x="131" y="510" type="line"/>
      <point x="100" y="510" type="line"/>
    </contour>
    <contour>
      <point x="269" y="-148" type="line"/>
      <point x="295" y="-148" type="line"/>
      <point x="300" y="10" type="line"/>
      <point x="269" y="0" type="line"/>
    </contour>
  </outline>
</glyph>
<glyph name="E.sups" format="1">
  <advance width="337"/>
  <outline>
    <contour>
      <point x="63" y="270" type="line"/>
      <point x="308" y="270" type="line"/>
      <point x="308" y="295" type="line"/>
      <point x="92" y="295" type="line"/>
      <point x="92" y="488" type="line"/>
      <point x="269" y="488" type="line"/>
      <point x="269" y="513" type="line"/>
      <point x="92" y="513" type="line"/>
      <point x="92" y="677" type="line"/>
      <point x="302" y="677" type="line"/>
      <point x="302" y="702" type="line"/>
      <point x="63" y="702" type="line"/>
    </contour>
  </outline>
</glyph>
<glyph name="E.sc" format="1">
  <advance width="456"/>
  <outline>
    <contour>
      <point x="261" y="562" type="move" name="aboveUC"/>
    </contour>
    <contour>
      <point x="324" y="0" type="move" name="ogonekUC"/>
    </contour>
    <contour>
      <point x="264" y="-22" type="move" name="belowLC"/>
    </contour>
    <contour>
      <point x="100" y="0" type="line"/>
      <point x="410" y="0" type="line"/>
      <point x="410" y="28" type="line"/>
      <point x="132" y="28" type="line"/>
      <point x="132" y="258" type="line"/>
      <point x="358" y="258" type="line"/>
      <point x="358" y="286" type="line"/>
      <point x="132" y="286" type="line"/>
      <point x="132" y="482" type="line"/>
      <point x="400" y="482" type="line"/>
      <point x="400" y="510" type="line"/>
      <point x="100" y="510" type="line"/>
    </contour>
  </outline>
</glyph>
<glyph name="Eogonek.sc" format="1">
  <advance width="456"/>
  <outline>
    <contour>
      <point x="261" y="562" type="move" name="aboveUC"/>
    </contour>
    <contour>
      <point x="362" y="-202" type="curve" smooth="yes"/>
      <point x="382" y="-202"/>
      <point x="408" y="-192"/>
      <point x="422" y="-180" type="curve"/>
      <point x="408" y="-160" type="line"/>
      <point x="394" y="-170"/>
      <point x="382" y="-174"/>
      <point x="364" y="-174" type="curve" smooth="yes"/>
      <point x="338" y="-174"/>
      <point x="312" y="-156"/>
      <point x="312" y="-120" type="curve" smooth="yes"/>
      <point x="312" y="-60"/>
      <point x="363" y="-10"/>
      <point x="408" y="0" type="curve" smooth="yes"/>
      <point x="410" y="0" type="line"/>
      <point x="410" y="28" type="line"/>
      <point x="132" y="28" type="line"/>
      <point x="132" y="258" type="line"/>
      <point x="358" y="258" type="line"/>
      <point x="358" y="286" type="line"/>
      <point x="132" y="286" type="line"/>
      <point x="132" y="482" type="line"/>
      <point x="400" y="482" type="line"/>
      <point x="400" y="510" type="line"/>
      <point x="100" y="510" type="line"/>
      <point x="100" y="0" type="line"/>
      <point x="354" y="0" type="line"/>
      <point x="314" y="-26"/>
      <point x="282" y="-72"/>
      <point x="282" y="-122" type="curve" smooth="yes"/>
      <point x="282" y="-176"/>
      <point x="318" y="-202"/>
    </contour>
  </outline>
</glyph>
<glyph name="Eta.sc" format="1">
  <advance width="572"/>
  <outline>
    <contour>
      <point x="286" y="562" type="move" name="aboveLC"/>
    </contour>
    <contour>
      <point x="286" y="-22" type="move" name="belowLC"/>
    </contour>
    <component base="H.sc"/>
  </outline>
</glyph>
<glyph name="Esdescender" format="1">
  <advance width="562"/>
  <outline>
    <contour>
      <point x="314" y="-188" type="line"/>
      <point x="340" y="-188" type="line"/>
      <point x="346" y="12" type="line"/>
      <point x="314" y="0" type="line"/>
    </contour>
    <component base="C"/>
  </outline>
</glyph>
<glyph name="F" format="1">
  <advance width="470"/>
  <outline>
    <contour>
      <point x="284" y="682" type="move" name="aboveUC"/>
    </contour>
    <contour>
      <point x="116" y="-22" type="move" name="belowLC"/>
    </contour>
    <contour>
      <point x="100" y="0" type="line"/>
      <point x="132" y="0" type="line"/>
      <point x="132" y="326" type="line"/>
      <point x="402" y="326" type="line"/>
      <point x="402" y="354" type="line"/>
      <point x="132" y="354" type="line"/>
      <point x="132" y="632" type="line"/>
      <point x="452" y="632" type="line"/>
      <point x="452" y="660" type="line"/>
      <point x="100" y="660" type="line"/>
    </contour>
  </outline>
</glyph>
<glyph name="Fita.sc" format="1">
  <advance width="568"/>
  <outline>
    <contour>
      <point x="76" y="258" type="line"/>
      <point x="486" y="258" type="line"/>
      <point x="486" y="286" type="line"/>
      <point x="76" y="286" type="line"/>
    </contour>
    <component base="O.sc"/>
  </outline>
</glyph>
<glyph name="Ghe" format="1">
  <advance width="480"/>
  <outline>
    <contour>
      <point x="286" y="682" type="move" name="aboveUC"/>
    </contour>
    <component base="Gamma"/>
  </outline>
</glyph>
<glyph name="Ghe.sc" format="1">
  <advance width="428"/>
  <outline>
    <contour>
      <point x="266" y="532" type="move" name="aboveUC"/>
    </contour>
    <component base="Gamma.sc"/>
  </outline>
</glyph>
<glyph name="Hbar" format="1">
  <advance width="666"/>
  <outline>
    <contour>
      <point x="38" y="496" type="line"/>
      <point x="628" y="496" type="line"/>
      <point x="628" y="524" type="line"/>
      <point x="121" y="524" type="line"/>
      <point x="38" y="520" type="line"/>
    </contour>
    <component base="H" xOffset="20"/>
  </outline>
</glyph>
<glyph name="Hard.sc" format="1">
  <advance width="601"/>
  <outline>
    <contour>
      <point x="208" y="0" type="line"/>
      <point x="348" y="0" type="line" smooth="yes"/>
      <point x="477" y="0"/>
      <point x="554" y="37"/>
      <point x="554" y="140" type="curve" smooth="yes"/>
      <point x="554" y="238"/>
      <point x="477" y="284"/>
      <point x="348" y="284" type="curve" smooth="yes"/>
      <point x="240" y="284" type="line"/>
      <point x="240" y="510" type="line"/>
      <point x="30" y="510" type="line"/>
      <point x="30" y="483" type="line"/>
      <point x="208" y="483" type="line"/>
    </contour>
    <contour>
      <point x="240" y="26" type="line"/>
      <point x="240" y="258" type="line"/>
      <point x="338" y="258" type="line" smooth="yes"/>
      <point x="460" y="258"/>
      <point x="521" y="225"/>
      <point x="521" y="140" type="curve" smooth="yes"/>
      <point x="521" y="53"/>
      <point x="460" y="26"/>
      <point x="338" y="26" type="curve" smooth="yes"/>
    </contour>
  </outline>
</glyph>
<glyph name="I.sc" format="1">
  <advance width="232"/>
  <outline>
    <contour>
      <point x="100" y="0" type="line"/>
      <point x="132" y="0" type="line"/>
      <point x="132" y="510" type="line"/>
      <point x="100" y="510" type="line"/>
    </contour>
    <contour>
      <point x="116" y="562" type="move" name="aboveUC"/>
    </contour>
    <contour>
      <point x="90" y="0" type="move" name="ogonekUC"/>
    </contour>
    <contour>
      <point x="116" y="-22" type="move" name="belowLC"/>
    </contour>
  </outline>
</glyph>
<glyph name="I.sups" format="1">
  <advance width="155"/>
  <outline>
    <contour>
      <point x="63" y="270" type="line"/>
      <point x="92" y="270" type="line"/>
      <point x="92" y="702" type="line"/>
      <point x="63" y="702" type="line"/>
    </contour>
  </outline>
</glyph>
<glyph name="I.alt" format="1">
  <advance width="300"/>
  <outline>
    <contour>
      <point x="150" y="682" type="move" name="aboveUC"/>
    </contour>
    <contour>
      <point x="124" y="0" type="move" name="ogonekUC"/>
    </contour>
    <contour>
      <point x="152" y="-22" type="move" name="belowLC"/>
    </contour>
    <contour>
      <point x="42" y="0" type="line"/>
      <point x="258" y="0" type="line"/>
      <point x="258" y="28" type="line"/>
      <point x="166" y="28" type="line"/>
      <point x="166" y="632" type="line"/>
      <point x="258" y="632" type="line"/>
      <point x="258" y="660" type="line"/>
      <point x="42" y="660" type="line"/>
      <point x="42" y="632" type="line"/>
      <point x="134" y="632" type="line"/>
      <point x="134" y="28" type="line"/>
      <point x="42" y="28" type="line"/>
    </contour>
  </outline>
</glyph>
<glyph name="Ie.sc" format="1">
  <advance width="456"/>
  <outline>
    <contour>
      <point x="261" y="562" type="move" name="aboveUC"/>
    </contour>
    <contour>
      <point x="264" y="-22" type="move" name="belowLC"/>
    </contour>
    <component base="E.sc"/>
  </outline>
</glyph>
<glyph name="Iogonek.alt" format="1">
  <advance width="300"/>
  <outline>
    <contour>
      <point x="150" y="682" type="move" name="aboveUC"/>
    </contour>
    <contour>
      <point x="156" y="-202" type="curve" smooth="yes"/>
      <point x="176" y="-202"/>
      <point x="202" y="-192"/>
      <point x="216" y="-180" type="curve"/>
      <point x="202" y="-160" type="line"/>
      <point x="188" y="-170"/>
      <point x="176" y="-174"/>
      <point x="158" y="-174" type="curve" smooth="yes"/>
      <point x="132" y="-174"/>
      <point x="106" y="-156"/>
      <point x="106" y="-120" type="curve" smooth="yes"/>
      <point x="106" y="-77"/>
      <point x="132" y="-33"/>
      <point x="176" y="0" type="curve"/>
      <point x="258" y="0" type="line"/>
      <point x="258" y="28" type="line"/>
      <point x="166" y="28" type="line"/>
      <point x="166" y="632" type="line"/>
      <point x="258" y="632" type="line"/>
      <point x="258" y="660" type="line"/>
      <point x="42" y="660" type="line"/>
      <point x="42" y="632" type="line"/>
      <point x="134" y="632" type="line"/>
      <point x="134" y="28" type="line"/>
      <point x="42" y="28" type="line"/>
      <point x="42" y="0" type="line"/>
      <point x="141" y="0" type="line"/>
      <point x="105" y="-30"/>
      <point x="76" y="-74"/>
      <point x="76" y="-122" type="curve" smooth="yes"/>
      <point x="76" y="-176"/>
      <point x="112" y="-202"/>
    </contour>
  </outline>
</glyph>
<glyph name="Iota.sc" format="1">
  <advance width="232"/>
  <outline>
    <contour>
      <point x="116" y="562" type="move" name="aboveLC"/>
    </contour>
    <contour>
      <point x="116" y="-22" type="move" name="belowLC"/>
    </contour>
    <component base="I.sc"/>
  </outline>
</glyph>
<glyph name="Ismall" format="1">
  <advance width="298"/>
  <outline>
    <contour>
      <point x="150" y="502" type="move" name="aboveLC"/>
    </contour>
    <contour>
      <point x="124" y="0" type="move" name="ogonekUC"/>
    </contour>
    <contour>
      <point x="150" y="-22" type="move" name="belowLC"/>
    </contour>
    <contour>
      <point x="42" y="0" type="line"/>
      <point x="256" y="0" type="line"/>
      <point x="256" y="28" type="line"/>
      <point x="164" y="28" type="line"/>
      <point x="164" y="450" type="line"/>
      <point x="256" y="450" type="line"/>
      <point x="256" y="478" type="line"/>
      <point x="42" y="478" type="line"/>
      <point x="42" y="450" type="line"/>
      <point x="134" y="450" type="line"/>
      <point x="134" y="28" type="line"/>
      <point x="42" y="28" type="line"/>
    </contour>
  </outline>
</glyph>
<glyph name="Izhitsa" format="1">
  <advance width="492"/>
  <outline>
    <contour>
      <point x="226" y="0" type="line"/>
      <point x="262" y="0" type="line"/>
      <point x="430" y="556" type="line" smooth="yes"/>
      <point x="448" y="614"/>
      <point x="462" y="638"/>
      <point x="490" y="638" type="curve" smooth="yes"/>
      <point x="500" y="638"/>
      <point x="506" y="636"/>
      <point x="512" y="632" type="curve"/>
      <point x="522" y="664" type="line"/>
      <point x="510" y="670"/>
      <point x="501" y="672"/>
      <point x="492" y="672" type="curve" smooth="yes"/>
      <point x="444" y="672"/>
      <point x="420" y="638"/>
      <point x="398" y="561" type="curve" smooth="yes"/>
      <point x="312" y="264" type="line"/>
      <point x="286" y="182"/>
      <point x="270" y="122"/>
      <point x="244" y="41" type="curve"/>
      <point x="240" y="41" type="line"/>
      <point x="212" y="122"/>
      <point x="194" y="182"/>
      <point x="168" y="264" type="curve" smooth="yes"/>
      <point x="40" y="660" type="line"/>
      <point x="6" y="660" type="line"/>
    </contour>
  </outline>
</glyph>
<glyph name="Izhitsa.sc" format="1">
  <advance width="417"/>
  <outline>
    <contour>
      <point x="190" y="0" type="line"/>
      <point x="226" y="0" type="line"/>
      <point x="365" y="423" type="line" smooth="yes"/>
      <point x="379" y="467"/>
      <point x="392" y="485"/>
      <point x="415" y="485" type="curve" smooth="yes"/>
      <point x="424" y="485"/>
      <point x="429" y="484"/>
      <point x="434" y="481" type="curve"/>
      <point x="443" y="511" type="line"/>
      <point x="433" y="515"/>
      <point x="425" y="517"/>
      <point x="416" y="517" type="curve" smooth="yes"/>
      <point x="374" y="517"/>
      <point x="354" y="490"/>
      <point x="335" y="428" type="curve" smooth="yes"/>
      <point x="264" y="208" type="line"/>
      <point x="243" y="145"/>
      <point x="229" y="99"/>
      <point x="208" y="37" type="curve"/>
      <point x="204" y="37" type="line"/>
      <point x="181" y="99"/>
      <point x="167" y="145"/>
      <point x="145" y="208" type="curve" smooth="yes"/>
      <point x="39" y="508" type="line"/>
      <point x="6" y="508" type="line"/>
    </contour>
  </outline>
</glyph>
<glyph name="J.sups" format="1">
  <advance width="303"/>
  <outline>
    <contour>
      <point x="131" y="262" type="curve" smooth="yes"/>
      <point x="210" y="262"/>
      <point x="241" y="317"/>
      <point x="241" y="387" type="curve" smooth="yes"/>
      <point x="241" y="702" type="line"/>
      <point x="212" y="702" type="line"/>
      <point x="212" y="390" type="line" smooth="yes"/>
      <point x="212" y="320"/>
      <point x="185" y="288"/>
      <point x="131" y="288" type="curve" smooth="yes"/>
      <point x="95" y="288"/>
      <point x="69" y="303"/>
      <point x="47" y="339" type="curve"/>
      <point x="25" y="325" type="line"/>
      <point x="47" y="286"/>
      <point x="82" y="262"/>
    </contour>
  </outline>
</glyph>
<glyph name="Kabashkir.sc" format="1">
  <advance width="608"/>
  <outline>
    <contour>
      <point x="392" y="270" type="line"/>
      <point x="478" y="412" type="line" smooth="yes"/>
      <point x="520" y="480"/>
      <point x="534" y="490"/>
      <point x="558" y="490" type="curve" smooth="yes"/>
      <point x="564" y="490"/>
      <point x="570" y="488"/>
      <point x="574" y="486" type="curve"/>
      <point x="582" y="518" type="line"/>
      <point x="576" y="520"/>
      <point x="567" y="522"/>
      <point x="560" y="522" type="curve" smooth="yes"/>
      <point x="520" y="522"/>
      <point x="502" y="506"/>
      <point x="452" y="426" type="curve" smooth="yes"/>
      <point x="362" y="276" type="line"/>
    </contour>
    <contour>
      <point x="218" y="0" type="line"/>
      <point x="250" y="0" type="line"/>
      <point x="250" y="258" type="line"/>
      <point x="370" y="258" type="line"/>
      <point x="554" y="0" type="line"/>
      <point x="592" y="0" type="line"/>
      <point x="386" y="286" type="line"/>
      <point x="250" y="286" type="line"/>
      <point x="250" y="510" type="line"/>
      <point x="30" y="510" type="line"/>
      <point x="30" y="482" type="line"/>
      <point x="218" y="482" type="line"/>
    </contour>
  </outline>
</glyph>
<glyph name="Kabashkir.sc" format="1">
  <advance width="608"/>
  <outline>
    <contour>
      <point x="250" y="510" type="line"/>
      <point x="30" y="510" type="line"/>
      <point x="30" y="482" type="line"/>
      <point x="218" y="482" type="line"/>
    </contour>
    <component base="Ka.sc" xOffset="118"/>
  </outline>
</glyph>
<glyph name="Kadescender.b" format="1">
	<advance width="588"/>
	<outline>
		<contour>
			<point x="520" y="-192" type="line"/>
			<point x="546" y="-192" type="line"/>
			<point x="552" y="12" type="line"/>
			<point x="552" y="28" type="line"/>
			<point x="496" y="28" type="line"/>
			<point x="496" y="0" type="line"/>
			<point x="520" y="0" type="line"/>
		</contour>
		<component base="Ka.b"/>
	</outline>
</glyph>
<glyph name="Kappa.sc" format="1">
  <advance width="482"/>
  <outline>
    <contour>
      <point x="278" y="562" type="move" name="aboveLC"/>
    </contour>
    <contour>
      <point x="284" y="-22" type="move" name="belowLC"/>
    </contour>
    <component base="K.sc"/>
  </outline>
</glyph>
<glyph name="Ka.a" format="1">
  <advance width="546"/>
  <outline>
    <contour>
      <point x="308" y="682" type="move" name="aboveUC"/>
    </contour>
    <contour>
      <point x="100" y="0" type="line"/>
      <point x="132" y="0" type="line"/>
      <point x="132" y="338" type="line"/>
      <point x="277" y="338" type="line"/>
      <point x="295" y="366" type="line"/>
      <point x="132" y="366" type="line"/>
      <point x="132" y="660" type="line"/>
      <point x="100" y="660" type="line"/>
    </contour>
    <contour>
      <point x="534" y="-12" type="curve" smooth="yes"/>
      <point x="542" y="-12"/>
      <point x="550" y="-10"/>
      <point x="556" y="-8" type="curve"/>
      <point x="550" y="26" type="line"/>
      <point x="544" y="24"/>
      <point x="536" y="22"/>
      <point x="530" y="22" type="curve" smooth="yes"/>
      <point x="502" y="22"/>
      <point x="484" y="32"/>
      <point x="434" y="124" type="curve" smooth="yes"/>
      <point x="296" y="366" type="line"/>
      <point x="266" y="360" type="line"/>
      <point x="406" y="114" type="line" smooth="yes"/>
      <point x="464" y="6"/>
      <point x="487" y="-12"/>
    </contour>
    <contour>
      <point x="302" y="348" type="line"/>
      <point x="404" y="536" type="line" smooth="yes"/>
      <point x="454" y="628"/>
      <point x="472" y="638"/>
      <point x="500" y="638" type="curve" smooth="yes"/>
      <point x="506" y="638"/>
      <point x="514" y="636"/>
      <point x="520" y="634" type="curve"/>
      <point x="526" y="668" type="line"/>
      <point x="520" y="670"/>
      <point x="512" y="672"/>
      <point x="504" y="672" type="curve" smooth="yes"/>
      <point x="457" y="672"/>
      <point x="435" y="654"/>
      <point x="376" y="546" type="curve" smooth="yes"/>
      <point x="272" y="354" type="line"/>
    </contour>
  </outline>
</glyph>
<glyph name="Kabashkir.sc" format="1">
  <advance width="690"/>
  <outline>
    <contour>
      <point x="30" y="632" type="line"/>
      <point x="244" y="632" type="line"/>
      <point x="276" y="660" type="line"/>
      <point x="30" y="660" type="line"/>
    </contour>
    <component base="Ka" xOffset="144"/>
  </outline>
</glyph>
<glyph name="L" format="1">
  <advance width="460"/>
  <outline>
    <contour>
      <point x="100" y="0" type="line"/>
      <point x="442" y="0" type="line"/>
      <point x="442" y="28" type="line"/>
      <point x="132" y="28" type="line"/>
      <point x="132" y="660" type="line"/>
      <point x="100" y="660" type="line"/>
    </contour>
    <contour>
      <point x="116" y="682" type="move" name="aboveUC"/>
    </contour>
    <contour>
      <point x="288" y="-22" type="move" name="belowLC"/>
    </contour>
  </outline>
</glyph>
<glyph name="L.sc" format="1">
  <advance width="409"/>
  <outline>
    <contour>
      <point x="100" y="0" type="line"/>
      <point x="390" y="0" type="line"/>
      <point x="390" y="28" type="line"/>
      <point x="132" y="28" type="line"/>
      <point x="132" y="510" type="line"/>
      <point x="100" y="510" type="line"/>
    </contour>
    <contour>
      <point x="122" y="562" type="move" name="aboveUC"/>
    </contour>
    <contour>
      <point x="256" y="-22" type="move" name="belowLC"/>
    </contour>
  </outline>
</glyph>
<glyph name="Lje" format="1">
  <advance width="886"/>
  <outline>
    <contour>
      <point x="44" y="-12" type="curve" smooth="yes"/>
      <point x="102" y="-12"/>
      <point x="136" y="22"/>
      <point x="170" y="208" type="curve" smooth="yes"/>
      <point x="196" y="349"/>
      <point x="218" y="490"/>
      <point x="244" y="632" type="curve"/>
      <point x="452" y="632" type="line"/>
      <point x="452" y="0" type="line"/>
      <point x="484" y="0" type="line"/>
      <point x="484" y="660" type="line"/>
      <point x="218" y="660" type="line"/>
      <point x="190" y="500"/>
      <point x="166" y="363"/>
      <point x="138" y="214" type="curve" smooth="yes"/>
      <point x="106" y="46"/>
      <point x="78" y="22"/>
      <point x="42" y="22" type="curve" smooth="yes"/>
      <point x="32" y="22"/>
      <point x="24" y="24"/>
      <point x="14" y="28" type="curve"/>
      <point x="4" y="-4" type="line"/>
      <point x="20" y="-10"/>
      <point x="34" y="-12"/>
    </contour>
    <contour>
      <point x="452" y="0" type="line"/>
      <point x="608" y="0" type="line" smooth="yes"/>
      <point x="756" y="0"/>
      <point x="836" y="66"/>
      <point x="836" y="192" type="curve" smooth="yes"/>
      <point x="836" y="314"/>
      <point x="746" y="366"/>
      <point x="604" y="366" type="curve" smooth="yes"/>
      <point x="484" y="366" type="line"/>
      <point x="484" y="660" type="line"/>
      <point x="452" y="660" type="line"/>
    </contour>
    <contour>
      <point x="484" y="28" type="line"/>
      <point x="484" y="338" type="line"/>
      <point x="592" y="338" type="line" smooth="yes"/>
      <point x="732" y="338"/>
      <point x="804" y="294"/>
      <point x="804" y="190" type="curve" smooth="yes"/>
      <point x="804" y="78"/>
      <point x="734" y="28"/>
      <point x="596" y="28" type="curve" smooth="yes"/>
    </contour>
  </outline>
</glyph>
<glyph name="Lslash.sc" format="1">
  <advance width="409"/>
  <outline>
    <contour>
      <point x="14" y="146" type="line"/>
      <point x="110" y="197" type="line"/>
      <point x="122" y="201" type="line"/>
      <point x="302" y="296" type="line"/>
      <point x="302" y="326" type="line"/>
      <point x="122" y="231" type="line"/>
      <point x="110" y="227" type="line"/>
      <point x="14" y="176" type="line"/>
    </contour>
    <component base="L.sc" xOffset="4"/>
  </outline>
</glyph>
<glyph name="Lsmall" format="1">
  <advance width="394"/>
  <outline>
    <contour>
      <point x="96" y="0" type="line"/>
      <point x="368" y="0" type="line"/>
      <point x="368" y="28" type="line"/>
      <point x="126" y="28" type="line"/>
      <point x="126" y="478" type="line"/>
      <point x="96" y="478" type="line"/>
    </contour>
    <contour>
      <point x="118" y="562" type="move" name="aboveUC"/>
    </contour>
    <contour>
      <point x="252" y="-22" type="move" name="belowLC"/>
    </contour>
  </outline>
</glyph>
<glyph name="Lje.sc" format="1">
  <advance width="807"/>
  <outline>
    <contour>
      <point x="414" y="0" type="line"/>
      <point x="554" y="0" type="line" smooth="yes"/>
      <point x="683" y="0"/>
      <point x="759" y="37"/>
      <point x="759" y="140" type="curve" smooth="yes"/>
      <point x="759" y="238"/>
      <point x="682" y="284"/>
      <point x="554" y="284" type="curve" smooth="yes"/>
      <point x="445" y="284" type="line"/>
      <point x="445" y="510" type="line"/>
      <point x="414" y="510" type="line"/>
    </contour>
    <contour>
      <point x="445" y="26" type="line"/>
      <point x="445" y="258" type="line"/>
      <point x="544" y="258" type="line" smooth="yes"/>
      <point x="666" y="258"/>
      <point x="726" y="225"/>
      <point x="726" y="140" type="curve" smooth="yes"/>
      <point x="726" y="53"/>
      <point x="665" y="26"/>
      <point x="544" y="26" type="curve" smooth="yes"/>
    </contour>
    <component base="El.sc"/>
  </outline>
</glyph>
<glyph name="N.sups" format="1">
  <advance width="418"/>
  <outline>
    <contour>
      <point x="63" y="270" type="line"/>
      <point x="90" y="270" type="line"/>
      <point x="90" y="541" type="line" smooth="yes"/>
      <point x="90" y="582"/>
      <point x="88" y="621"/>
      <point x="87" y="662" type="curve"/>
      <point x="89" y="662" type="line"/>
      <point x="140" y="577" type="line"/>
      <point x="325" y="270" type="line"/>
      <point x="356" y="270" type="line"/>
      <point x="356" y="702" type="line"/>
      <point x="329" y="702" type="line"/>
      <point x="329" y="435" type="line" smooth="yes"/>
      <point x="329" y="393"/>
      <point x="331" y="351"/>
      <point x="333" y="310" type="curve"/>
      <point x="330" y="310" type="line"/>
      <point x="280" y="395" type="line"/>
      <point x="95" y="702" type="line"/>
      <point x="63" y="702" type="line"/>
    </contour>
  </outline>
</glyph>
<glyph name="Nu.sc" format="1">
  <advance width="568"/>
  <outline>
    <component base="N.sc"/>
    <contour>
      <point x="292" y="562" type="move" name="aboveLC"/>
    </contour>
    <contour>
      <point x="292" y="-22" type="move" name="belowLC"/>
    </contour>
  </outline>
</glyph>
<glyph name="Nu.sc" format="1">
  <advance width="568"/>
  <outline>
    <contour>
      <point x="292" y="562" type="move" name="aboveLC"/>
    </contour>
    <contour>
      <point x="292" y="-22" type="move" name="belowLC"/>
    </contour>
    <component base="N.sc"/>
  </outline>
</glyph>
<glyph name="O.sups" format="1">
  <advance width="428"/>
  <outline>
    <contour>
      <point x="214" y="262" type="curve" smooth="yes"/>
      <point x="320" y="262"/>
      <point x="395" y="350"/>
      <point x="395" y="488" type="curve" smooth="yes"/>
      <point x="395" y="624"/>
      <point x="320" y="710"/>
      <point x="214" y="710" type="curve" smooth="yes"/>
      <point x="110" y="710"/>
      <point x="34" y="625"/>
      <point x="34" y="488" type="curve" smooth="yes"/>
      <point x="34" y="350"/>
      <point x="110" y="262"/>
    </contour>
    <contour>
      <point x="214" y="288" type="curve" smooth="yes"/>
      <point x="125" y="288"/>
      <point x="65" y="367"/>
      <point x="65" y="488" type="curve" smooth="yes"/>
      <point x="65" y="608"/>
      <point x="125" y="685"/>
      <point x="214" y="685" type="curve" smooth="yes"/>
      <point x="305" y="685"/>
      <point x="364" y="608"/>
      <point x="364" y="488" type="curve" smooth="yes"/>
      <point x="364" y="367"/>
      <point x="305" y="288"/>
    </contour>
  </outline>
</glyph>
<glyph name="Obarcyr" format="1">
  <advance width="648"/>
  <outline>
    <contour>
      <point x="324" y="682" type="move" name="aboveUC"/>
    </contour>
    <component base="Fita"/>
  </outline>
</glyph>
<glyph name="Ohorn.sc" format="1">
  <advance width="568"/>
  <outline>
    <contour>
      <point x="284" y="562" type="move" name="aboveUC"/>
    </contour>
    <contour>
      <point x="284" y="0" type="move" name="ogonekUC"/>
    </contour>
    <contour>
      <point x="284" y="-22" type="move" name="belowLC"/>
    </contour>
    <component base="O.sc"/>
    <component base="horncmb" xOffset="390" yOffset="32"/>
  </outline>
</glyph>
<glyph name="Oogonek.sc" format="1">
  <advance width="568"/>
  <outline>
    <contour>
      <point x="316" y="-202" type="curve" smooth="yes"/>
      <point x="336" y="-202"/>
      <point x="362" y="-192"/>
      <point x="376" y="-180" type="curve"/>
      <point x="362" y="-160" type="line"/>
      <point x="348" y="-170"/>
      <point x="336" y="-174"/>
      <point x="318" y="-174" type="curve" smooth="yes"/>
      <point x="292" y="-174"/>
      <point x="266" y="-156"/>
      <point x="266" y="-120" type="curve" smooth="yes"/>
      <point x="266" y="-82"/>
      <point x="292" y="-34"/>
      <point x="350" y="-8" type="curve"/>
      <point x="454" y="38"/>
      <point x="512" y="122"/>
      <point x="512" y="256" type="curve"/>
      <point x="512" y="419"/>
      <point x="416" y="522"/>
      <point x="284" y="522" type="curve" smooth="yes"/>
      <point x="151" y="522"/>
      <point x="56" y="419"/>
      <point x="56" y="256" type="curve"/>
      <point x="56" y="90"/>
      <point x="148" y="-14"/>
      <point x="296" y="-12" type="curve"/>
      <point x="256" y="-44"/>
      <point x="236" y="-84"/>
      <point x="236" y="-122" type="curve" smooth="yes"/>
      <point x="236" y="-176"/>
      <point x="272" y="-202"/>
    </contour>
    <contour>
      <point x="284" y="18" type="curve" smooth="yes"/>
      <point x="167" y="18"/>
      <point x="90" y="110"/>
      <point x="90" y="256" type="curve" smooth="yes"/>
      <point x="90" y="402"/>
      <point x="167" y="492"/>
      <point x="284" y="492" type="curve" smooth="yes"/>
      <point x="400" y="492"/>
      <point x="478" y="402"/>
      <point x="478" y="256" type="curve" smooth="yes"/>
      <point x="478" y="110"/>
      <point x="400" y="18"/>
    </contour>
    <contour>
      <point x="284" y="562" type="move" name="aboveUC"/>
    </contour>
  </outline>
</glyph>
<glyph name="Phi.sc" format="1">
  <advance width="613"/>
  <outline>
    <contour>
      <point x="296" y="59" type="curve" smooth="yes"/>
      <point x="317" y="59" type="line"/>
      <point x="470" y="59"/>
      <point x="565" y="136"/>
      <point x="565" y="255" type="curve" smooth="yes"/>
      <point x="565" y="375"/>
      <point x="470" y="449"/>
      <point x="317" y="449" type="curve" smooth="yes"/>
      <point x="296" y="449" type="line" smooth="yes"/>
      <point x="143" y="449"/>
      <point x="48" y="375"/>
      <point x="48" y="255" type="curve" smooth="yes"/>
      <point x="48" y="136"/>
      <point x="143" y="59"/>
    </contour>
    <contour>
      <point x="296" y="85" type="line"/>
      <point x="162" y="85"/>
      <point x="81" y="154"/>
      <point x="81" y="255" type="curve" smooth="yes"/>
      <point x="81" y="357"/>
      <point x="162" y="423"/>
      <point x="296" y="423" type="curve" smooth="yes"/>
      <point x="318" y="423" type="line" smooth="yes"/>
      <point x="451" y="423"/>
      <point x="533" y="357"/>
      <point x="533" y="255" type="curve" smooth="yes"/>
      <point x="533" y="154"/>
      <point x="451" y="85"/>
      <point x="318" y="85" type="curve" smooth="yes"/>
    </contour>
    <contour>
      <point x="291" y="-18" type="line"/>
      <point x="322" y="-18" type="line"/>
      <point x="322" y="528" type="line"/>
      <point x="291" y="528" type="line"/>
    </contour>
  </outline>
</glyph>
<glyph name="Rho.sc" format="1">
  <advance width="492"/>
  <outline>
    <contour>
      <point x="274" y="562" type="move" name="aboveLC"/>
    </contour>
    <contour>
      <point x="118" y="-22" type="move" name="belowLC"/>
    </contour>
    <component base="P.sc"/>
  </outline>
</glyph>
<glyph name="Schwa" format="1">
  <advance width="644"/>
  <outline>
    <contour>
      <point x="338" y="682" type="move" name="aboveUC"/>
    </contour>
    <contour>
      <point x="336" y="-22" type="move" name="belowLC"/>
    </contour>
    <contour>
      <point x="320" y="-12" type="curve" smooth="yes"/>
      <point x="484" y="-12"/>
      <point x="588" y="116"/>
      <point x="588" y="332" type="curve" smooth="yes"/>
      <point x="588" y="548"/>
      <point x="494" y="672"/>
      <point x="324" y="672" type="curve" smooth="yes"/>
      <point x="244" y="672"/>
      <point x="176" y="640"/>
      <point x="134" y="598" type="curve"/>
      <point x="152" y="576" type="line"/>
      <point x="194" y="618"/>
      <point x="258" y="644"/>
      <point x="326" y="644" type="curve" smooth="yes"/>
      <point x="476" y="644"/>
      <point x="556" y="528"/>
      <point x="556" y="332" type="curve" smooth="yes"/>
      <point x="556" y="136"/>
      <point x="468" y="16"/>
      <point x="320" y="16" type="curve" smooth="yes"/>
      <point x="190" y="16"/>
      <point x="100" y="130"/>
      <point x="96" y="304" type="curve"/>
      <point x="560" y="304" type="line"/>
      <point x="560" y="332" type="line"/>
      <point x="64" y="332" type="line"/>
      <point x="64" y="330"/>
      <point x="64" y="328"/>
      <point x="64" y="326" type="curve" smooth="yes"/>
      <point x="64" y="130"/>
      <point x="156" y="-12"/>
    </contour>
  </outline>
</glyph>
<glyph name="Sha.sc" format="1">
  <advance width="706"/>
  <outline>
    <contour>
      <point x="100" y="0" type="line"/>
      <point x="369" y="0" type="line"/>
      <point x="369" y="510" type="line"/>
      <point x="338" y="510" type="line"/>
      <point x="338" y="27" type="line"/>
      <point x="131" y="27" type="line"/>
      <point x="131" y="510" type="line"/>
      <point x="100" y="510" type="line"/>
    </contour>
    <contour>
      <point x="338" y="0" type="line"/>
      <point x="606" y="0" type="line"/>
      <point x="606" y="510" type="line"/>
      <point x="575" y="510" type="line"/>
      <point x="575" y="27" type="line"/>
      <point x="369" y="27" type="line"/>
      <point x="369" y="510" type="line"/>
      <point x="338" y="510" type="line"/>
    </contour>
  </outline>
</glyph>
<glyph name="Shcha.sc" format="1">
  <advance width="699"/>
  <outline>
    <contour>
      <point x="100" y="0" type="line"/>
      <point x="369" y="0" type="line"/>
      <point x="369" y="510" type="line"/>
      <point x="338" y="510" type="line"/>
      <point x="338" y="27" type="line"/>
      <point x="131" y="27" type="line"/>
      <point x="131" y="510" type="line"/>
      <point x="100" y="510" type="line"/>
    </contour>
    <contour>
      <point x="338" y="0" type="line"/>
      <point x="606" y="0" type="line"/>
      <point x="606" y="510" type="line"/>
      <point x="575" y="510" type="line"/>
      <point x="575" y="27" type="line"/>
      <point x="369" y="27" type="line"/>
      <point x="369" y="510" type="line"/>
      <point x="338" y="510" type="line"/>
    </contour>
    <contour>
      <point x="633" y="-148" type="line"/>
      <point x="658" y="-148" type="line"/>
      <point x="664" y="10" type="line"/>
      <point x="664" y="27" type="line"/>
      <point x="595" y="27" type="line"/>
      <point x="595" y="0" type="line"/>
      <point x="633" y="0" type="line"/>
    </contour>
  </outline>
</glyph>
<glyph name="T" format="1">
  <advance width="520"/>
  <outline>
    <contour>
      <point x="258" y="682" type="move" name="aboveUC"/>
    </contour>
    <contour>
      <point x="260" y="0" type="move" name="baseLC"/>
    </contour>
    <contour>
      <point x="260" y="-22" type="move" name="belowLC"/>
    </contour>
    <contour>
      <point x="244" y="0" type="line"/>
      <point x="276" y="0" type="line"/>
      <point x="276" y="632" type="line"/>
      <point x="490" y="632" type="line"/>
      <point x="490" y="660" type="line"/>
      <point x="30" y="660" type="line"/>
      <point x="30" y="632" type="line"/>
      <point x="244" y="632" type="line"/>
    </contour>
  </outline>
</glyph>
<glyph name="T.sups" format="1">
  <advance width="341"/>
  <outline>
    <contour>
      <point x="156" y="270" type="line"/>
      <point x="185" y="270" type="line"/>
      <point x="185" y="677" type="line"/>
      <point x="324" y="677" type="line"/>
      <point x="324" y="702" type="line"/>
      <point x="17" y="702" type="line"/>
      <point x="17" y="677" type="line"/>
      <point x="156" y="677" type="line"/>
    </contour>
  </outline>
</glyph>
<glyph name="Tau.sc" format="1">
	<advance width="448"/>
	<outline>
		<component base="T.sc"/>
		<contour>
			<point name="aboveLC" x="224" y="562" type="move"/>
		</contour>
		<contour>
			<point name="baseLC" x="216" y="0" type="move"/>
		</contour>
		<contour>
			<point name="belowLC" x="224" y="-22" type="move"/>
		</contour>
	</outline>
</glyph>
<glyph name="Tau.sc" format="1">
  <advance width="448"/>
  <outline>
    <contour>
      <point x="224" y="562" type="move" name="aboveLC"/>
    </contour>
    <contour>
      <point x="216" y="0" type="move" name="baseLC"/>
    </contour>
    <contour>
      <point x="224" y="-22" type="move" name="belowLC"/>
    </contour>
    <component base="T.sc"/>
  </outline>
</glyph>
<glyph name="Tbar.sc" format="1">
  <advance width="448"/>
  <outline>
    <contour>
      <point x="208" y="0" type="line"/>
      <point x="240" y="0" type="line"/>
      <point x="240" y="482" type="line"/>
      <point x="418" y="482" type="line"/>
      <point x="418" y="510" type="line"/>
      <point x="30" y="510" type="line"/>
      <point x="30" y="482" type="line"/>
      <point x="208" y="482" type="line"/>
    </contour>
    <contour>
      <point x="80" y="256" type="line"/>
      <point x="368" y="256" type="line"/>
      <point x="368" y="284" type="line"/>
      <point x="164" y="284" type="line"/>
      <point x="80" y="282" type="line"/>
    </contour>
    <contour>
      <point x="224" y="562" type="move" name="aboveUC"/>
    </contour>
    <contour>
      <point x="216" y="0" type="move" name="baseLC"/>
    </contour>
    <contour>
      <point x="224" y="-22" type="move" name="belowLC"/>
    </contour>
  </outline>
</glyph>
<glyph name="Tse" format="1">
  <advance width="620"/>
  <outline>
    <contour>
      <point x="314" y="682" type="move" name="aboveUC"/>
    </contour>
    <contour>
      <point x="100" y="0" type="line"/>
      <point x="516" y="0" type="line"/>
      <point x="516" y="660" type="line"/>
      <point x="484" y="660" type="line"/>
      <point x="484" y="28" type="line"/>
      <point x="132" y="28" type="line"/>
      <point x="132" y="660" type="line"/>
      <point x="100" y="660" type="line"/>
    </contour>
    <contour>
      <point x="552" y="-188" type="line"/>
      <point x="578" y="-188" type="line"/>
      <point x="584" y="12" type="line"/>
      <point x="584" y="28" type="line"/>
      <point x="506" y="28" type="line"/>
      <point x="506" y="0" type="line"/>
      <point x="552" y="0" type="line"/>
    </contour>
  </outline>
</glyph>
<glyph name="Tshe" format="1">
  <advance width="678"/>
  <outline>
    <contour>
      <point x="224" y="0" type="line"/>
      <point x="256" y="0" type="line"/>
      <point x="256" y="354" type="line"/>
      <point x="289" y="360"/>
      <point x="340" y="366"/>
      <point x="384" y="366" type="curve" smooth="yes"/>
      <point x="508" y="366"/>
      <point x="574" y="322"/>
      <point x="574" y="202" type="curve" smooth="yes"/>
      <point x="574" y="0" type="line"/>
      <point x="606" y="0" type="line"/>
      <point x="606" y="202" type="line" smooth="yes"/>
      <point x="606" y="339"/>
      <point x="526" y="396"/>
      <point x="386" y="396" type="curve" smooth="yes"/>
      <point x="341" y="396"/>
      <point x="290" y="390"/>
      <point x="256" y="384" type="curve"/>
      <point x="256" y="660" type="line"/>
      <point x="224" y="660" type="line"/>
    </contour>
    <contour>
      <point x="30" y="632" type="line"/>
      <point x="504" y="632" type="line"/>
      <point x="504" y="660" type="line"/>
      <point x="30" y="660" type="line"/>
    </contour>
  </outline>
</glyph>
<glyph name="Theta.sc" format="1">
  <advance width="568"/>
  <outline>
    <contour>
      <point x="182" y="258" type="line"/>
      <point x="386" y="258" type="line"/>
      <point x="386" y="286" type="line"/>
      <point x="182" y="286" type="line"/>
    </contour>
    <component base="O.sc"/>
  </outline>
</glyph>
<glyph name="U.sups" format="1">
  <advance width="418"/>
  <outline>
    <contour>
      <point x="209" y="262" type="curve" smooth="yes"/>
      <point x="283" y="262"/>
      <point x="356" y="301"/>
      <point x="356" y="435" type="curve" smooth="yes"/>
      <point x="356" y="702" type="line"/>
      <point x="329" y="702" type="line"/>
      <point x="329" y="439" type="line" smooth="yes"/>
      <point x="329" y="323"/>
      <point x="272" y="288"/>
      <point x="209" y="288" type="curve" smooth="yes"/>
      <point x="147" y="288"/>
      <point x="91" y="323"/>
      <point x="91" y="439" type="curve" smooth="yes"/>
      <point x="91" y="702" type="line"/>
      <point x="62" y="702" type="line"/>
      <point x="62" y="435" type="line" smooth="yes"/>
      <point x="62" y="301"/>
      <point x="135" y="262"/>
    </contour>
  </outline>
</glyph>
<glyph name="Upsilon.sc" format="1">
  <advance width="373"/>
  <outline>
    <contour>
      <point x="189" y="562" type="move" name="aboveLC"/>
    </contour>
    <contour>
      <point x="186" y="-22" type="move" name="belowLC"/>
    </contour>
    <component base="Y.sc"/>
  </outline>
</glyph>
<glyph name="Ustraight" format="1">
  <advance width="436"/>
  <outline>
    <contour>
      <point x="218" y="682" type="move" name="aboveUC"/>
    </contour>
    <component base="Y"/>
  </outline>
</glyph>
<glyph name="Ustraightstroke" format="1">
  <advance width="436"/>
  <outline>
    <contour>
      <point x="218" y="682" type="move" name="aboveUC"/>
    </contour>
    <contour>
      <point x="64" y="266" type="line"/>
      <point x="372" y="266" type="line"/>
      <point x="372" y="294" type="line"/>
      <point x="148" y="294" type="line"/>
      <point x="64" y="292" type="line"/>
    </contour>
    <component base="Y"/>
  </outline>
</glyph>
<glyph name="V.sc" format="1">
  <advance width="411"/>
  <outline>
    <contour>
      <point x="191" y="0" type="line"/>
      <point x="223" y="0" type="line"/>
      <point x="405" y="510" type="line"/>
      <point x="373" y="510" type="line"/>
      <point x="269" y="211" type="line" smooth="yes"/>
      <point x="247" y="148"/>
      <point x="232" y="101"/>
      <point x="210" y="39" type="curve"/>
      <point x="206" y="39" type="line"/>
      <point x="184" y="101"/>
      <point x="167" y="148"/>
      <point x="145" y="211" type="curve" smooth="yes"/>
      <point x="40" y="510" type="line"/>
      <point x="6" y="510" type="line"/>
    </contour>
    <contour>
      <point x="208" y="562" type="move" name="aboveUC"/>
    </contour>
    <contour>
      <point x="208" y="-22" type="move" name="belowLC"/>
    </contour>
  </outline>
</glyph>
<glyph name="V.sups" format="1">
  <advance width="320"/>
  <outline>
    <contour>
      <point x="146" y="270" type="line"/>
      <point x="177" y="270" type="line"/>
      <point x="320" y="702" type="line"/>
      <point x="290" y="702" type="line"/>
      <point x="209" y="450" type="line" smooth="yes"/>
      <point x="192" y="397"/>
      <point x="182" y="357"/>
      <point x="164" y="305" type="curve"/>
      <point x="161" y="305" type="line"/>
      <point x="143" y="357"/>
      <point x="131" y="397"/>
      <point x="114" y="450" type="curve" smooth="yes"/>
      <point x="32" y="702" type="line"/>
      <point x="1" y="702" type="line"/>
    </contour>
  </outline>
</glyph>
<glyph name="W.sups" format="1">
  <advance width="507"/>
  <outline>
    <contour>
      <point x="117" y="270" type="line"/>
      <point x="149" y="270" type="line"/>
      <point x="228" y="568" type="line" smooth="yes"/>
      <point x="237" y="601"/>
      <point x="244" y="631"/>
      <point x="252" y="665" type="curve"/>
      <point x="255" y="665" type="line"/>
      <point x="263" y="631"/>
      <point x="269" y="601"/>
      <point x="278" y="568" type="curve" smooth="yes"/>
      <point x="359" y="270" type="line"/>
      <point x="390" y="270" type="line"/>
      <point x="490" y="702" type="line"/>
      <point x="461" y="702" type="line"/>
      <point x="405" y="448" type="line"/>
      <point x="394" y="400"/>
      <point x="386" y="353"/>
      <point x="376" y="307" type="curve"/>
      <point x="373" y="307" type="line"/>
      <point x="361" y="353"/>
      <point x="351" y="400"/>
      <point x="338" y="448" type="curve"/>
      <point x="269" y="702" type="line"/>
      <point x="239" y="702" type="line"/>
      <point x="170" y="448" type="line"/>
      <point x="157" y="400"/>
      <point x="147" y="353"/>
      <point x="136" y="307" type="curve"/>
      <point x="133" y="307" type="line"/>
      <point x="124" y="353"/>
      <point x="115" y="400"/>
      <point x="104" y="448" type="curve"/>
      <point x="48" y="702" type="line"/>
      <point x="17" y="702" type="line"/>
    </contour>
  </outline>
</glyph>
<glyph name="Y.sups" format="1">
  <advance width="291"/>
  <outline>
    <contour>
      <point x="131" y="270" type="line"/>
      <point x="160" y="270" type="line"/>
      <point x="160" y="446" type="line"/>
      <point x="292" y="702" type="line"/>
      <point x="262" y="702" type="line"/>
      <point x="195" y="566" type="line"/>
      <point x="181" y="534"/>
      <point x="165" y="505"/>
      <point x="148" y="473" type="curve"/>
      <point x="145" y="473" type="line"/>
      <point x="128" y="505"/>
      <point x="113" y="534"/>
      <point x="98" y="566" type="curve"/>
      <point x="30" y="702" type="line"/>
      <point x="-1" y="702" type="line"/>
      <point x="131" y="446" type="line"/>
    </contour>
  </outline>
</glyph>
<glyph name="Yat.sc" format="1">
  <advance width="551"/>
  <outline>
    <contour>
      <point x="158" y="0" type="line"/>
      <point x="298" y="0" type="line" smooth="yes"/>
      <point x="427" y="0"/>
      <point x="503" y="37"/>
      <point x="503" y="140" type="curve" smooth="yes"/>
      <point x="503" y="238"/>
      <point x="427" y="283"/>
      <point x="298" y="283" type="curve" smooth="yes"/>
      <point x="189" y="283" type="line"/>
      <point x="189" y="510" type="line"/>
      <point x="158" y="510" type="line"/>
    </contour>
    <contour>
      <point x="189" y="26" type="line"/>
      <point x="189" y="258" type="line"/>
      <point x="288" y="258" type="line"/>
      <point x="410" y="258"/>
      <point x="471" y="225"/>
      <point x="471" y="140" type="curve" smooth="yes"/>
      <point x="471" y="53"/>
      <point x="410" y="26"/>
      <point x="288" y="26" type="curve" smooth="yes"/>
    </contour>
    <contour>
      <point x="30" y="392" type="line"/>
      <point x="368" y="392" type="line"/>
      <point x="368" y="418" type="line"/>
      <point x="30" y="418" type="line"/>
    </contour>
  </outline>
</glyph>
<glyph name="Zeta.sc" format="1">
	<advance width="471"/>
	<outline>
		<component base="Z.sc"/>
		<contour>
			<point name="aboveLC" x="246" y="562" type="move"/>
		</contour>
		<contour>
			<point name="belowLC" x="254" y="-22" type="move"/>
		</contour>
	</outline>
</glyph>
<glyph name="Zeta.sc" format="1">
  <advance width="471"/>
  <outline>
    <contour>
      <point x="246" y="562" type="move" name="aboveLC"/>
    </contour>
    <contour>
      <point x="254" y="-22" type="move" name="belowLC"/>
    </contour>
    <component base="Z.sc"/>
  </outline>
</glyph>
<glyph name="Zhe.sc" format="1">
  <advance width="642"/>
  <outline>
    <contour>
      <point x="306" y="0" type="line"/>
      <point x="336" y="0" type="line"/>
      <point x="336" y="258" type="line"/>
      <point x="432" y="258" type="line"/>
      <point x="596" y="0" type="line"/>
      <point x="632" y="0" type="line"/>
      <point x="450" y="286" type="line"/>
      <point x="336" y="286" type="line"/>
      <point x="336" y="510" type="line"/>
      <point x="306" y="510" type="line"/>
      <point x="306" y="286" type="line"/>
      <point x="192" y="286" type="line"/>
      <point x="10" y="0" type="line"/>
      <point x="46" y="0" type="line"/>
      <point x="210" y="258" type="line"/>
      <point x="306" y="258" type="line"/>
    </contour>
    <contour>
      <point x="454" y="270" type="line"/>
      <point x="524" y="414" type="line" smooth="yes"/>
      <point x="556" y="482"/>
      <point x="578" y="490"/>
      <point x="604" y="490" type="curve" smooth="yes"/>
      <point x="608" y="490"/>
      <point x="614" y="490"/>
      <point x="621" y="488" type="curve"/>
      <point x="626" y="520" type="line"/>
      <point x="622" y="521"/>
      <point x="614" y="522"/>
      <point x="606" y="522" type="curve" smooth="yes"/>
      <point x="566" y="522"/>
      <point x="536" y="506"/>
      <point x="496" y="424" type="curve" smooth="yes"/>
      <point x="425" y="276" type="line"/>
    </contour>
    <contour>
      <point x="217" y="276" type="line"/>
      <point x="146" y="424" type="line" smooth="yes"/>
      <point x="106" y="506"/>
      <point x="76" y="522"/>
      <point x="36" y="522" type="curve" smooth="yes"/>
      <point x="28" y="522"/>
      <point x="20" y="521"/>
      <point x="16" y="520" type="curve"/>
      <point x="21" y="488" type="line"/>
      <point x="28" y="490"/>
      <point x="34" y="490"/>
      <point x="38" y="490" type="curve" smooth="yes"/>
      <point x="64" y="490"/>
      <point x="86" y="482"/>
      <point x="118" y="414" type="curve" smooth="yes"/>
      <point x="188" y="270" type="line"/>
    </contour>
  </outline>
</glyph>
<glyph name="Zhe.a" format="1">
  <advance width="754"/>
  <outline>
    <contour>
      <point x="8" y="-12" type="curve" smooth="yes"/>
      <point x="55" y="-12"/>
      <point x="80" y="6"/>
      <point x="136" y="114" type="curve"/>
      <point x="246" y="360" type="line"/>
      <point x="216" y="366" type="line"/>
      <point x="108" y="124" type="line"/>
      <point x="60" y="32"/>
      <point x="40" y="22"/>
      <point x="12" y="22" type="curve" smooth="yes"/>
      <point x="6" y="22"/>
      <point x="-2" y="24"/>
      <point x="-8" y="26" type="curve"/>
      <point x="-14" y="-8" type="line"/>
      <point x="-8" y="-10"/>
      <point x="0" y="-12"/>
    </contour>
    <contour>
      <point x="210" y="348" type="line"/>
      <point x="240" y="354" type="line"/>
      <point x="166" y="546" type="line"/>
      <point x="119" y="654"/>
      <point x="85" y="672"/>
      <point x="38" y="672" type="curve" smooth="yes"/>
      <point x="30" y="672"/>
      <point x="22" y="670"/>
      <point x="16" y="668" type="curve"/>
      <point x="22" y="634" type="line"/>
      <point x="28" y="636"/>
      <point x="36" y="638"/>
      <point x="42" y="638" type="curve" smooth="yes"/>
      <point x="70" y="638"/>
      <point x="99" y="626"/>
      <point x="138" y="536" type="curve"/>
    </contour>
    <contour>
      <point x="362" y="0" type="line"/>
      <point x="392" y="0" type="line"/>
      <point x="392" y="660" type="line"/>
      <point x="362" y="660" type="line"/>
      <point x="362" y="366" type="line"/>
      <point x="217" y="366" type="line"/>
      <point x="235" y="338" type="line"/>
      <point x="362" y="338" type="line"/>
    </contour>
    <contour>
      <point x="362" y="0" type="line"/>
      <point x="392" y="0" type="line"/>
      <point x="392" y="338" type="line"/>
      <point x="519" y="338" type="line"/>
      <point x="537" y="366" type="line"/>
      <point x="392" y="366" type="line"/>
      <point x="392" y="660" type="line"/>
      <point x="362" y="660" type="line"/>
    </contour>
    <contour>
      <point x="746" y="-12" type="curve" smooth="yes"/>
      <point x="754" y="-12"/>
      <point x="762" y="-10"/>
      <point x="768" y="-8" type="curve"/>
      <point x="762" y="26" type="line"/>
      <point x="756" y="24"/>
      <point x="748" y="22"/>
      <point x="742" y="22" type="curve" smooth="yes"/>
      <point x="714" y="22"/>
      <point x="694" y="32"/>
      <point x="646" y="124" type="curve"/>
      <point x="538" y="366" type="line"/>
      <point x="508" y="360" type="line"/>
      <point x="618" y="114" type="line"/>
      <point x="674" y="6"/>
      <point x="699" y="-12"/>
    </contour>
    <contour>
      <point x="544" y="348" type="line"/>
      <point x="616" y="536" type="line"/>
      <point x="655" y="626"/>
      <point x="684" y="638"/>
      <point x="712" y="638" type="curve" smooth="yes"/>
      <point x="718" y="638"/>
      <point x="726" y="636"/>
      <point x="732" y="634" type="curve"/>
      <point x="738" y="668" type="line"/>
      <point x="732" y="670"/>
      <point x="724" y="672"/>
      <point x="716" y="672" type="curve" smooth="yes"/>
      <point x="669" y="672"/>
      <point x="635" y="654"/>
      <point x="588" y="546" type="curve"/>
      <point x="514" y="354" type="line"/>
    </contour>
  </outline>
</glyph>
<glyph name="Zhedescender.a" format="1">
  <advance width="788"/>
  <outline>
    <contour>
      <point x="720" y="-192" type="line"/>
      <point x="746" y="-192" type="line"/>
      <point x="752" y="12" type="line"/>
      <point x="752" y="28" type="line"/>
      <point x="696" y="28" type="line"/>
      <point x="696" y="0" type="line"/>
      <point x="720" y="0" type="line"/>
    </contour>
    <component base="Zhe.a"/>
  </outline>
</glyph>
<glyph name="Zhedescender.b" format="1">
  <advance width="788"/>
  <outline>
    <contour>
      <point x="720" y="-192" type="line"/>
      <point x="746" y="-192" type="line"/>
      <point x="752" y="12" type="line"/>
      <point x="752" y="28" type="line"/>
      <point x="696" y="28" type="line"/>
      <point x="696" y="0" type="line"/>
      <point x="720" y="0" type="line"/>
    </contour>
    <component base="Zhe.b"/>
  </outline>
</glyph>
<glyph name="a.alt" format="1">
	<advance width="540"/>
	<outline>
		<component base="alphalatin"/>
		<contour>
			<point name="ogonekLC" x="380" y="0" type="move"/>
		</contour>
		<contour>
			<point name="aboveLC" x="268" y="502" type="move"/>
		</contour>
		<contour>
			<point name="belowLC" x="268" y="-22" type="move"/>
		</contour>
	</outline>
</glyph>
<glyph name="a.supa" format="1">
  <advance width="364"/>
  <outline>
    <contour>
      <point x="176" y="262" type="curve" smooth="yes"/>
      <point x="216" y="262"/>
      <point x="244" y="284"/>
      <point x="272" y="308" type="curve"/>
      <point x="276" y="308" type="line"/>
      <point x="280" y="270" type="line"/>
      <point x="304" y="270" type="line"/>
      <point x="304" y="586" type="line"/>
      <point x="282" y="586" type="line"/>
      <point x="278" y="556" type="line"/>
      <point x="274" y="556" type="line"/>
      <point x="246" y="580"/>
      <point x="216" y="594"/>
      <point x="180" y="594" type="curve" smooth="yes"/>
      <point x="104" y="594"/>
      <point x="38" y="532"/>
      <point x="38" y="432" type="curve" smooth="yes"/>
      <point x="38" y="324"/>
      <point x="90" y="262"/>
    </contour>
    <contour>
      <point x="178" y="290" type="curve" smooth="yes"/>
      <point x="102" y="290"/>
      <point x="68" y="346"/>
      <point x="68" y="434" type="curve" smooth="yes"/>
      <point x="68" y="510"/>
      <point x="118" y="568"/>
      <point x="178" y="568" type="curve" smooth="yes"/>
      <point x="208" y="568"/>
      <point x="242" y="556"/>
      <point x="276" y="526" type="curve"/>
      <point x="276" y="340" type="line"/>
      <point x="240" y="308"/>
      <point x="210" y="290"/>
    </contour>
  </outline>
</glyph>
<glyph name="a.sups" format="1">
  <advance width="334"/>
  <outline>
    <contour>
      <point x="140" y="262" type="curve" smooth="yes"/>
      <point x="184" y="262"/>
      <point x="220" y="286"/>
      <point x="248" y="310" type="curve"/>
      <point x="252" y="310" type="line"/>
      <point x="258" y="270" type="line"/>
      <point x="280" y="270" type="line"/>
      <point x="280" y="472" type="line" smooth="yes"/>
      <point x="280" y="544"/>
      <point x="258" y="594"/>
      <point x="182" y="594" type="curve" smooth="yes"/>
      <point x="130" y="594"/>
      <point x="82" y="568"/>
      <point x="58" y="552" type="curve"/>
      <point x="70" y="530" type="line"/>
      <point x="92" y="546"/>
      <point x="138" y="568"/>
      <point x="180" y="568" type="curve" smooth="yes"/>
      <point x="238" y="568"/>
      <point x="252" y="524"/>
      <point x="252" y="470" type="curve"/>
      <point x="108" y="456"/>
      <point x="44" y="422"/>
      <point x="44" y="352" type="curve" smooth="yes"/>
      <point x="44" y="294"/>
      <point x="84" y="262"/>
    </contour>
    <contour>
      <point x="146" y="288" type="curve" smooth="yes"/>
      <point x="102" y="288"/>
      <point x="74" y="308"/>
      <point x="74" y="354" type="curve" smooth="yes"/>
      <point x="74" y="402"/>
      <point x="120" y="434"/>
      <point x="252" y="448" type="curve"/>
      <point x="252" y="340" type="line"/>
      <point x="214" y="304"/>
      <point x="178" y="288"/>
    </contour>
  </outline>
</glyph>
<glyph name="acutecmb" format="1">
  <advance width="0"/>
  <outline>
    <contour>
      <point x="0" y="502" type="move" name="_aboveLC"/>
    </contour>
    <contour>
      <point x="-52" y="572" type="line"/>
      <point x="-24" y="572" type="line"/>
      <point x="90" y="726" type="line"/>
      <point x="50" y="726" type="line"/>
    </contour>
  </outline>
</glyph>
<glyph name="acyr" format="1">
  <advance width="486"/>
  <outline>
    <contour>
      <point x="260" y="502" type="move" name="aboveLC"/>
    </contour>
    <component base="a"/>
  </outline>
</glyph>
<glyph name="alpha" format="1">
  <advance width="532"/>
  <outline>
    <contour>
      <point x="232" y="-12" type="curve"/>
      <point x="298" y="-12"/>
      <point x="354" y="26"/>
      <point x="394" y="100" type="curve"/>
      <point x="396" y="100" type="line"/>
      <point x="382" y="26"/>
      <point x="418" y="-12"/>
      <point x="466" y="-12" type="curve" smooth="yes"/>
      <point x="486" y="-12"/>
      <point x="500" y="-6"/>
      <point x="510" y="-2" type="curve"/>
      <point x="503" y="24" type="line"/>
      <point x="494" y="20"/>
      <point x="480" y="16"/>
      <point x="468" y="16" type="curve" smooth="yes"/>
      <point x="442" y="16"/>
      <point x="420" y="38"/>
      <point x="420" y="70" type="curve" smooth="yes"/>
      <point x="420" y="170"/>
      <point x="452" y="340"/>
      <point x="478" y="478" type="curve"/>
      <point x="448" y="478" type="line"/>
      <point x="424" y="340" type="line"/>
      <point x="422" y="340" type="line"/>
      <point x="398" y="450"/>
      <point x="326" y="490"/>
      <point x="262" y="490" type="curve" smooth="yes"/>
      <point x="152" y="490"/>
      <point x="54" y="394"/>
      <point x="54" y="225" type="curve" smooth="yes"/>
      <point x="54" y="67"/>
      <point x="128" y="-12"/>
    </contour>
    <contour>
      <point x="234" y="16" type="curve" smooth="yes"/>
      <point x="140" y="16"/>
      <point x="86" y="99"/>
      <point x="86" y="225" type="curve" smooth="yes"/>
      <point x="86" y="376"/>
      <point x="170" y="462"/>
      <point x="260" y="462" type="curve" smooth="yes"/>
      <point x="309" y="462"/>
      <point x="376" y="442"/>
      <point x="408" y="298" type="curve"/>
      <point x="400" y="202" type="line" smooth="yes"/>
      <point x="392" y="101"/>
      <point x="314" y="16"/>
    </contour>
    <contour>
      <point x="274" y="502" type="move" name="aboveLC"/>
    </contour>
    <contour>
      <point x="278" y="-22" type="move" name="belowLC"/>
    </contour>
  </outline>
</glyph>
<glyph name="aogonek.alt" format="1">
  <advance width="540"/>
  <outline>
    <contour>
      <point x="268" y="502" type="move" name="aboveLC"/>
    </contour>
    <contour>
      <point x="406" y="-202" type="curve" smooth="yes"/>
      <point x="426" y="-202"/>
      <point x="452" y="-192"/>
      <point x="466" y="-180" type="curve"/>
      <point x="452" y="-160" type="line"/>
      <point x="438" y="-170"/>
      <point x="426" y="-174"/>
      <point x="408" y="-174" type="curve" smooth="yes"/>
      <point x="382" y="-174"/>
      <point x="358" y="-156"/>
      <point x="358" y="-120" type="curve" smooth="yes"/>
      <point x="358" y="-76"/>
      <point x="390" y="-36"/>
      <point x="444" y="0" type="curve"/>
      <point x="444" y="478" type="line"/>
      <point x="416" y="478" type="line"/>
      <point x="414" y="432" type="line"/>
      <point x="412" y="432" type="line"/>
      <point x="366" y="468"/>
      <point x="326" y="490"/>
      <point x="268" y="490" type="curve" smooth="yes"/>
      <point x="152" y="490"/>
      <point x="54" y="392"/>
      <point x="54" y="238" type="curve" smooth="yes"/>
      <point x="54" y="76"/>
      <point x="132" y="-12"/>
      <point x="252" y="-12" type="curve" smooth="yes"/>
      <point x="318" y="-12"/>
      <point x="372" y="24"/>
      <point x="412" y="64" type="curve"/>
      <point x="414" y="64" type="line"/>
      <point x="418" y="8" type="line"/>
      <point x="362" y="-32"/>
      <point x="328" y="-72"/>
      <point x="328" y="-122" type="curve" smooth="yes"/>
      <point x="328" y="-176"/>
      <point x="362" y="-202"/>
    </contour>
    <contour>
      <point x="254" y="16" type="curve" smooth="yes"/>
      <point x="146" y="16"/>
      <point x="86" y="106"/>
      <point x="86" y="238" type="curve" smooth="yes"/>
      <point x="86" y="362"/>
      <point x="164" y="462"/>
      <point x="266" y="462" type="curve" smooth="yes"/>
      <point x="316" y="462"/>
      <point x="360" y="444"/>
      <point x="414" y="396" type="curve"/>
      <point x="414" y="100" type="line"/>
      <point x="360" y="46"/>
      <point x="310" y="16"/>
    </contour>
  </outline>
</glyph>
<glyph name="asper" format="1">
  <advance width="532"/>
  <outline>
    <contour>
      <point x="266" y="502" type="move" name="_aboveLC"/>
    </contour>
    <component base="aspercmb" xOffset="266"/>
  </outline>
</glyph>
<glyph name="asperacute.cap" format="1">
  <advance width="160"/>
  <outline>
    <contour>
      <point x="54" y="486" type="curve"/>
      <point x="66" y="508" type="line"/>
      <point x="38" y="526"/>
      <point x="16" y="552"/>
      <point x="16" y="582" type="curve" smooth="yes"/>
      <point x="16" y="624"/>
      <point x="40" y="644"/>
      <point x="82" y="646" type="curve"/>
      <point x="80" y="672" type="line"/>
      <point x="32" y="670"/>
      <point x="-14" y="646"/>
      <point x="-14" y="586" type="curve" smooth="yes"/>
      <point x="-14" y="538"/>
      <point x="20" y="506"/>
    </contour>
    <contour>
      <point x="116" y="488" type="line"/>
      <point x="140" y="488" type="line"/>
      <point x="184" y="670" type="line"/>
      <point x="146" y="670" type="line"/>
    </contour>
  </outline>
</glyph>
<glyph name="asperacute" format="1">
  <advance width="532"/>
  <outline>
    <contour>
      <point x="266" y="502" type="move" name="_aboveLC"/>
    </contour>
    <component base="asperacutecmb" xOffset="266"/>
  </outline>
</glyph>
<glyph name="asperacutecmb" format="1">
  <advance width="0"/>
  <outline>
    <contour>
      <point x="0" y="502" type="move" name="_aboveLC"/>
    </contour>
    <contour>
      <point x="4" y="562" type="line"/>
      <point x="28" y="562" type="line"/>
      <point x="86" y="724" type="line"/>
      <point x="48" y="724" type="line"/>
    </contour>
    <contour>
      <point x="-56" y="560" type="curve"/>
      <point x="-48" y="582" type="line"/>
      <point x="-74" y="598"/>
      <point x="-94" y="614"/>
      <point x="-94" y="640" type="curve" smooth="yes"/>
      <point x="-94" y="672"/>
      <point x="-70" y="688"/>
      <point x="-28" y="690" type="curve"/>
      <point x="-30" y="716" type="line"/>
      <point x="-78" y="714"/>
      <point x="-124" y="694"/>
      <point x="-124" y="644" type="curve" smooth="yes"/>
      <point x="-124" y="598"/>
      <point x="-90" y="578"/>
    </contour>
  </outline>
</glyph>
<glyph name="aspercmb" format="1">
  <outline>
    <contour>
      <point x="22" y="578" type="curve"/>
      <point x="30" y="600" type="line"/>
      <point x="-8" y="612"/>
      <point x="-36" y="628"/>
      <point x="-36" y="658" type="curve" smooth="yes"/>
      <point x="-36" y="690"/>
      <point x="-4" y="706"/>
      <point x="50" y="708" type="curve"/>
      <point x="48" y="734" type="line"/>
      <point x="-10" y="732"/>
      <point x="-66" y="712"/>
      <point x="-66" y="662" type="curve" smooth="yes"/>
      <point x="-66" y="612"/>
      <point x="-22" y="592"/>
    </contour>
    <contour>
      <point x="0" y="502" type="move" name="_aboveLC"/>
    </contour>
  </outline>
</glyph>
<glyph name="aspergrave.cap" format="1">
  <advance width="160"/>
  <outline>
    <contour>
      <point x="160" y="484" type="line"/>
      <point x="184" y="490" type="line"/>
      <point x="154" y="670" type="line"/>
      <point x="118" y="664" type="line"/>
    </contour>
    <contour>
      <point x="54" y="486" type="curve"/>
      <point x="66" y="508" type="line"/>
      <point x="38" y="526"/>
      <point x="16" y="552"/>
      <point x="16" y="582" type="curve" smooth="yes"/>
      <point x="16" y="624"/>
      <point x="40" y="644"/>
      <point x="82" y="646" type="curve"/>
      <point x="80" y="672" type="line"/>
      <point x="32" y="670"/>
      <point x="-14" y="646"/>
      <point x="-14" y="586" type="curve" smooth="yes"/>
      <point x="-14" y="538"/>
      <point x="20" y="506"/>
    </contour>
  </outline>
</glyph>
<glyph name="aspergravecmb" format="1">
  <outline>
    <contour>
      <point x="-58" y="578" type="curve"/>
      <point x="-50" y="600" type="line"/>
      <point x="-83" y="610"/>
      <point x="-106" y="628"/>
      <point x="-106" y="658" type="curve" smooth="yes"/>
      <point x="-106" y="690"/>
      <point x="-78" y="706"/>
      <point x="-30" y="708" type="curve"/>
      <point x="-32" y="734" type="line"/>
      <point x="-85" y="732"/>
      <point x="-136" y="712"/>
      <point x="-136" y="662" type="curve" smooth="yes"/>
      <point x="-136" y="612"/>
      <point x="-98" y="591"/>
    </contour>
    <contour>
      <point x="52" y="560" type="line"/>
      <point x="76" y="566" type="line"/>
      <point x="32" y="752" type="line"/>
      <point x="-6" y="744" type="line"/>
    </contour>
    <contour>
      <point x="0" y="502" type="move" name="_aboveLC"/>
    </contour>
  </outline>
</glyph>
<glyph name="aspertilde.cap" format="1">
  <advance width="160"/>
  <outline>
    <contour>
      <point x="100" y="468" type="curve"/>
      <point x="108" y="490" type="line"/>
      <point x="78" y="498"/>
      <point x="56" y="512"/>
      <point x="56" y="528" type="curve" smooth="yes"/>
      <point x="56" y="552"/>
      <point x="80" y="565"/>
      <point x="128" y="566" type="curve"/>
      <point x="126" y="590" type="line"/>
      <point x="74" y="588"/>
      <point x="26" y="573"/>
      <point x="26" y="532" type="curve" smooth="yes"/>
      <point x="26" y="498"/>
      <point x="66" y="478"/>
    </contour>
    <contour>
      <point x="-24" y="614" type="curve"/>
      <point x="0" y="614" type="line"/>
      <point x="2" y="640"/>
      <point x="17" y="646"/>
      <point x="34" y="646" type="curve" smooth="yes"/>
      <point x="66" y="646"/>
      <point x="82" y="614"/>
      <point x="128" y="614" type="curve" smooth="yes"/>
      <point x="168" y="614"/>
      <point x="182" y="642"/>
      <point x="184" y="672" type="curve"/>
      <point x="160" y="672" type="line"/>
      <point x="158" y="646"/>
      <point x="143" y="640"/>
      <point x="126" y="640" type="curve" smooth="yes"/>
      <point x="94" y="640"/>
      <point x="78" y="672"/>
      <point x="32" y="672" type="curve" smooth="yes"/>
      <point x="-8" y="672"/>
      <point x="-22" y="644"/>
    </contour>
  </outline>
</glyph>
<glyph name="aspertildecmb" format="1">
  <outline>
    <contour>
      <point x="20" y="562" type="curve"/>
      <point x="28" y="584" type="line"/>
      <point x="-2" y="592"/>
      <point x="-24" y="606"/>
      <point x="-24" y="622" type="curve" smooth="yes"/>
      <point x="-24" y="646"/>
      <point x="0" y="659"/>
      <point x="48" y="660" type="curve"/>
      <point x="46" y="684" type="line"/>
      <point x="-6" y="682"/>
      <point x="-54" y="667"/>
      <point x="-54" y="626" type="curve" smooth="yes"/>
      <point x="-54" y="592"/>
      <point x="-14" y="572"/>
    </contour>
    <contour>
      <point x="-128" y="704" type="curve"/>
      <point x="-104" y="702" type="line"/>
      <point x="-100" y="732"/>
      <point x="-93" y="748"/>
      <point x="-70" y="748" type="curve" smooth="yes"/>
      <point x="-25" y="748"/>
      <point x="10" y="706"/>
      <point x="70" y="706" type="curve" smooth="yes"/>
      <point x="114" y="706"/>
      <point x="126" y="745"/>
      <point x="128" y="776" type="curve"/>
      <point x="104" y="778" type="line"/>
      <point x="100" y="748"/>
      <point x="93" y="732"/>
      <point x="70" y="732" type="curve" smooth="yes"/>
      <point x="24" y="732"/>
      <point x="-9" y="774"/>
      <point x="-70" y="774" type="curve" smooth="yes"/>
      <point x="-114" y="774"/>
      <point x="-126" y="735"/>
    </contour>
    <contour>
      <point x="0" y="502" type="move" name="_aboveLC"/>
    </contour>
  </outline>
</glyph>
<glyph name="beta.alt" format="1">
  <advance width="534"/>
  <outline>
    <contour>
      <point x="294" y="-12" type="curve" smooth="yes"/>
      <point x="402" y="-12"/>
      <point x="484" y="70"/>
      <point x="484" y="182" type="curve" smooth="yes"/>
      <point x="484" y="296"/>
      <point x="420" y="376"/>
      <point x="298" y="384" type="curve"/>
      <point x="298" y="388" type="line"/>
      <point x="376" y="428"/>
      <point x="418" y="492"/>
      <point x="418" y="568" type="curve" smooth="yes"/>
      <point x="418" y="678"/>
      <point x="342" y="732"/>
      <point x="264" y="732" type="curve" smooth="yes"/>
      <point x="147" y="732"/>
      <point x="90" y="640"/>
      <point x="90" y="512" type="curve" smooth="yes"/>
      <point x="90" y="212" type="line" smooth="yes"/>
      <point x="90" y="42"/>
      <point x="208" y="-12"/>
    </contour>
    <contour>
      <point x="294" y="16" type="curve" smooth="yes"/>
      <point x="237" y="16"/>
      <point x="120" y="50"/>
      <point x="120" y="224" type="curve" smooth="yes"/>
      <point x="120" y="320"/>
      <point x="120" y="366"/>
      <point x="120" y="498" type="curve" smooth="yes"/>
      <point x="120" y="638"/>
      <point x="178" y="702"/>
      <point x="266" y="702" type="curve" smooth="yes"/>
      <point x="332" y="702"/>
      <point x="386" y="660"/>
      <point x="386" y="568" type="curve" smooth="yes"/>
      <point x="386" y="464"/>
      <point x="302" y="386"/>
      <point x="106" y="357" type="curve"/>
      <point x="114" y="329" type="line"/>
      <point x="211" y="354"/>
      <point x="262" y="358"/>
      <point x="280" y="358" type="curve" smooth="yes"/>
      <point x="400" y="358"/>
      <point x="452" y="276"/>
      <point x="452" y="182" type="curve" smooth="yes"/>
      <point x="452" y="84"/>
      <point x="388" y="16"/>
    </contour>
  </outline>
</glyph>
<glyph name="brackhalftopleft" format="1">
  <advance width="270"/>
  <outline>
    <contour>
      <point x="100" y="278" type="line"/>
      <point x="124" y="278" type="line"/>
      <point x="124" y="686" type="line"/>
      <point x="252" y="686" type="line"/>
      <point x="252" y="708" type="line"/>
      <point x="100" y="708" type="line"/>
    </contour>
  </outline>
</glyph>
<glyph name="breveacute" format="1">
  <advance width="0"/>
  <outline>
    <contour>
      <point x="0" y="502" type="move" name="_aboveLC"/>
    </contour>
    <contour>
      <point x="-16" y="664" type="line"/>
      <point x="72" y="770" type="line"/>
      <point x="48" y="790" type="line"/>
      <point x="-34" y="680" type="line"/>
    </contour>
    <contour>
      <point x="0" y="570" type="curve" smooth="yes"/>
      <point x="101" y="570"/>
      <point x="138" y="654"/>
      <point x="146" y="716" type="curve"/>
      <point x="120" y="720" type="line"/>
      <point x="112" y="662"/>
      <point x="75" y="596"/>
      <point x="0" y="596" type="curve" smooth="yes"/>
      <point x="-75" y="596"/>
      <point x="-112" y="662"/>
      <point x="-120" y="720" type="curve"/>
      <point x="-146" y="716" type="line"/>
      <point x="-138" y="654"/>
      <point x="-101" y="570"/>
    </contour>
  </outline>
</glyph>
<glyph name="brevebelowcmb" format="1">
  <advance width="0"/>
  <outline>
    <contour>
      <point x="0" y="-22" type="move" name="_belowLC"/>
    </contour>
    <contour>
      <point x="0" y="-202" type="curve" smooth="yes"/>
      <point x="80" y="-202"/>
      <point x="110" y="-134"/>
      <point x="116" y="-86" type="curve"/>
      <point x="90" y="-86" type="line"/>
      <point x="84" y="-130"/>
      <point x="56" y="-176"/>
      <point x="0" y="-176" type="curve" smooth="yes"/>
      <point x="-56" y="-176"/>
      <point x="-84" y="-130"/>
      <point x="-90" y="-86" type="curve"/>
      <point x="-116" y="-86" type="line"/>
      <point x="-110" y="-134"/>
      <point x="-80" y="-202"/>
    </contour>
  </outline>
</glyph>
<glyph name="brevecmb.cyrcap" format="1">
	<outline>
		<contour>
			<point x="0" y="712" type="curve" smooth="yes"/>
			<point x="98" y="712"/>
			<point x="125" y="781"/>
			<point x="130" y="838" type="curve"/>
			<point x="100" y="838" type="line"/>
			<point x="98" y="786"/>
			<point x="72" y="736"/>
			<point x="0" y="736" type="curve" smooth="yes"/>
			<point x="-72" y="736"/>
			<point x="-98" y="786"/>
			<point x="-100" y="838" type="curve"/>
			<point x="-130" y="838" type="line"/>
			<point x="-125" y="781"/>
			<point x="-98" y="712"/>
		</contour>
		<contour>
			<point name="_aboveUC" x="0" y="682" type="move"/>
		</contour>
	</outline>
</glyph>
<glyph name="brevecmb" format="1">
  <advance width="0"/>
  <outline>
    <contour>
      <point x="0" y="502" type="move" name="_aboveLC"/>
    </contour>
    <contour>
      <point x="0" y="570" type="curve" smooth="yes"/>
      <point x="101" y="570"/>
      <point x="138" y="654"/>
      <point x="146" y="716" type="curve"/>
      <point x="120" y="720" type="line"/>
      <point x="112" y="662"/>
      <point x="75" y="596"/>
      <point x="0" y="596" type="curve" smooth="yes"/>
      <point x="-75" y="596"/>
      <point x="-112" y="662"/>
      <point x="-120" y="720" type="curve"/>
      <point x="-146" y="716" type="line"/>
      <point x="-138" y="654"/>
      <point x="-101" y="570"/>
    </contour>
  </outline>
</glyph>
<glyph name="brevecmb.cyrcap" format="1">
  <advance width="0"/>
  <outline>
    <contour>
      <point x="0" y="682" type="move" name="_aboveUC"/>
    </contour>
    <contour>
      <point x="0" y="712" type="curve" smooth="yes"/>
      <point x="98" y="712"/>
      <point x="125" y="781"/>
      <point x="130" y="838" type="curve"/>
      <point x="100" y="838" type="line"/>
      <point x="98" y="786"/>
      <point x="72" y="736"/>
      <point x="0" y="736" type="curve" smooth="yes"/>
      <point x="-72" y="736"/>
      <point x="-98" y="786"/>
      <point x="-100" y="838" type="curve"/>
      <point x="-130" y="838" type="line"/>
      <point x="-125" y="781"/>
      <point x="-98" y="712"/>
    </contour>
  </outline>
</glyph>
<glyph name="brevegrave.cap" format="1">
  <outline>
    <contour>
      <point x="24" y="816" type="line"/>
      <point x="-70" y="916" type="line"/>
      <point x="-92" y="896" type="line"/>
      <point x="8" y="802" type="line"/>
    </contour>
    <contour>
      <point x="0" y="712" type="curve" smooth="yes"/>
      <point x="87" y="712"/>
      <point x="125" y="779"/>
      <point x="132" y="834" type="curve"/>
      <point x="106" y="838" type="line"/>
      <point x="99" y="786"/>
      <point x="67" y="738"/>
      <point x="0" y="738" type="curve" smooth="yes"/>
      <point x="-67" y="738"/>
      <point x="-99" y="786"/>
      <point x="-106" y="838" type="curve"/>
      <point x="-132" y="834" type="line"/>
      <point x="-125" y="779"/>
      <point x="-87" y="712"/>
    </contour>
    <contour>
      <point x="0" y="682" type="move" name="_aboveUC"/>
    </contour>
  </outline>
</glyph>
<glyph name="brevehoi.cap" format="1">
  <outline>
    <contour>
      <point x="-15" y="796" type="line"/>
      <point x="19" y="806"/>
      <point x="59" y="824"/>
      <point x="59" y="868" type="curve" smooth="yes"/>
      <point x="59" y="916"/>
      <point x="11" y="932"/>
      <point x="-41" y="934" type="curve"/>
      <point x="-45" y="908" type="line"/>
      <point x="3" y="906"/>
      <point x="29" y="896"/>
      <point x="29" y="864" type="curve" smooth="yes"/>
      <point x="29" y="840"/>
      <point x="5" y="828"/>
      <point x="-25" y="820" type="curve"/>
    </contour>
    <contour>
      <point x="0" y="712" type="curve" smooth="yes"/>
      <point x="87" y="712"/>
      <point x="125" y="779"/>
      <point x="132" y="834" type="curve"/>
      <point x="106" y="838" type="line"/>
      <point x="99" y="786"/>
      <point x="67" y="738"/>
      <point x="0" y="738" type="curve" smooth="yes"/>
      <point x="-67" y="738"/>
      <point x="-99" y="786"/>
      <point x="-106" y="838" type="curve"/>
      <point x="-132" y="834" type="line"/>
      <point x="-125" y="779"/>
      <point x="-87" y="712"/>
    </contour>
    <contour>
      <point x="0" y="682" type="move" name="_aboveUC"/>
    </contour>
  </outline>
</glyph>
<glyph name="brevehoi" format="1">
  <advance width="0"/>
  <outline>
    <contour>
      <point x="0" y="502" type="move" name="_aboveLC"/>
    </contour>
    <contour>
      <point x="0" y="576" type="curve" smooth="yes"/>
      <point x="80" y="576"/>
      <point x="110" y="644"/>
      <point x="116" y="692" type="curve"/>
      <point x="90" y="692" type="line"/>
      <point x="84" y="648"/>
      <point x="56" y="602"/>
      <point x="0" y="602" type="curve" smooth="yes"/>
      <point x="-56" y="602"/>
      <point x="-84" y="648"/>
      <point x="-90" y="692" type="curve"/>
      <point x="-116" y="692" type="line"/>
      <point x="-110" y="644"/>
      <point x="-80" y="576"/>
    </contour>
    <contour>
      <point x="-20" y="672" type="line"/>
      <point x="14" y="684"/>
      <point x="54" y="702"/>
      <point x="54" y="746" type="curve" smooth="yes"/>
      <point x="54" y="794"/>
      <point x="6" y="812"/>
      <point x="-46" y="814" type="curve"/>
      <point x="-48" y="790" type="line"/>
      <point x="0" y="788"/>
      <point x="24" y="774"/>
      <point x="24" y="742" type="curve" smooth="yes"/>
      <point x="24" y="718"/>
      <point x="2" y="704"/>
      <point x="-28" y="694" type="curve"/>
    </contour>
  </outline>
</glyph>
<glyph name="breveinvertedcmb.cap" format="1">
  <outline>
    <contour>
      <point x="-106" y="712" type="line"/>
      <point x="-99" y="764"/>
      <point x="-67" y="812"/>
      <point x="0" y="812" type="curve" smooth="yes"/>
      <point x="67" y="812"/>
      <point x="99" y="764"/>
      <point x="106" y="712" type="curve"/>
      <point x="132" y="716" type="line"/>
      <point x="125" y="771"/>
      <point x="87" y="838"/>
      <point x="0" y="838" type="curve" smooth="yes"/>
      <point x="-87" y="838"/>
      <point x="-125" y="771"/>
      <point x="-132" y="716" type="curve"/>
    </contour>
    <contour>
      <point x="0" y="682" type="move" name="_aboveUC"/>
    </contour>
  </outline>
</glyph>
<glyph name="breveinvertedcmb" format="1">
  <outline>
    <contour>
      <point x="-120" y="570" type="line"/>
      <point x="-112" y="628"/>
      <point x="-75" y="694"/>
      <point x="0" y="694" type="curve" smooth="yes"/>
      <point x="75" y="694"/>
      <point x="112" y="628"/>
      <point x="120" y="570" type="curve"/>
      <point x="146" y="574" type="line"/>
      <point x="138" y="636"/>
      <point x="101" y="720"/>
      <point x="0" y="720" type="curve" smooth="yes"/>
      <point x="-101" y="720"/>
      <point x="-138" y="636"/>
      <point x="-146" y="574" type="curve"/>
    </contour>
    <contour>
      <point x="0" y="502" type="move" name="_aboveLC"/>
    </contour>
  </outline>
</glyph>
<glyph name="brevetilde.cap" format="1">
  <outline>
    <contour>
      <point x="0" y="712" type="curve" smooth="yes"/>
      <point x="87" y="712"/>
      <point x="126" y="768"/>
      <point x="132" y="814" type="curve"/>
      <point x="106" y="818" type="line"/>
      <point x="100" y="776"/>
      <point x="67" y="738"/>
      <point x="0" y="738" type="curve" smooth="yes"/>
      <point x="-67" y="738"/>
      <point x="-100" y="776"/>
      <point x="-106" y="818" type="curve"/>
      <point x="-132" y="814" type="line"/>
      <point x="-126" y="768"/>
      <point x="-87" y="712"/>
    </contour>
    <contour>
      <point x="-138" y="844" type="curve"/>
      <point x="-114" y="842" type="line"/>
      <point x="-110" y="873"/>
      <point x="-100" y="894"/>
      <point x="-72" y="894" type="curve" smooth="yes"/>
      <point x="-20" y="894"/>
      <point x="0" y="840"/>
      <point x="70" y="840" type="curve" smooth="yes"/>
      <point x="124" y="840"/>
      <point x="136" y="884"/>
      <point x="138" y="916" type="curve"/>
      <point x="114" y="918" type="line"/>
      <point x="110" y="887"/>
      <point x="100" y="866"/>
      <point x="72" y="866" type="curve" smooth="yes"/>
      <point x="20" y="866"/>
      <point x="0" y="920"/>
      <point x="-70" y="920" type="curve" smooth="yes"/>
      <point x="-124" y="920"/>
      <point x="-136" y="876"/>
    </contour>
    <contour>
      <point x="0" y="682" type="move" name="_aboveUC"/>
    </contour>
  </outline>
</glyph>
<glyph name="brevetilde" format="1">
  <outline>
    <contour>
      <point x="0" y="570" type="curve" smooth="yes"/>
      <point x="94" y="570"/>
      <point x="130" y="628"/>
      <point x="136" y="672" type="curve"/>
      <point x="110" y="676" type="line"/>
      <point x="105" y="638"/>
      <point x="69" y="596"/>
      <point x="0" y="596" type="curve" smooth="yes"/>
      <point x="-69" y="596"/>
      <point x="-105" y="638"/>
      <point x="-110" y="676" type="curve"/>
      <point x="-136" y="672" type="line"/>
      <point x="-130" y="628"/>
      <point x="-94" y="570"/>
    </contour>
    <contour>
      <point x="-128" y="704" type="curve"/>
      <point x="-104" y="702" type="line"/>
      <point x="-100" y="732"/>
      <point x="-93" y="748"/>
      <point x="-70" y="748" type="curve" smooth="yes"/>
      <point x="-25" y="748"/>
      <point x="10" y="706"/>
      <point x="70" y="706" type="curve" smooth="yes"/>
      <point x="114" y="706"/>
      <point x="126" y="745"/>
      <point x="128" y="776" type="curve"/>
      <point x="104" y="778" type="line"/>
      <point x="100" y="748"/>
      <point x="93" y="732"/>
      <point x="70" y="732" type="curve" smooth="yes"/>
      <point x="24" y="732"/>
      <point x="-9" y="774"/>
      <point x="-70" y="774" type="curve" smooth="yes"/>
      <point x="-114" y="774"/>
      <point x="-126" y="735"/>
    </contour>
    <contour>
      <point x="0" y="502" type="move" name="_aboveLC"/>
    </contour>
  </outline>
</glyph>
<glyph name="bridgebelowcmb" format="1">
  <outline>
    <contour>
      <point x="90" y="-230" type="line"/>
      <point x="116" y="-230" type="line"/>
      <point x="116" y="-86" type="line"/>
      <point x="-116" y="-86" type="line"/>
      <point x="-116" y="-230" type="line"/>
      <point x="-90" y="-230" type="line"/>
      <point x="-90" y="-114" type="line"/>
      <point x="90" y="-114" type="line"/>
    </contour>
    <contour>
      <point x="0" y="-22" type="move" name="_belowLC"/>
    </contour>
  </outline>
</glyph>
<glyph name="bridgeinvertedbelowcmb" format="1">
  <advance width="0"/>
  <outline>
    <contour>
      <point x="0" y="-22" type="move" name="_belowLC"/>
    </contour>
    <contour>
      <point x="-106" y="-190" type="line"/>
      <point x="106" y="-190" type="line"/>
      <point x="106" y="-162" type="line"/>
      <point x="-106" y="-162" type="line"/>
    </contour>
    <contour>
      <point x="80" y="-190" type="line"/>
      <point x="106" y="-190" type="line"/>
      <point x="106" y="-86" type="line"/>
      <point x="80" y="-86" type="line"/>
    </contour>
    <contour>
      <point x="-106" y="-190" type="line"/>
      <point x="-80" y="-190" type="line"/>
      <point x="-80" y="-86" type="line"/>
      <point x="-106" y="-86" type="line"/>
    </contour>
  </outline>
</glyph>
<glyph name="c.sups" format="1">
  <advance width="300"/>
  <outline>
    <contour>
      <point x="182" y="262" type="curve" smooth="yes"/>
      <point x="230" y="262"/>
      <point x="258" y="280"/>
      <point x="282" y="300" type="curve"/>
      <point x="268" y="320" type="line"/>
      <point x="246" y="302"/>
      <point x="220" y="288"/>
      <point x="182" y="288" type="curve" smooth="yes"/>
      <point x="112" y="288"/>
      <point x="64" y="346"/>
      <point x="64" y="428" type="curve" smooth="yes"/>
      <point x="64" y="510"/>
      <point x="114" y="568"/>
      <point x="180" y="568" type="curve" smooth="yes"/>
      <point x="218" y="568"/>
      <point x="236" y="558"/>
      <point x="260" y="538" type="curve"/>
      <point x="276" y="558" type="line"/>
      <point x="254" y="576"/>
      <point x="226" y="594"/>
      <point x="182" y="594" type="curve" smooth="yes"/>
      <point x="104" y="594"/>
      <point x="34" y="534"/>
      <point x="34" y="428" type="curve" smooth="yes"/>
      <point x="34" y="322"/>
      <point x="96" y="262"/>
    </contour>
  </outline>
</glyph>
<glyph name="caroncmb.cap" format="1">
  <advance width="0"/>
  <outline>
    <contour>
      <point x="0" y="682" type="move" name="_aboveUC"/>
    </contour>
    <contour>
      <point x="-14" y="710" type="line"/>
      <point x="14" y="710" type="line"/>
      <point x="110" y="818" type="line"/>
      <point x="80" y="818" type="line"/>
      <point x="2" y="740" type="line"/>
      <point x="-2" y="740" type="line"/>
      <point x="-80" y="818" type="line"/>
      <point x="-110" y="818" type="line"/>
    </contour>
  </outline>
</glyph>
<glyph name="caroncmb" format="1">
  <advance width="0"/>
  <outline>
    <contour>
      <point x="0" y="502" type="move" name="_aboveLC"/>
    </contour>
    <contour>
      <point x="-14" y="572" type="line"/>
      <point x="14" y="572" type="line"/>
      <point x="118" y="726" type="line"/>
      <point x="90" y="726" type="line"/>
      <point x="2" y="604" type="line"/>
      <point x="-2" y="604" type="line"/>
      <point x="-90" y="726" type="line"/>
      <point x="-118" y="726" type="line"/>
    </contour>
  </outline>
</glyph>
<glyph name="ccurl" format="1">
  <advance width="446"/>
  <outline>
    <contour>
      <point x="112" y="-66" type="line"/>
      <point x="150" y="48"/>
      <point x="242" y="134"/>
      <point x="318" y="134" type="curve" smooth="yes"/>
      <point x="362" y="134"/>
      <point x="382" y="106"/>
      <point x="382" y="80" type="curve" smooth="yes"/>
      <point x="382" y="42"/>
      <point x="336" y="16"/>
      <point x="276" y="16" type="curve"/>
      <point x="170" y="16"/>
      <point x="86" y="106"/>
      <point x="86" y="238" type="curve" smooth="yes"/>
      <point x="86" y="370"/>
      <point x="166" y="462"/>
      <point x="268" y="462" type="curve" smooth="yes"/>
      <point x="318" y="462"/>
      <point x="356" y="438"/>
      <point x="388" y="408" type="curve"/>
      <point x="408" y="430" type="line"/>
      <point x="376" y="460"/>
      <point x="334" y="490"/>
      <point x="268" y="490" type="curve" smooth="yes"/>
      <point x="154" y="490"/>
      <point x="54" y="398"/>
      <point x="54" y="238" type="curve" smooth="yes"/>
      <point x="54" y="80"/>
      <point x="158" y="-12"/>
      <point x="276" y="-12" type="curve" smooth="yes"/>
      <point x="361" y="-12"/>
      <point x="414" y="30"/>
      <point x="414" y="82" type="curve" smooth="yes"/>
      <point x="414" y="126"/>
      <point x="380" y="162"/>
      <point x="318" y="162" type="curve" smooth="yes"/>
      <point x="224" y="162"/>
      <point x="136" y="74"/>
      <point x="84" y="-56" type="curve"/>
    </contour>
    <contour>
      <point x="268" y="502" type="move" name="aboveLC"/>
    </contour>
  </outline>
</glyph>
<glyph name="cedillacmb.cap" format="1">
  <advance width="0"/>
  <outline>
    <contour>
      <point x="0" y="0" type="move" name="_baseLC"/>
    </contour>
    <contour>
      <point x="-74" y="-206" type="line"/>
      <point x="16" y="-200"/>
      <point x="64" y="-174"/>
      <point x="64" y="-124" type="curve" smooth="yes"/>
      <point x="64" y="-84"/>
      <point x="36" y="-66"/>
      <point x="-6" y="-56" type="curve"/>
      <point x="24" y="2" type="line"/>
      <point x="-4" y="2" type="line"/>
      <point x="-44" y="-74" type="line"/>
      <point x="10" y="-82"/>
      <point x="34" y="-96"/>
      <point x="34" y="-126" type="curve" smooth="yes"/>
      <point x="34" y="-156"/>
      <point x="8" y="-174"/>
      <point x="-80" y="-180" type="curve"/>
    </contour>
  </outline>
</glyph>
<glyph name="circumflexacute.cap" format="1">
  <outline>
    <contour>
      <point x="-96" y="710" type="line"/>
      <point x="-2" y="778" type="line"/>
      <point x="2" y="778" type="line"/>
      <point x="96" y="710" type="line"/>
      <point x="110" y="726" type="line"/>
      <point x="14" y="808" type="line"/>
      <point x="-14" y="808" type="line"/>
      <point x="-110" y="726" type="line"/>
    </contour>
    <contour>
      <point x="96" y="766" type="line"/>
      <point x="196" y="860" type="line"/>
      <point x="172" y="882" type="line"/>
      <point x="78" y="784" type="line"/>
    </contour>
    <contour>
      <point x="0" y="682" type="move" name="_aboveUC"/>
    </contour>
  </outline>
</glyph>
<glyph name="circumflexacute" format="1">
  <outline>
    <contour>
      <point x="-106" y="574" type="line"/>
      <point x="-2" y="652" type="line"/>
      <point x="2" y="652" type="line"/>
      <point x="106" y="574" type="line"/>
      <point x="120" y="592" type="line"/>
      <point x="14" y="684" type="line"/>
      <point x="-14" y="684" type="line"/>
      <point x="-120" y="592" type="line"/>
    </contour>
    <contour>
      <point x="82" y="652" type="line"/>
      <point x="100" y="636" type="line"/>
      <point x="200" y="746" type="line"/>
      <point x="176" y="766" type="line"/>
    </contour>
    <contour>
      <point x="0" y="502" type="move" name="_aboveLC"/>
    </contour>
  </outline>
</glyph>
<glyph name="circumflexacute.cap" format="1">
  <advance width="0"/>
  <outline>
    <contour>
      <point x="0" y="682" type="move" name="_aboveUC"/>
    </contour>
    <contour>
      <point x="-96" y="710" type="line"/>
      <point x="-2" y="778" type="line"/>
      <point x="2" y="778" type="line"/>
      <point x="96" y="710" type="line"/>
      <point x="110" y="726" type="line"/>
      <point x="14" y="808" type="line"/>
      <point x="-14" y="808" type="line"/>
      <point x="-110" y="726" type="line"/>
    </contour>
    <contour>
      <point x="96" y="766" type="line"/>
      <point x="196" y="860" type="line"/>
      <point x="172" y="882" type="line"/>
      <point x="78" y="784" type="line"/>
    </contour>
  </outline>
</glyph>
<glyph name="circumflexbreve.cap" format="1">
  <outline>
    <contour>
      <point x="-96" y="710" type="line"/>
      <point x="-2" y="778" type="line"/>
      <point x="2" y="778" type="line"/>
      <point x="96" y="710" type="line"/>
      <point x="110" y="726" type="line"/>
      <point x="14" y="808" type="line"/>
      <point x="-14" y="808" type="line"/>
      <point x="-110" y="726" type="line"/>
    </contour>
    <contour>
      <point x="0" y="834" type="curve" smooth="yes"/>
      <point x="80" y="834"/>
      <point x="117" y="879"/>
      <point x="122" y="916" type="curve"/>
      <point x="96" y="920" type="line"/>
      <point x="91" y="888"/>
      <point x="61" y="860"/>
      <point x="0" y="860" type="curve" smooth="yes"/>
      <point x="-61" y="860"/>
      <point x="-91" y="888"/>
      <point x="-96" y="920" type="curve"/>
      <point x="-122" y="916" type="line"/>
      <point x="-117" y="879"/>
      <point x="-80" y="834"/>
    </contour>
    <contour>
      <point x="0" y="682" type="move" name="_aboveUC"/>
    </contour>
  </outline>
</glyph>
<glyph name="circumflexbreve" format="1">
  <outline>
    <contour>
      <point x="-106" y="574" type="line"/>
      <point x="-2" y="638" type="line"/>
      <point x="2" y="638" type="line"/>
      <point x="106" y="574" type="line"/>
      <point x="120" y="592" type="line"/>
      <point x="14" y="670" type="line"/>
      <point x="-14" y="670" type="line"/>
      <point x="-120" y="592" type="line"/>
    </contour>
    <contour>
      <point x="0" y="694" type="curve" smooth="yes"/>
      <point x="80" y="694"/>
      <point x="117" y="739"/>
      <point x="122" y="776" type="curve"/>
      <point x="96" y="780" type="line"/>
      <point x="91" y="748"/>
      <point x="61" y="720"/>
      <point x="0" y="720" type="curve" smooth="yes"/>
      <point x="-61" y="720"/>
      <point x="-91" y="748"/>
      <point x="-96" y="780" type="curve"/>
      <point x="-122" y="776" type="line"/>
      <point x="-117" y="739"/>
      <point x="-80" y="694"/>
    </contour>
    <contour>
      <point x="0" y="502" type="move" name="_aboveLC"/>
    </contour>
  </outline>
</glyph>
<glyph name="circumflexcmb.cap" format="1">
	<outline>
		<contour>
			<point x="-130" y="726" type="line"/>
			<point x="-116" y="710" type="line"/>
			<point x="-2" y="810" type="line"/>
			<point x="2" y="810" type="line"/>
			<point x="116" y="710" type="line"/>
			<point x="130" y="726" type="line"/>
			<point x="14" y="840" type="line"/>
			<point x="-14" y="840" type="line"/>
		</contour>
		<contour>
			<point name="_aboveUC" x="0" y="682" type="move"/>
		</contour>
	</outline>
</glyph>
<glyph name="circumflexcmb" format="1">
  <advance width="0"/>
  <outline>
    <contour>
      <point x="0" y="502" type="move" name="_aboveLC"/>
    </contour>
    <contour>
      <point x="0" y="728" type="move" name="aboveLC"/>
    </contour>
    <contour>
      <point x="-118" y="572" type="line"/>
      <point x="-90" y="572" type="line"/>
      <point x="-2" y="694" type="line"/>
      <point x="2" y="694" type="line"/>
      <point x="90" y="572" type="line"/>
      <point x="118" y="572" type="line"/>
      <point x="14" y="726" type="line"/>
      <point x="-14" y="726" type="line"/>
    </contour>
  </outline>
</glyph>
<glyph name="circumflexgrave.cap" format="1">
  <outline>
    <contour>
      <point x="-96" y="710" type="line"/>
      <point x="-2" y="778" type="line"/>
      <point x="2" y="778" type="line"/>
      <point x="96" y="710" type="line"/>
      <point x="110" y="726" type="line"/>
      <point x="14" y="808" type="line"/>
      <point x="-14" y="808" type="line"/>
      <point x="-110" y="726" type="line"/>
    </contour>
    <contour>
      <point x="-78" y="780" type="line"/>
      <point x="-152" y="882" type="line"/>
      <point x="-176" y="864" type="line"/>
      <point x="-96" y="766" type="line"/>
    </contour>
    <contour>
      <point x="0" y="682" type="move" name="_aboveUC"/>
    </contour>
  </outline>
</glyph>
<glyph name="circumflexgrave.cap" format="1">
  <advance width="0"/>
  <outline>
    <contour>
      <point x="0" y="682" type="move" name="_aboveUC"/>
    </contour>
    <contour>
      <point x="-96" y="710" type="line"/>
      <point x="-2" y="778" type="line"/>
      <point x="2" y="778" type="line"/>
      <point x="96" y="710" type="line"/>
      <point x="110" y="726" type="line"/>
      <point x="14" y="808" type="line"/>
      <point x="-14" y="808" type="line"/>
      <point x="-110" y="726" type="line"/>
    </contour>
    <contour>
      <point x="-78" y="780" type="line"/>
      <point x="-152" y="882" type="line"/>
      <point x="-176" y="864" type="line"/>
      <point x="-96" y="766" type="line"/>
    </contour>
  </outline>
</glyph>
<glyph name="circumflexhoi.cap" format="1">
  <outline>
    <contour>
      <point x="-96" y="710" type="line"/>
      <point x="-2" y="778" type="line"/>
      <point x="2" y="778" type="line"/>
      <point x="96" y="710" type="line"/>
      <point x="110" y="726" type="line"/>
      <point x="14" y="808" type="line"/>
      <point x="-14" y="808" type="line"/>
      <point x="-110" y="726" type="line"/>
    </contour>
    <contour>
      <point x="97" y="758" type="line"/>
      <point x="131" y="768"/>
      <point x="171" y="786"/>
      <point x="171" y="830" type="curve" smooth="yes"/>
      <point x="171" y="878"/>
      <point x="123" y="894"/>
      <point x="71" y="896" type="curve"/>
      <point x="67" y="870" type="line"/>
      <point x="115" y="868"/>
      <point x="141" y="858"/>
      <point x="141" y="826" type="curve" smooth="yes"/>
      <point x="141" y="802"/>
      <point x="117" y="790"/>
      <point x="87" y="782" type="curve"/>
    </contour>
    <contour>
      <point x="0" y="682" type="move" name="_aboveUC"/>
    </contour>
  </outline>
</glyph>
<glyph name="circumflexhoi" format="1">
  <outline>
    <contour>
      <point x="-106" y="574" type="line"/>
      <point x="-2" y="652" type="line"/>
      <point x="2" y="652" type="line"/>
      <point x="106" y="574" type="line"/>
      <point x="120" y="592" type="line"/>
      <point x="14" y="684" type="line"/>
      <point x="-14" y="684" type="line"/>
      <point x="-120" y="592" type="line"/>
    </contour>
    <contour>
      <point x="98" y="628" type="line"/>
      <point x="132" y="640"/>
      <point x="172" y="658"/>
      <point x="172" y="702" type="curve" smooth="yes"/>
      <point x="172" y="750"/>
      <point x="124" y="768"/>
      <point x="72" y="770" type="curve"/>
      <point x="70" y="746" type="line"/>
      <point x="118" y="744"/>
      <point x="142" y="730"/>
      <point x="142" y="698" type="curve" smooth="yes"/>
      <point x="142" y="674"/>
      <point x="120" y="660"/>
      <point x="90" y="650" type="curve"/>
    </contour>
    <contour>
      <point x="0" y="502" type="move" name="_aboveLC"/>
    </contour>
  </outline>
</glyph>
<glyph name="circumflextilde.cap" format="1">
  <outline>
    <contour>
      <point x="-96" y="710" type="line"/>
      <point x="-2" y="778" type="line"/>
      <point x="2" y="778" type="line"/>
      <point x="96" y="710" type="line"/>
      <point x="110" y="726" type="line"/>
      <point x="14" y="808" type="line"/>
      <point x="-14" y="808" type="line"/>
      <point x="-110" y="726" type="line"/>
    </contour>
    <contour>
      <point x="-138" y="844" type="curve"/>
      <point x="-114" y="842" type="line"/>
      <point x="-110" y="873"/>
      <point x="-100" y="894"/>
      <point x="-72" y="894" type="curve" smooth="yes"/>
      <point x="-20" y="894"/>
      <point x="0" y="840"/>
      <point x="70" y="840" type="curve" smooth="yes"/>
      <point x="124" y="840"/>
      <point x="136" y="884"/>
      <point x="138" y="916" type="curve"/>
      <point x="114" y="918" type="line"/>
      <point x="110" y="887"/>
      <point x="100" y="866"/>
      <point x="72" y="866" type="curve" smooth="yes"/>
      <point x="20" y="866"/>
      <point x="0" y="920"/>
      <point x="-70" y="920" type="curve" smooth="yes"/>
      <point x="-124" y="920"/>
      <point x="-136" y="876"/>
    </contour>
    <contour>
      <point x="0" y="682" type="move" name="_aboveUC"/>
    </contour>
  </outline>
</glyph>
<glyph name="circumflextilde" format="1">
  <outline>
    <contour>
      <point x="-106" y="574" type="line"/>
      <point x="-2" y="652" type="line"/>
      <point x="2" y="652" type="line"/>
      <point x="106" y="574" type="line"/>
      <point x="120" y="592" type="line"/>
      <point x="14" y="684" type="line"/>
      <point x="-14" y="684" type="line"/>
      <point x="-120" y="592" type="line"/>
    </contour>
    <contour>
      <point x="-128" y="704" type="curve"/>
      <point x="-104" y="702" type="line"/>
      <point x="-100" y="732"/>
      <point x="-93" y="748"/>
      <point x="-70" y="748" type="curve" smooth="yes"/>
      <point x="-25" y="748"/>
      <point x="10" y="706"/>
      <point x="70" y="706" type="curve" smooth="yes"/>
      <point x="114" y="706"/>
      <point x="126" y="745"/>
      <point x="128" y="776" type="curve"/>
      <point x="104" y="778" type="line"/>
      <point x="100" y="748"/>
      <point x="93" y="732"/>
      <point x="70" y="732" type="curve" smooth="yes"/>
      <point x="24" y="732"/>
      <point x="-9" y="774"/>
      <point x="-70" y="774" type="curve" smooth="yes"/>
      <point x="-114" y="774"/>
      <point x="-126" y="735"/>
    </contour>
    <contour>
      <point x="0" y="502" type="move" name="_aboveLC"/>
    </contour>
  </outline>
</glyph>
<glyph name="circumflextilde.cap" format="1">
  <advance width="0"/>
  <outline>
    <contour>
      <point x="0" y="682" type="move" name="_aboveUC"/>
    </contour>
    <contour>
      <point x="-96" y="710" type="line"/>
      <point x="-2" y="778" type="line"/>
      <point x="2" y="778" type="line"/>
      <point x="96" y="710" type="line"/>
      <point x="110" y="726" type="line"/>
      <point x="14" y="808" type="line"/>
      <point x="-14" y="808" type="line"/>
      <point x="-110" y="726" type="line"/>
    </contour>
    <contour>
      <point x="-138" y="844" type="curve"/>
      <point x="-114" y="842" type="line"/>
      <point x="-110" y="873"/>
      <point x="-100" y="894"/>
      <point x="-72" y="894" type="curve" smooth="yes"/>
      <point x="-20" y="894"/>
      <point x="0" y="840"/>
      <point x="70" y="840" type="curve" smooth="yes"/>
      <point x="124" y="840"/>
      <point x="136" y="884"/>
      <point x="138" y="916" type="curve"/>
      <point x="114" y="918" type="line"/>
      <point x="110" y="887"/>
      <point x="100" y="866"/>
      <point x="72" y="866" type="curve" smooth="yes"/>
      <point x="20" y="866"/>
      <point x="0" y="920"/>
      <point x="-70" y="920" type="curve" smooth="yes"/>
      <point x="-124" y="920"/>
      <point x="-136" y="876"/>
    </contour>
  </outline>
</glyph>
<glyph name="commabelowcmb.alt" format="1">
  <advance width="0"/>
  <outline>
    <contour>
      <point x="0" y="502" type="move" name="_aboveLC"/>
    </contour>
    <contour>
      <point x="34" y="538" type="curve"/>
      <point x="44" y="564" type="line"/>
      <point x="-4" y="568"/>
      <point x="-34" y="580"/>
      <point x="-34" y="612" type="curve" smooth="yes"/>
      <point x="-34" y="642"/>
      <point x="-8" y="660"/>
      <point x="80" y="666" type="curve"/>
      <point x="74" y="692" type="line"/>
      <point x="-16" y="686"/>
      <point x="-64" y="660"/>
      <point x="-64" y="610" type="curve" smooth="yes"/>
      <point x="-64" y="568"/>
      <point x="-38" y="550"/>
    </contour>
  </outline>
</glyph>
<glyph name="commabelowcmb" format="1">
  <outline>
    <contour>
      <point x="-74" y="-216" type="line"/>
      <point x="16" y="-210"/>
      <point x="64" y="-184"/>
      <point x="64" y="-134" type="curve" smooth="yes"/>
      <point x="64" y="-92"/>
      <point x="38" y="-74"/>
      <point x="-34" y="-62" type="curve"/>
      <point x="-44" y="-88" type="line"/>
      <point x="4" y="-92"/>
      <point x="34" y="-104"/>
      <point x="34" y="-136" type="curve" smooth="yes"/>
      <point x="34" y="-166"/>
      <point x="8" y="-184"/>
      <point x="-80" y="-190" type="curve"/>
    </contour>
    <contour>
      <point x="0" y="-22" type="move" name="_belowLC"/>
    </contour>
  </outline>
</glyph>
<glyph name="d.sups" format="1">
  <advance width="364"/>
  <outline>
    <contour>
      <point x="176" y="262" type="curve" smooth="yes"/>
      <point x="216" y="262"/>
      <point x="244" y="284"/>
      <point x="272" y="308" type="curve"/>
      <point x="276" y="308" type="line"/>
      <point x="282" y="270" type="line"/>
      <point x="304" y="270" type="line"/>
      <point x="304" y="744" type="line"/>
      <point x="276" y="744" type="line"/>
      <point x="276" y="614" type="line"/>
      <point x="278" y="556" type="line"/>
      <point x="246" y="580"/>
      <point x="216" y="594"/>
      <point x="180" y="594" type="curve" smooth="yes"/>
      <point x="104" y="594"/>
      <point x="38" y="532"/>
      <point x="38" y="434" type="curve" smooth="yes"/>
      <point x="38" y="324"/>
      <point x="90" y="262"/>
    </contour>
    <contour>
      <point x="178" y="288" type="curve" smooth="yes"/>
      <point x="102" y="288"/>
      <point x="68" y="346"/>
      <point x="68" y="434" type="curve" smooth="yes"/>
      <point x="68" y="510"/>
      <point x="118" y="568"/>
      <point x="178" y="568" type="curve" smooth="yes"/>
      <point x="208" y="568"/>
      <point x="242" y="556"/>
      <point x="276" y="526" type="curve"/>
      <point x="276" y="340" type="line"/>
      <point x="240" y="308"/>
      <point x="210" y="288"/>
    </contour>
  </outline>
</glyph>
<glyph name="dblgravecmb.cap" format="1">
  <outline>
    <contour>
      <point x="-82" y="710" type="line"/>
      <point x="-62" y="720" type="line"/>
      <point x="-148" y="866" type="line"/>
      <point x="-174" y="850" type="line"/>
    </contour>
    <contour>
      <point x="56" y="710" type="line"/>
      <point x="76" y="720" type="line"/>
      <point x="-10" y="866" type="line"/>
      <point x="-36" y="850" type="line"/>
    </contour>
    <contour>
      <point x="0" y="682" type="move" name="_aboveUC"/>
    </contour>
  </outline>
</glyph>
<glyph name="de" format="1">
  <advance width="490"/>
  <outline>
    <contour>
      <point x="56" y="0" type="line"/>
      <point x="430" y="0" type="line"/>
      <point x="430" y="-172" type="line"/>
      <point x="456" y="-172" type="line"/>
      <point x="460" y="12" type="line"/>
      <point x="460" y="28" type="line"/>
      <point x="26" y="28" type="line"/>
      <point x="26" y="12" type="line"/>
      <point x="30" y="-172" type="line"/>
      <point x="56" y="-172" type="line"/>
    </contour>
    <contour>
      <point x="366" y="10" type="line"/>
      <point x="396" y="10" type="line"/>
      <point x="396" y="478" type="line"/>
      <point x="148" y="478" type="line"/>
      <point x="120" y="248" type="line" smooth="yes"/>
      <point x="99" y="78"/>
      <point x="74" y="44"/>
      <point x="44" y="28" type="curve"/>
      <point x="68" y="10" type="line"/>
      <point x="90" y="26"/>
      <point x="126" y="56"/>
      <point x="148" y="246" type="curve" smooth="yes"/>
      <point x="172" y="450" type="line"/>
      <point x="366" y="450" type="line"/>
    </contour>
  </outline>
</glyph>
<glyph name="delta" format="1">
  <advance width="518"/>
  <outline>
    <contour>
      <point x="266" y="-12" type="curve" smooth="yes"/>
      <point x="392" y="-12"/>
      <point x="464" y="80"/>
      <point x="464" y="216" type="curve" smooth="yes"/>
      <point x="464" y="340"/>
      <point x="380" y="408"/>
      <point x="300" y="466" type="curve" smooth="yes"/>
      <point x="218" y="526"/>
      <point x="150" y="570"/>
      <point x="150" y="636" type="curve" smooth="yes"/>
      <point x="150" y="672"/>
      <point x="182" y="706"/>
      <point x="258" y="706" type="curve" smooth="yes"/>
      <point x="302" y="706"/>
      <point x="356" y="698"/>
      <point x="450" y="664" type="curve"/>
      <point x="460" y="694" type="line"/>
      <point x="370" y="724"/>
      <point x="312" y="734"/>
      <point x="260" y="734" type="curve" smooth="yes"/>
      <point x="160" y="734"/>
      <point x="118" y="686"/>
      <point x="118" y="634" type="curve" smooth="yes"/>
      <point x="118" y="558"/>
      <point x="200" y="503"/>
      <point x="286" y="440" type="curve" smooth="yes"/>
      <point x="362" y="384"/>
      <point x="432" y="322"/>
      <point x="432" y="214" type="curve" smooth="yes"/>
      <point x="432" y="104"/>
      <point x="382" y="16"/>
      <point x="266" y="16" type="curve" smooth="yes"/>
      <point x="177" y="16"/>
      <point x="94" y="92"/>
      <point x="94" y="206" type="curve" smooth="yes"/>
      <point x="94" y="315"/>
      <point x="172" y="400"/>
      <point x="306" y="428" type="curve"/>
      <point x="288" y="448" type="line"/>
      <point x="158" y="422"/>
      <point x="62" y="334"/>
      <point x="62" y="204" type="curve" smooth="yes"/>
      <point x="62" y="68"/>
      <point x="167" y="-12"/>
    </contour>
  </outline>
</glyph>
<glyph name="diamondblack" format="1">
  <advance width="694"/>
  <outline>
    <contour>
      <point x="348" y="-12" type="line"/>
      <point x="678" y="320" type="line"/>
      <point x="348" y="652" type="line"/>
      <point x="16" y="320" type="line"/>
    </contour>
  </outline>
</glyph>
<glyph name="dieresisacute.cap" format="1">
  <advance width="0"/>
  <outline>
    <contour>
      <point x="0" y="682" type="move" name="_aboveUC"/>
    </contour>
    <contour>
      <point x="-76" y="728" type="curve" smooth="yes"/>
      <point x="-58" y="728"/>
      <point x="-44" y="740"/>
      <point x="-44" y="760" type="curve" smooth="yes"/>
      <point x="-44" y="780"/>
      <point x="-58" y="792"/>
      <point x="-76" y="792" type="curve" smooth="yes"/>
      <point x="-94" y="792"/>
      <point x="-108" y="780"/>
      <point x="-108" y="760" type="curve" smooth="yes"/>
      <point x="-108" y="740"/>
      <point x="-94" y="728"/>
    </contour>
    <contour>
      <point x="-32" y="826" type="line"/>
      <point x="-4" y="826" type="line"/>
      <point x="104" y="930" type="line"/>
      <point x="64" y="930" type="line"/>
    </contour>
    <contour>
      <point x="76" y="728" type="curve" smooth="yes"/>
      <point x="94" y="728"/>
      <point x="108" y="740"/>
      <point x="108" y="760" type="curve" smooth="yes"/>
      <point x="108" y="780"/>
      <point x="94" y="792"/>
      <point x="76" y="792" type="curve" smooth="yes"/>
      <point x="58" y="792"/>
      <point x="44" y="780"/>
      <point x="44" y="760" type="curve" smooth="yes"/>
      <point x="44" y="740"/>
      <point x="58" y="728"/>
    </contour>
  </outline>
</glyph>
<glyph name="dieresiscaron.cap" format="1">
  <outline>
    <contour>
      <point x="-14" y="826" type="line"/>
      <point x="14" y="826" type="line"/>
      <point x="120" y="918" type="line"/>
      <point x="106" y="936" type="line"/>
      <point x="2" y="858" type="line"/>
      <point x="-2" y="858" type="line"/>
      <point x="-106" y="936" type="line"/>
      <point x="-120" y="918" type="line"/>
    </contour>
    <contour>
      <point x="-96" y="728" type="curve" smooth="yes"/>
      <point x="-78" y="728"/>
      <point x="-64" y="740"/>
      <point x="-64" y="760" type="curve" smooth="yes"/>
      <point x="-64" y="780"/>
      <point x="-78" y="792"/>
      <point x="-96" y="792" type="curve" smooth="yes"/>
      <point x="-114" y="792"/>
      <point x="-128" y="780"/>
      <point x="-128" y="760" type="curve" smooth="yes"/>
      <point x="-128" y="740"/>
      <point x="-114" y="728"/>
    </contour>
    <contour>
      <point x="96" y="728" type="curve" smooth="yes"/>
      <point x="114" y="728"/>
      <point x="128" y="740"/>
      <point x="128" y="760" type="curve" smooth="yes"/>
      <point x="128" y="780"/>
      <point x="114" y="792"/>
      <point x="96" y="792" type="curve" smooth="yes"/>
      <point x="78" y="792"/>
      <point x="64" y="780"/>
      <point x="64" y="760" type="curve" smooth="yes"/>
      <point x="64" y="740"/>
      <point x="78" y="728"/>
    </contour>
    <contour>
      <point x="0" y="682" type="move" name="_aboveUC"/>
    </contour>
  </outline>
</glyph>
<glyph name="dieresiscmb" format="1">
  <outline>
    <contour>
      <point x="-86" y="602" type="curve" smooth="yes"/>
      <point x="-68" y="602"/>
      <point x="-54" y="616"/>
      <point x="-54" y="634" type="curve" smooth="yes"/>
      <point x="-54" y="652"/>
      <point x="-68" y="666"/>
      <point x="-86" y="666" type="curve" smooth="yes"/>
      <point x="-104" y="666"/>
      <point x="-118" y="652"/>
      <point x="-118" y="634" type="curve" smooth="yes"/>
      <point x="-118" y="616"/>
      <point x="-104" y="602"/>
    </contour>
    <contour>
      <point x="86" y="602" type="curve" smooth="yes"/>
      <point x="104" y="602"/>
      <point x="118" y="616"/>
      <point x="118" y="634" type="curve" smooth="yes"/>
      <point x="118" y="652"/>
      <point x="104" y="666"/>
      <point x="86" y="666" type="curve" smooth="yes"/>
      <point x="68" y="666"/>
      <point x="54" y="652"/>
      <point x="54" y="634" type="curve" smooth="yes"/>
      <point x="54" y="616"/>
      <point x="68" y="602"/>
    </contour>
    <contour>
      <point x="0" y="502" type="move" name="_aboveLC"/>
    </contour>
    <contour>
      <point x="0" y="674" type="move" name="aboveLC"/>
    </contour>
  </outline>
</glyph>
<glyph name="dieresisgrave" format="1">
  <outline>
    <contour>
      <point x="18" y="698" type="line"/>
      <point x="36" y="714" type="line"/>
      <point x="-50" y="814" type="line"/>
      <point x="-74" y="794" type="line"/>
    </contour>
    <contour>
      <point x="-86" y="602" type="curve" smooth="yes"/>
      <point x="-68" y="602"/>
      <point x="-54" y="616"/>
      <point x="-54" y="634" type="curve" smooth="yes"/>
      <point x="-54" y="652"/>
      <point x="-68" y="666"/>
      <point x="-86" y="666" type="curve" smooth="yes"/>
      <point x="-104" y="666"/>
      <point x="-118" y="652"/>
      <point x="-118" y="634" type="curve" smooth="yes"/>
      <point x="-118" y="616"/>
      <point x="-104" y="602"/>
    </contour>
    <contour>
      <point x="86" y="602" type="curve" smooth="yes"/>
      <point x="104" y="602"/>
      <point x="118" y="616"/>
      <point x="118" y="634" type="curve" smooth="yes"/>
      <point x="118" y="652"/>
      <point x="104" y="666"/>
      <point x="86" y="666" type="curve" smooth="yes"/>
      <point x="68" y="666"/>
      <point x="54" y="652"/>
      <point x="54" y="634" type="curve" smooth="yes"/>
      <point x="54" y="616"/>
      <point x="68" y="602"/>
    </contour>
    <contour>
      <point x="0" y="502" type="move" name="_aboveLC"/>
    </contour>
  </outline>
</glyph>
<glyph name="dieresismacron.cap" format="1">
  <advance width="0"/>
  <outline>
    <contour>
      <point x="0" y="682" type="move" name="_aboveUC"/>
    </contour>
    <contour>
      <point x="-76" y="728" type="curve" smooth="yes"/>
      <point x="-58" y="728"/>
      <point x="-44" y="740"/>
      <point x="-44" y="760" type="curve" smooth="yes"/>
      <point x="-44" y="780"/>
      <point x="-58" y="792"/>
      <point x="-76" y="792" type="curve" smooth="yes"/>
      <point x="-94" y="792"/>
      <point x="-108" y="780"/>
      <point x="-108" y="760" type="curve" smooth="yes"/>
      <point x="-108" y="740"/>
      <point x="-94" y="728"/>
    </contour>
    <contour>
      <point x="-110" y="852" type="line"/>
      <point x="110" y="852" type="line"/>
      <point x="110" y="880" type="line"/>
      <point x="-110" y="880" type="line"/>
    </contour>
    <contour>
      <point x="76" y="728" type="curve" smooth="yes"/>
      <point x="94" y="728"/>
      <point x="108" y="740"/>
      <point x="108" y="760" type="curve" smooth="yes"/>
      <point x="108" y="780"/>
      <point x="94" y="792"/>
      <point x="76" y="792" type="curve" smooth="yes"/>
      <point x="58" y="792"/>
      <point x="44" y="780"/>
      <point x="44" y="760" type="curve" smooth="yes"/>
      <point x="44" y="740"/>
      <point x="58" y="728"/>
    </contour>
  </outline>
</glyph>
<glyph name="dieresismacron" format="1">
  <advance width="0"/>
  <outline>
    <contour>
      <point x="0" y="502" type="move" name="_aboveLC"/>
    </contour>
    <contour>
      <point x="-76" y="602" type="curve" smooth="yes"/>
      <point x="-58" y="602"/>
      <point x="-44" y="616"/>
      <point x="-44" y="634" type="curve" smooth="yes"/>
      <point x="-44" y="652"/>
      <point x="-58" y="666"/>
      <point x="-76" y="666" type="curve" smooth="yes"/>
      <point x="-94" y="666"/>
      <point x="-108" y="652"/>
      <point x="-108" y="634" type="curve" smooth="yes"/>
      <point x="-108" y="616"/>
      <point x="-94" y="602"/>
    </contour>
    <contour>
      <point x="-112" y="746" type="line"/>
      <point x="110" y="746" type="line"/>
      <point x="110" y="774" type="line"/>
      <point x="-112" y="774" type="line"/>
    </contour>
    <contour>
      <point x="76" y="602" type="curve" smooth="yes"/>
      <point x="94" y="602"/>
      <point x="108" y="616"/>
      <point x="108" y="634" type="curve" smooth="yes"/>
      <point x="108" y="652"/>
      <point x="94" y="666"/>
      <point x="76" y="666" type="curve" smooth="yes"/>
      <point x="58" y="666"/>
      <point x="44" y="652"/>
      <point x="44" y="634" type="curve" smooth="yes"/>
      <point x="44" y="616"/>
      <point x="58" y="602"/>
    </contour>
  </outline>
</glyph>
<glyph name="dieresismacron.cap" format="1">
  <advance width="0"/>
  <outline>
    <contour>
      <point x="0" y="682" type="move" name="_aboveUC"/>
    </contour>
    <contour>
      <point x="-96" y="728" type="curve" smooth="yes"/>
      <point x="-78" y="728"/>
      <point x="-64" y="740"/>
      <point x="-64" y="760" type="curve" smooth="yes"/>
      <point x="-64" y="780"/>
      <point x="-78" y="792"/>
      <point x="-96" y="792" type="curve" smooth="yes"/>
      <point x="-114" y="792"/>
      <point x="-128" y="780"/>
      <point x="-128" y="760" type="curve" smooth="yes"/>
      <point x="-128" y="740"/>
      <point x="-114" y="728"/>
    </contour>
    <contour>
      <point x="-120" y="852" type="line"/>
      <point x="120" y="852" type="line"/>
      <point x="120" y="880" type="line"/>
      <point x="-120" y="880" type="line"/>
    </contour>
    <contour>
      <point x="96" y="728" type="curve" smooth="yes"/>
      <point x="114" y="728"/>
      <point x="128" y="740"/>
      <point x="128" y="760" type="curve" smooth="yes"/>
      <point x="128" y="780"/>
      <point x="114" y="792"/>
      <point x="96" y="792" type="curve" smooth="yes"/>
      <point x="78" y="792"/>
      <point x="64" y="780"/>
      <point x="64" y="760" type="curve" smooth="yes"/>
      <point x="64" y="740"/>
      <point x="78" y="728"/>
    </contour>
  </outline>
</glyph>
<glyph name="dieresistilde" format="1">
  <outline>
    <contour>
      <point x="-148" y="704" type="curve"/>
      <point x="-124" y="702" type="line"/>
      <point x="-120" y="736"/>
      <point x="-101" y="754"/>
      <point x="-74" y="754" type="curve" smooth="yes"/>
      <point x="-16" y="754"/>
      <point x="0" y="700"/>
      <point x="74" y="700" type="curve" smooth="yes"/>
      <point x="125" y="700"/>
      <point x="146" y="742"/>
      <point x="148" y="776" type="curve"/>
      <point x="124" y="778" type="line"/>
      <point x="120" y="744"/>
      <point x="101" y="726"/>
      <point x="74" y="726" type="curve" smooth="yes"/>
      <point x="16" y="726"/>
      <point x="0" y="780"/>
      <point x="-74" y="780" type="curve" smooth="yes"/>
      <point x="-125" y="780"/>
      <point x="-146" y="738"/>
    </contour>
    <contour>
      <point x="-86" y="602" type="curve" smooth="yes"/>
      <point x="-68" y="602"/>
      <point x="-54" y="616"/>
      <point x="-54" y="634" type="curve" smooth="yes"/>
      <point x="-54" y="652"/>
      <point x="-68" y="666"/>
      <point x="-86" y="666" type="curve" smooth="yes"/>
      <point x="-104" y="666"/>
      <point x="-118" y="652"/>
      <point x="-118" y="634" type="curve" smooth="yes"/>
      <point x="-118" y="616"/>
      <point x="-104" y="602"/>
    </contour>
    <contour>
      <point x="86" y="602" type="curve" smooth="yes"/>
      <point x="104" y="602"/>
      <point x="118" y="616"/>
      <point x="118" y="634" type="curve" smooth="yes"/>
      <point x="118" y="652"/>
      <point x="104" y="666"/>
      <point x="86" y="666" type="curve" smooth="yes"/>
      <point x="68" y="666"/>
      <point x="54" y="652"/>
      <point x="54" y="634" type="curve" smooth="yes"/>
      <point x="54" y="616"/>
      <point x="68" y="602"/>
    </contour>
    <contour>
      <point x="0" y="502" type="move" name="_aboveLC"/>
    </contour>
  </outline>
</glyph>
<glyph name="dieresistonoscmb" format="1">
  <outline>
    <contour>
      <point x="-30" y="566" type="line"/>
      <point x="-6" y="560" type="line"/>
      <point x="58" y="744" type="line"/>
      <point x="20" y="752" type="line"/>
    </contour>
    <contour>
      <point x="-98" y="604" type="curve" smooth="yes"/>
      <point x="-80" y="604"/>
      <point x="-68" y="616"/>
      <point x="-68" y="634" type="curve" smooth="yes"/>
      <point x="-68" y="652"/>
      <point x="-80" y="664"/>
      <point x="-98" y="664" type="curve" smooth="yes"/>
      <point x="-116" y="664"/>
      <point x="-128" y="652"/>
      <point x="-128" y="634" type="curve" smooth="yes"/>
      <point x="-128" y="616"/>
      <point x="-116" y="604"/>
    </contour>
    <contour>
      <point x="98" y="604" type="curve" smooth="yes"/>
      <point x="116" y="604"/>
      <point x="128" y="616"/>
      <point x="128" y="634" type="curve" smooth="yes"/>
      <point x="128" y="652"/>
      <point x="116" y="664"/>
      <point x="98" y="664" type="curve" smooth="yes"/>
      <point x="80" y="664"/>
      <point x="68" y="652"/>
      <point x="68" y="634" type="curve" smooth="yes"/>
      <point x="68" y="616"/>
      <point x="80" y="604"/>
    </contour>
    <contour>
      <point x="0" y="502" type="move" name="_aboveLC"/>
    </contour>
  </outline>
</glyph>
<glyph name="digamma" format="1">
  <advance width="398"/>
  <outline>
    <contour>
      <point x="96" y="-180" type="line"/>
      <point x="126" y="-180" type="line"/>
      <point x="126" y="-59"/>
      <point x="126" y="44"/>
      <point x="126" y="158" type="curve"/>
      <point x="352" y="158" type="line"/>
      <point x="352" y="186" type="line"/>
      <point x="126" y="186" type="line"/>
      <point x="124" y="450" type="line"/>
      <point x="372" y="450" type="line"/>
      <point x="372" y="478" type="line"/>
      <point x="96" y="478" type="line"/>
    </contour>
    <contour>
      <point x="248" y="502" type="move" name="aboveLC"/>
    </contour>
  </outline>
</glyph>
<glyph name="dong" format="1">
  <advance width="472"/>
  <outline>
    <contour>
      <point x="224" y="106" type="curve" smooth="yes"/>
      <point x="276" y="106"/>
      <point x="314" y="132"/>
      <point x="344" y="164" type="curve"/>
      <point x="348" y="164" type="line"/>
      <point x="352" y="116" type="line"/>
      <point x="376" y="116" type="line"/>
      <point x="376" y="676" type="line"/>
      <point x="346" y="676" type="line"/>
      <point x="346" y="516" type="line"/>
      <point x="350" y="420" type="line"/>
      <point x="314" y="452"/>
      <point x="284" y="472"/>
      <point x="232" y="472" type="curve" smooth="yes"/>
      <point x="146" y="472"/>
      <point x="70" y="402"/>
      <point x="70" y="294" type="curve" smooth="yes"/>
      <point x="70" y="172"/>
      <point x="130" y="106"/>
    </contour>
    <contour>
      <point x="226" y="134" type="curve" smooth="yes"/>
      <point x="146" y="134"/>
      <point x="102" y="198"/>
      <point x="102" y="296" type="curve" smooth="yes"/>
      <point x="102" y="376"/>
      <point x="158" y="444"/>
      <point x="230" y="444" type="curve" smooth="yes"/>
      <point x="276" y="444"/>
      <point x="304" y="428"/>
      <point x="346" y="390" type="curve"/>
      <point x="346" y="200" type="line"/>
      <point x="306" y="154"/>
      <point x="266" y="134"/>
    </contour>
    <contour>
      <point x="200" y="566" type="line"/>
      <point x="376" y="566" type="line"/>
      <point x="458" y="570" type="line"/>
      <point x="458" y="594" type="line"/>
      <point x="200" y="594" type="line"/>
    </contour>
    <contour>
      <point x="80" y="0" type="line"/>
      <point x="406" y="0" type="line"/>
      <point x="406" y="28" type="line"/>
      <point x="80" y="28" type="line"/>
    </contour>
  </outline>
</glyph>
<glyph name="dotlessi" format="1">
  <advance width="222"/>
  <outline>
    <contour>
      <point x="96" y="0" type="line"/>
      <point x="126" y="0" type="line"/>
      <point x="126" y="478" type="line"/>
      <point x="96" y="478" type="line"/>
    </contour>
    <contour>
      <point x="130" y="0" type="move" name="ogonekLC"/>
    </contour>
    <contour>
      <point x="112" y="502" type="move" name="aboveLC"/>
    </contour>
    <contour>
      <point x="110" y="-22" type="move" name="belowLC"/>
    </contour>
  </outline>
</glyph>
<glyph name="dotlessjstrokehook" format="1">
  <advance width="230"/>
  <outline>
    <contour>
      <point x="4" y="238" type="line"/>
      <point x="222" y="238" type="line"/>
      <point x="222" y="266" type="line"/>
      <point x="100" y="266" type="line"/>
      <point x="4" y="262" type="line"/>
    </contour>
    <component base="esh" xOffset="4"/>
  </outline>
</glyph>
<glyph name="eacute.sups" format="1">
	<advance width="328"/>
	<outline>
		<contour>
			<point x="154" y="778" type="line"/>
			<point x="256" y="888" type="line"/>
			<point x="232" y="906" type="line"/>
			<point x="134" y="794" type="line"/>
		</contour>
		<component base="e.sups"/>
	</outline>
</glyph>
<glyph name="egrave.sups" format="1">
  <advance width="328"/>
  <outline>
    <contour>
      <point x="186" y="638" type="line"/>
      <point x="214" y="638" type="line"/>
      <point x="154" y="728" type="line"/>
      <point x="118" y="728" type="line"/>
    </contour>
    <component base="e.sups"/>
  </outline>
</glyph>
<glyph name="eng" format="1">
  <advance width="526"/>
  <outline>
    <contour>
      <point x="340" y="-180" type="curve" smooth="yes"/>
      <point x="406" y="-180"/>
      <point x="438" y="-140"/>
      <point x="438" y="-48" type="curve" smooth="yes"/>
      <point x="438" y="308" type="line" smooth="yes"/>
      <point x="438" y="432"/>
      <point x="392" y="490"/>
      <point x="294" y="490" type="curve" smooth="yes"/>
      <point x="228" y="490"/>
      <point x="178" y="452"/>
      <point x="128" y="402" type="curve"/>
      <point x="126" y="402" type="line"/>
      <point x="122" y="478" type="line"/>
      <point x="96" y="478" type="line"/>
      <point x="96" y="0" type="line"/>
      <point x="126" y="0" type="line"/>
      <point x="126" y="366" type="line"/>
      <point x="188" y="430"/>
      <point x="232" y="462"/>
      <point x="292" y="462" type="curve" smooth="yes"/>
      <point x="374" y="462"/>
      <point x="408" y="410"/>
      <point x="408" y="304" type="curve" smooth="yes"/>
      <point x="408" y="-44" type="line" smooth="yes"/>
      <point x="408" y="-106"/>
      <point x="398" y="-152"/>
      <point x="342" y="-152" type="curve" smooth="yes"/>
      <point x="322" y="-152"/>
      <point x="302" y="-146"/>
      <point x="290" y="-142" type="curve"/>
      <point x="282" y="-168" type="line"/>
      <point x="296" y="-174"/>
      <point x="320" y="-180"/>
    </contour>
    <contour>
      <point x="278" y="502" type="move" name="aboveLC"/>
    </contour>
  </outline>
</glyph>
<glyph name="eogonek" format="1">
  <advance width="478"/>
  <outline>
    <contour>
      <point x="260" y="502" type="move" name="aboveLC"/>
    </contour>
    <contour>
      <point x="354" y="-202" type="curve" smooth="yes"/>
      <point x="374" y="-202"/>
      <point x="400" y="-192"/>
      <point x="414" y="-180" type="curve"/>
      <point x="400" y="-160" type="line"/>
      <point x="386" y="-170"/>
      <point x="374" y="-174"/>
      <point x="356" y="-174" type="curve" smooth="yes"/>
      <point x="330" y="-174"/>
      <point x="306" y="-156"/>
      <point x="306" y="-120" type="curve" smooth="yes"/>
      <point x="306" y="-76"/>
      <point x="334" y="-30"/>
      <point x="420" y="34" type="curve"/>
      <point x="406" y="60" type="line"/>
      <point x="370" y="34"/>
      <point x="328" y="16"/>
      <point x="274" y="16" type="curve"/>
      <point x="160" y="16"/>
      <point x="86" y="110"/>
      <point x="86" y="238" type="curve"/>
      <point x="438" y="238" type="line"/>
      <point x="440" y="250"/>
      <point x="440" y="260"/>
      <point x="440" y="270" type="curve" smooth="yes"/>
      <point x="440" y="412"/>
      <point x="370" y="490"/>
      <point x="260" y="490" type="curve" smooth="yes"/>
      <point x="154" y="490"/>
      <point x="54" y="394"/>
      <point x="54" y="238" type="curve" smooth="yes"/>
      <point x="54" y="82"/>
      <point x="152" y="-12"/>
      <point x="272" y="-12" type="curve"/>
      <point x="296" y="-12"/>
      <point x="318" y="-10"/>
      <point x="340" y="-2" type="curve"/>
      <point x="312" y="-26"/>
      <point x="276" y="-72"/>
      <point x="276" y="-122" type="curve" smooth="yes"/>
      <point x="276" y="-176"/>
      <point x="310" y="-202"/>
    </contour>
    <contour>
      <point x="86" y="266" type="line"/>
      <point x="96" y="388"/>
      <point x="174" y="462"/>
      <point x="260" y="462" type="curve" smooth="yes"/>
      <point x="350" y="462"/>
      <point x="410" y="398"/>
      <point x="410" y="266" type="curve"/>
    </contour>
  </outline>
</glyph>
<glyph name="f.sups" format="1">
  <advance width="176"/>
  <outline>
    <contour>
      <point x="68" y="270" type="line"/>
      <point x="96" y="270" type="line"/>
      <point x="96" y="656" type="line" smooth="yes"/>
      <point x="96" y="696"/>
      <point x="112" y="726"/>
      <point x="146" y="726" type="curve" smooth="yes"/>
      <point x="164" y="726"/>
      <point x="176" y="722"/>
      <point x="186" y="718" type="curve"/>
      <point x="194" y="742" type="line"/>
      <point x="176" y="750"/>
      <point x="164" y="752"/>
      <point x="146" y="752" type="curve" smooth="yes"/>
      <point x="96" y="752"/>
      <point x="68" y="714"/>
      <point x="68" y="652" type="curve" smooth="yes"/>
    </contour>
    <contour>
      <point x="22" y="562" type="line"/>
      <point x="172" y="562" type="line"/>
      <point x="172" y="586" type="line"/>
      <point x="68" y="586" type="line"/>
      <point x="22" y="584" type="line"/>
    </contour>
  </outline>
</glyph>
<glyph name="fisheye" format="1">
  <advance width="910"/>
  <outline>
    <contour>
      <point x="455" y="-75" type="curve" smooth="yes"/>
      <point x="676" y="-75"/>
      <point x="875" y="76"/>
      <point x="875" y="350" type="curve" smooth="yes"/>
      <point x="875" y="618"/>
      <point x="676" y="775"/>
      <point x="455" y="775" type="curve" smooth="yes"/>
      <point x="234" y="775"/>
      <point x="35" y="618"/>
      <point x="35" y="350" type="curve" smooth="yes"/>
      <point x="35" y="76"/>
      <point x="234" y="-75"/>
    </contour>
    <contour>
      <point x="455" y="-45" type="curve" smooth="yes"/>
      <point x="264" y="-45"/>
      <point x="70" y="90"/>
      <point x="70" y="350" type="curve" smooth="yes"/>
      <point x="70" y="610"/>
      <point x="264" y="745"/>
      <point x="455" y="745" type="curve" smooth="yes"/>
      <point x="649" y="745"/>
      <point x="840" y="610"/>
      <point x="840" y="350" type="curve" smooth="yes"/>
      <point x="840" y="90"/>
      <point x="649" y="-45"/>
    </contour>
    <contour>
      <point x="455" y="60" type="curve" smooth="yes"/>
      <point x="603" y="60"/>
      <point x="740" y="167"/>
      <point x="740" y="350" type="curve" smooth="yes"/>
      <point x="740" y="529"/>
      <point x="603" y="640"/>
      <point x="455" y="640" type="curve" smooth="yes"/>
      <point x="307" y="640"/>
      <point x="170" y="529"/>
      <point x="170" y="350" type="curve" smooth="yes"/>
      <point x="170" y="167"/>
      <point x="307" y="60"/>
    </contour>
  </outline>
</glyph>
<glyph name="fita" format="1">
  <advance width="532"/>
  <outline>
    <contour>
      <point x="266" y="502" type="move" name="aboveLC"/>
    </contour>
    <component base="obar"/>
  </outline>
</glyph>
<glyph name="g.alt" format="1">
	<advance width="540"/>
	<outline>
		<component base="gscript"/>
		<contour>
			<point name="aboveLC" x="276" y="502" type="move"/>
		</contour>
		<contour>
			<point name="belowLC" x="434" y="-218" type="move"/>
		</contour>
	</outline>
</glyph>
<glyph name="g.sups" format="1">
  <advance width="328"/>
  <outline>
    <contour>
      <point x="166" y="118" type="curve" smooth="yes"/>
      <point x="260" y="118"/>
      <point x="318" y="170"/>
      <point x="318" y="224" type="curve" smooth="yes"/>
      <point x="318" y="276"/>
      <point x="286" y="298"/>
      <point x="213" y="298" type="curve" smooth="yes"/>
      <point x="144" y="298" type="line" smooth="yes"/>
      <point x="98" y="298"/>
      <point x="82" y="314"/>
      <point x="82" y="338" type="curve" smooth="yes"/>
      <point x="82" y="358"/>
      <point x="94" y="372"/>
      <point x="108" y="382" type="curve"/>
      <point x="124" y="372"/>
      <point x="144" y="368"/>
      <point x="162" y="368" type="curve" smooth="yes"/>
      <point x="225" y="368"/>
      <point x="276" y="416"/>
      <point x="276" y="482" type="curve" smooth="yes"/>
      <point x="276" y="512"/>
      <point x="262" y="542"/>
      <point x="242" y="558" type="curve"/>
      <point x="314" y="558" type="line"/>
      <point x="314" y="584" type="line"/>
      <point x="211" y="584" type="line"/>
      <point x="197" y="590"/>
      <point x="183" y="594"/>
      <point x="162" y="594" type="curve" smooth="yes"/>
      <point x="98" y="594"/>
      <point x="48" y="548"/>
      <point x="48" y="482" type="curve" smooth="yes"/>
      <point x="48" y="444"/>
      <point x="68" y="413"/>
      <point x="89" y="396" type="curve"/>
      <point x="89" y="392" type="line"/>
      <point x="74" y="382"/>
      <point x="54" y="362"/>
      <point x="54" y="336" type="curve" smooth="yes"/>
      <point x="54" y="312"/>
      <point x="66" y="294"/>
      <point x="82" y="284" type="curve"/>
      <point x="82" y="280" type="line"/>
      <point x="52" y="260"/>
      <point x="36" y="234"/>
      <point x="36" y="206" type="curve" smooth="yes"/>
      <point x="36" y="152"/>
      <point x="84" y="118"/>
    </contour>
    <contour>
      <point x="162" y="394" type="curve" smooth="yes"/>
      <point x="112" y="394"/>
      <point x="76" y="430"/>
      <point x="76" y="482" type="curve" smooth="yes"/>
      <point x="76" y="536"/>
      <point x="112" y="568"/>
      <point x="162" y="568" type="curve" smooth="yes"/>
      <point x="208" y="568"/>
      <point x="248" y="535"/>
      <point x="248" y="482" type="curve" smooth="yes"/>
      <point x="248" y="430"/>
      <point x="208" y="394"/>
    </contour>
    <contour>
      <point x="170" y="144" type="curve" smooth="yes"/>
      <point x="102" y="144"/>
      <point x="64" y="168"/>
      <point x="64" y="209" type="curve" smooth="yes"/>
      <point x="64" y="232"/>
      <point x="78" y="254"/>
      <point x="106" y="272" type="curve"/>
      <point x="120" y="268"/>
      <point x="138" y="268"/>
      <point x="146" y="268" type="curve" smooth="yes"/>
      <point x="214" y="268" type="line" smooth="yes"/>
      <point x="262" y="268"/>
      <point x="290" y="256"/>
      <point x="290" y="222" type="curve" smooth="yes"/>
      <point x="290" y="182"/>
      <point x="242" y="144"/>
    </contour>
  </outline>
</glyph>
<glyph name="g.alt" format="1">
  <advance width="540"/>
  <outline>
    <contour>
      <point x="276" y="502" type="move" name="aboveLC"/>
    </contour>
    <contour>
      <point x="434" y="-218" type="move" name="belowLC"/>
    </contour>
    <component base="gscript"/>
  </outline>
</glyph>
<glyph name="ghestroke" format="1">
  <advance width="398"/>
  <outline>
    <contour>
      <point x="34" y="228" type="line"/>
      <point x="274" y="228" type="line"/>
      <point x="274" y="256" type="line"/>
      <point x="100" y="256" type="line"/>
      <point x="34" y="252" type="line"/>
    </contour>
    <component base="ghe" xOffset="4"/>
  </outline>
</glyph>
<glyph name="gravecmb.cap" format="1">
  <advance width="0"/>
  <outline>
    <contour>
      <point x="0" y="682" type="move" name="_aboveUC"/>
    </contour>
    <contour>
      <point x="22" y="710" type="line"/>
      <point x="36" y="726" type="line"/>
      <point x="-82" y="846" type="line"/>
      <point x="-104" y="822" type="line"/>
    </contour>
  </outline>
</glyph>
<glyph name="gravecmb" format="1">
  <advance width="0"/>
  <outline>
    <contour>
      <point x="0" y="502" type="move" name="_aboveLC"/>
    </contour>
    <contour>
      <point x="34" y="574" type="line"/>
      <point x="52" y="590" type="line"/>
      <point x="-80" y="744" type="line"/>
      <point x="-104" y="724" type="line"/>
    </contour>
  </outline>
</glyph>
<glyph name="h.sups" format="1">
  <advance width="352"/>
  <outline>
    <contour>
      <point x="60" y="270" type="line"/>
      <point x="88" y="270" type="line"/>
      <point x="88" y="508" type="line"/>
      <point x="130" y="550"/>
      <point x="164" y="568"/>
      <point x="194" y="568" type="curve" smooth="yes"/>
      <point x="258" y="568"/>
      <point x="272" y="528"/>
      <point x="272" y="468" type="curve" smooth="yes"/>
      <point x="272" y="270" type="line"/>
      <point x="300" y="270" type="line"/>
      <point x="300" y="474" type="line" smooth="yes"/>
      <point x="300" y="544"/>
      <point x="276" y="594"/>
      <point x="200" y="594" type="curve" smooth="yes"/>
      <point x="158" y="594"/>
      <point x="118" y="568"/>
      <point x="88" y="536" type="curve"/>
      <point x="88" y="608" type="line"/>
      <point x="88" y="744" type="line"/>
      <point x="60" y="744" type="line"/>
    </contour>
  </outline>
</glyph>
<glyph name="hoicmb" format="1">
  <outline>
    <contour>
      <point x="-22" y="576" type="line"/>
      <point x="22" y="590"/>
      <point x="66" y="612"/>
      <point x="66" y="662" type="curve" smooth="yes"/>
      <point x="66" y="712"/>
      <point x="10" y="732"/>
      <point x="-48" y="734" type="curve"/>
      <point x="-50" y="708" type="line"/>
      <point x="4" y="706"/>
      <point x="36" y="690"/>
      <point x="36" y="658" type="curve" smooth="yes"/>
      <point x="36" y="628"/>
      <point x="8" y="612"/>
      <point x="-30" y="600" type="curve"/>
    </contour>
    <contour>
      <point x="0" y="502" type="move" name="_aboveLC"/>
    </contour>
  </outline>
</glyph>
<glyph name="hyphen.sups" format="1">
  <advance width="224"/>
  <outline>
    <contour>
      <point x="40" y="622" type="line"/>
      <point x="187" y="622" type="line"/>
      <point x="187" y="647" type="line"/>
      <point x="40" y="647" type="line"/>
    </contour>
  </outline>
</glyph>
<glyph name="i.sups" format="1">
  <advance width="148"/>
  <outline>
    <contour>
      <point x="76" y="662" type="curve" smooth="yes"/>
      <point x="92" y="662"/>
      <point x="104" y="674"/>
      <point x="104" y="690" type="curve" smooth="yes"/>
      <point x="104" y="706"/>
      <point x="92" y="718"/>
      <point x="76" y="718" type="curve" smooth="yes"/>
      <point x="60" y="718"/>
      <point x="48" y="706"/>
      <point x="48" y="690" type="curve" smooth="yes"/>
      <point x="48" y="674"/>
      <point x="60" y="662"/>
    </contour>
    <contour>
      <point x="60" y="270" type="line"/>
      <point x="88" y="270" type="line"/>
      <point x="88" y="586" type="line"/>
      <point x="60" y="586" type="line"/>
    </contour>
  </outline>
</glyph>
<glyph name="ie" format="1">
  <advance width="478"/>
  <outline>
    <contour>
      <point x="260" y="502" type="move" name="aboveLC"/>
    </contour>
    <component base="e"/>
  </outline>
</glyph>
<glyph name="interrobang" format="1">
  <advance width="394"/>
  <outline>
    <contour>
      <point x="174" y="172" type="curve"/>
      <point x="192" y="172" type="line"/>
      <point x="172" y="330"/>
      <point x="342" y="394"/>
      <point x="342" y="532" type="curve" smooth="yes"/>
      <point x="342" y="614"/>
      <point x="288" y="682"/>
      <point x="192" y="682" type="curve" smooth="yes"/>
      <point x="124" y="682"/>
      <point x="74" y="648"/>
      <point x="36" y="606" type="curve"/>
      <point x="56" y="588" type="line"/>
      <point x="90" y="630"/>
      <point x="140" y="654"/>
      <point x="190" y="654" type="curve" smooth="yes"/>
      <point x="274" y="654"/>
      <point x="310" y="594"/>
      <point x="310" y="530" type="curve" smooth="yes"/>
      <point x="310" y="400"/>
      <point x="154" y="348"/>
    </contour>
    <contour>
      <point x="170" y="172" type="line"/>
      <point x="192" y="172" type="line"/>
      <point x="198" y="488" type="line"/>
      <point x="198" y="550" type="line"/>
      <point x="166" y="550" type="line"/>
      <point x="166" y="488" type="line"/>
    </contour>
    <contour>
      <point x="182" y="-12" type="curve" smooth="yes"/>
      <point x="200" y="-12"/>
      <point x="218" y="2"/>
      <point x="218" y="26" type="curve" smooth="yes"/>
      <point x="218" y="52"/>
      <point x="200" y="66"/>
      <point x="182" y="66" type="curve" smooth="yes"/>
      <point x="164" y="66"/>
      <point x="146" y="52"/>
      <point x="146" y="26" type="curve" smooth="yes"/>
      <point x="146" y="2"/>
      <point x="164" y="-12"/>
    </contour>
  </outline>
</glyph>
<glyph name="iotasubscript" format="1">
  <advance width="532"/>
  <outline>
    <contour>
      <point x="276" y="-22" type="move" name="_belowLC"/>
    </contour>
    <component base="iotasubscriptcmb" xOffset="276"/>
  </outline>
</glyph>
<glyph name="k.sups" format="1">
  <advance width="310"/>
  <outline>
    <contour>
      <point x="60" y="270" type="line"/>
      <point x="88" y="270" type="line"/>
      <point x="88" y="352" type="line"/>
      <point x="160" y="438" type="line"/>
      <point x="270" y="270" type="line"/>
      <point x="304" y="270" type="line"/>
      <point x="180" y="460" type="line"/>
      <point x="286" y="586" type="line"/>
      <point x="250" y="586" type="line"/>
      <point x="92" y="398" type="line"/>
      <point x="88" y="398" type="line"/>
      <point x="88" y="744" type="line"/>
      <point x="60" y="744" type="line"/>
    </contour>
  </outline>
</glyph>
<glyph name="ka.b" format="1">
  <advance width="460"/>
  <outline>
    <contour>
      <point x="96" y="0" type="line"/>
      <point x="126" y="0" type="line"/>
      <point x="126" y="236" type="line"/>
      <point x="256" y="236" type="line"/>
      <point x="408" y="0" type="line"/>
      <point x="442" y="0" type="line"/>
      <point x="279" y="252" type="line"/>
      <point x="432" y="478" type="line"/>
      <point x="398" y="478" type="line"/>
      <point x="252" y="264" type="line"/>
      <point x="126" y="264" type="line"/>
      <point x="126" y="478" type="line"/>
      <point x="96" y="478" type="line"/>
    </contour>
  </outline>
</glyph>
<glyph name="ka.a" format="1">
  <advance width="460"/>
  <outline>
    <contour>
      <point x="96" y="0" type="line"/>
      <point x="126" y="0" type="line"/>
      <point x="126" y="236" type="line"/>
      <point x="256" y="236" type="line"/>
      <point x="271" y="264" type="line"/>
      <point x="126" y="264" type="line"/>
      <point x="126" y="478" type="line"/>
      <point x="96" y="478" type="line"/>
    </contour>
    <contour>
      <point x="274" y="240" type="line"/>
      <point x="348" y="408" type="line" smooth="yes"/>
      <point x="365" y="446"/>
      <point x="382" y="458"/>
      <point x="412" y="458" type="curve" smooth="yes"/>
      <point x="419" y="458"/>
      <point x="418" y="458"/>
      <point x="424" y="456" type="curve"/>
      <point x="432" y="486" type="line"/>
      <point x="428" y="488"/>
      <point x="421" y="490"/>
      <point x="414" y="490" type="curve" smooth="yes"/>
      <point x="372" y="490"/>
      <point x="345" y="471"/>
      <point x="320" y="414" type="curve" smooth="yes"/>
      <point x="244" y="243" type="line"/>
    </contour>
    <contour>
      <point x="440" y="-12" type="curve" smooth="yes"/>
      <point x="447" y="-12"/>
      <point x="458" y="-10"/>
      <point x="462" y="-8" type="curve"/>
      <point x="454" y="22" type="line"/>
      <point x="448" y="20"/>
      <point x="444" y="20"/>
      <point x="438" y="20" type="curve" smooth="yes"/>
      <point x="416" y="20"/>
      <point x="400" y="26"/>
      <point x="378" y="66" type="curve" smooth="yes"/>
      <point x="270" y="265" type="line"/>
      <point x="240" y="262" type="line"/>
      <point x="352" y="54" type="line" smooth="yes"/>
      <point x="382" y="-2"/>
      <point x="406" y="-12"/>
    </contour>
  </outline>
</glyph>
<glyph name="kabashkir" format="1">
  <advance width="580"/>
  <outline>
    <contour>
      <point x="394" y="240" type="line"/>
      <point x="452" y="378" type="line" smooth="yes"/>
      <point x="481" y="447"/>
      <point x="502" y="458"/>
      <point x="528" y="458" type="curve" smooth="yes"/>
      <point x="535" y="458"/>
      <point x="536" y="458"/>
      <point x="542" y="456" type="curve"/>
      <point x="550" y="486" type="line"/>
      <point x="546" y="488"/>
      <point x="537" y="490"/>
      <point x="530" y="490" type="curve" smooth="yes"/>
      <point x="492" y="490"/>
      <point x="462" y="472"/>
      <point x="426" y="386" type="curve" smooth="yes"/>
      <point x="366" y="243" type="line"/>
    </contour>
    <contour>
      <point x="216" y="0" type="line"/>
      <point x="246" y="0" type="line"/>
      <point x="246" y="236" type="line"/>
      <point x="376" y="236" type="line"/>
      <point x="528" y="0" type="line"/>
      <point x="562" y="0" type="line"/>
      <point x="391" y="264" type="line"/>
      <point x="246" y="264" type="line"/>
      <point x="246" y="478" type="line"/>
      <point x="26" y="478" type="line"/>
      <point x="26" y="450" type="line"/>
      <point x="216" y="450" type="line"/>
    </contour>
  </outline>
</glyph>
<glyph name="kabashkir.a" format="1">
  <advance width="580"/>
  <outline>
    <contour>
      <point x="26" y="450" type="line"/>
      <point x="216" y="450" type="line"/>
      <point x="246" y="478" type="line"/>
      <point x="26" y="478" type="line"/>
    </contour>
    <component base="ka.a" xOffset="120"/>
  </outline>
</glyph>
<glyph name="l.supa" format="1">
  <advance width="148"/>
  <outline>
    <contour>
      <point x="60" y="270" type="line"/>
      <point x="88" y="270" type="line"/>
      <point x="88" y="744" type="line"/>
      <point x="60" y="744" type="line"/>
    </contour>
  </outline>
</glyph>
<glyph name="l.sups" format="1">
  <advance width="158"/>
  <outline>
    <contour>
      <point x="102" y="262" type="curve" smooth="yes"/>
      <point x="112" y="262"/>
      <point x="118" y="264"/>
      <point x="124" y="266" type="curve"/>
      <point x="118" y="290" type="line"/>
      <point x="112" y="288"/>
      <point x="108" y="288"/>
      <point x="104" y="288" type="curve" smooth="yes"/>
      <point x="94" y="288"/>
      <point x="88" y="294"/>
      <point x="88" y="310" type="curve" smooth="yes"/>
      <point x="88" y="744" type="line"/>
      <point x="60" y="744" type="line"/>
      <point x="60" y="316" type="line" smooth="yes"/>
      <point x="60" y="280"/>
      <point x="72" y="262"/>
    </contour>
  </outline>
</glyph>
<glyph name="lenisgrave.cap" format="1">
  <advance width="166"/>
  <outline>
    <contour>
      <point x="14" y="486" type="line"/>
      <point x="48" y="506"/>
      <point x="82" y="538"/>
      <point x="82" y="586" type="curve" smooth="yes"/>
      <point x="82" y="646"/>
      <point x="36" y="670"/>
      <point x="-12" y="672" type="curve"/>
      <point x="-14" y="646" type="line"/>
      <point x="28" y="644"/>
      <point x="52" y="624"/>
      <point x="52" y="582" type="curve" smooth="yes"/>
      <point x="52" y="552"/>
      <point x="30" y="526"/>
      <point x="2" y="508" type="curve"/>
    </contour>
    <contour>
      <point x="166" y="488" type="line"/>
      <point x="190" y="488" type="line"/>
      <point x="160" y="670" type="line"/>
      <point x="122" y="670" type="line"/>
    </contour>
  </outline>
</glyph>
<glyph name="lenisgravecmb" format="1">
  <advance width="0"/>
  <outline>
    <contour>
      <point x="0" y="502" type="move" name="_aboveLC"/>
    </contour>
    <contour>
      <point x="-96" y="560" type="line"/>
      <point x="-62" y="578"/>
      <point x="-28" y="598"/>
      <point x="-28" y="644" type="curve" smooth="yes"/>
      <point x="-28" y="694"/>
      <point x="-74" y="714"/>
      <point x="-122" y="716" type="curve"/>
      <point x="-124" y="690" type="line"/>
      <point x="-82" y="688"/>
      <point x="-58" y="672"/>
      <point x="-58" y="640" type="curve" smooth="yes"/>
      <point x="-58" y="614"/>
      <point x="-78" y="598"/>
      <point x="-104" y="582" type="curve"/>
    </contour>
    <contour>
      <point x="62" y="562" type="line"/>
      <point x="86" y="562" type="line"/>
      <point x="42" y="724" type="line"/>
      <point x="4" y="724" type="line"/>
    </contour>
  </outline>
</glyph>
<glyph name="lenistilde.cap" format="1">
  <advance width="160"/>
  <outline>
    <contour>
      <point x="-24" y="618" type="curve"/>
      <point x="0" y="614" type="line"/>
      <point x="2" y="642"/>
      <point x="17" y="648"/>
      <point x="34" y="648" type="curve" smooth="yes"/>
      <point x="70" y="648"/>
      <point x="78" y="612"/>
      <point x="128" y="612" type="curve" smooth="yes"/>
      <point x="168" y="612"/>
      <point x="182" y="639"/>
      <point x="184" y="668" type="curve"/>
      <point x="160" y="672" type="line"/>
      <point x="158" y="644"/>
      <point x="143" y="638"/>
      <point x="126" y="638" type="curve" smooth="yes"/>
      <point x="90" y="638"/>
      <point x="82" y="674"/>
      <point x="32" y="674" type="curve" smooth="yes"/>
      <point x="-8" y="674"/>
      <point x="-22" y="647"/>
    </contour>
    <contour>
      <point x="60" y="468" type="line"/>
      <point x="94" y="478"/>
      <point x="134" y="498"/>
      <point x="134" y="532" type="curve" smooth="yes"/>
      <point x="134" y="573"/>
      <point x="86" y="588"/>
      <point x="34" y="590" type="curve"/>
      <point x="32" y="566" type="line"/>
      <point x="80" y="565"/>
      <point x="104" y="552"/>
      <point x="104" y="528" type="curve" smooth="yes"/>
      <point x="104" y="512"/>
      <point x="82" y="498"/>
      <point x="52" y="490" type="curve"/>
    </contour>
  </outline>
</glyph>
<glyph name="lenistildecmb" format="1">
  <advance width="0"/>
  <outline>
    <contour>
      <point x="0" y="502" type="move" name="_aboveLC"/>
    </contour>
    <contour>
      <point x="-128" y="704" type="curve"/>
      <point x="-104" y="702" type="line"/>
      <point x="-100" y="732"/>
      <point x="-93" y="748"/>
      <point x="-70" y="748" type="curve" smooth="yes"/>
      <point x="-25" y="748"/>
      <point x="10" y="706"/>
      <point x="70" y="706" type="curve" smooth="yes"/>
      <point x="114" y="706"/>
      <point x="126" y="745"/>
      <point x="128" y="776" type="curve"/>
      <point x="104" y="778" type="line"/>
      <point x="100" y="748"/>
      <point x="93" y="732"/>
      <point x="70" y="732" type="curve" smooth="yes"/>
      <point x="24" y="732"/>
      <point x="-9" y="774"/>
      <point x="-70" y="774" type="curve" smooth="yes"/>
      <point x="-114" y="774"/>
      <point x="-126" y="735"/>
    </contour>
    <contour>
      <point x="-20" y="562" type="line"/>
      <point x="14" y="572"/>
      <point x="54" y="592"/>
      <point x="54" y="626" type="curve" smooth="yes"/>
      <point x="54" y="667"/>
      <point x="6" y="682"/>
      <point x="-46" y="684" type="curve"/>
      <point x="-48" y="660" type="line"/>
      <point x="0" y="659"/>
      <point x="24" y="646"/>
      <point x="24" y="622" type="curve" smooth="yes"/>
      <point x="24" y="606"/>
      <point x="2" y="592"/>
      <point x="-28" y="584" type="curve"/>
    </contour>
  </outline>
</glyph>
<glyph name="lje" format="1">
  <advance width="698"/>
  <outline>
    <contour>
      <point x="48" y="-12" type="curve" smooth="yes"/>
      <point x="92" y="-12"/>
      <point x="140" y="32"/>
      <point x="154" y="142" type="curve" smooth="yes"/>
      <point x="167" y="247"/>
      <point x="173" y="356"/>
      <point x="178" y="450" type="curve"/>
      <point x="360" y="450" type="line"/>
      <point x="360" y="0" type="line"/>
      <point x="390" y="0" type="line"/>
      <point x="390" y="478" type="line"/>
      <point x="150" y="478" type="line"/>
      <point x="146" y="366"/>
      <point x="139" y="256"/>
      <point x="124" y="146" type="curve" smooth="yes"/>
      <point x="112" y="60"/>
      <point x="82" y="20"/>
      <point x="44" y="20" type="curve" smooth="yes"/>
      <point x="36" y="20"/>
      <point x="30" y="22"/>
      <point x="24" y="24" type="curve"/>
      <point x="16" y="-6" type="line"/>
      <point x="26" y="-10"/>
      <point x="34" y="-12"/>
    </contour>
    <contour>
      <point x="360" y="0" type="line"/>
      <point x="474" y="0" type="line" smooth="yes"/>
      <point x="586" y="0"/>
      <point x="652" y="50"/>
      <point x="652" y="142" type="curve" smooth="yes"/>
      <point x="652" y="234"/>
      <point x="586" y="282"/>
      <point x="474" y="282" type="curve" smooth="yes"/>
      <point x="390" y="282" type="line"/>
      <point x="390" y="478" type="line"/>
      <point x="360" y="478" type="line"/>
    </contour>
    <contour>
      <point x="390" y="28" type="line"/>
      <point x="390" y="254" type="line"/>
      <point x="464" y="254" type="line" smooth="yes"/>
      <point x="569" y="254"/>
      <point x="620" y="221"/>
      <point x="620" y="142" type="curve" smooth="yes"/>
      <point x="620" y="63"/>
      <point x="569" y="28"/>
      <point x="464" y="28" type="curve" smooth="yes"/>
    </contour>
  </outline>
</glyph>
<glyph name="lslash.alt" format="1">
  <advance width="222"/>
  <outline>
    <contour>
      <point x="30" y="332" type="line"/>
      <point x="105" y="382" type="line"/>
      <point x="117" y="388" type="line"/>
      <point x="200" y="444" type="line"/>
      <point x="200" y="476" type="line"/>
      <point x="117" y="420" type="line"/>
      <point x="105" y="414" type="line"/>
      <point x="30" y="364" type="line"/>
    </contour>
    <component base="l.alt"/>
  </outline>
</glyph>
<glyph name="lslash" format="1">
  <advance width="230"/>
  <outline>
    <contour>
      <point x="28" y="332" type="line"/>
      <point x="105" y="382" type="line"/>
      <point x="117" y="388" type="line"/>
      <point x="198" y="444" type="line"/>
      <point x="184" y="466" type="line"/>
      <point x="117" y="420" type="line"/>
      <point x="105" y="414" type="line"/>
      <point x="14" y="354" type="line"/>
    </contour>
    <component base="l"/>
  </outline>
</glyph>
<glyph name="lslash.alt" format="1">
  <advance width="222"/>
  <outline>
    <contour>
      <point x="28" y="332" type="line"/>
      <point x="105" y="382" type="line"/>
      <point x="117" y="388" type="line"/>
      <point x="198" y="444" type="line"/>
      <point x="184" y="466" type="line"/>
      <point x="117" y="420" type="line"/>
      <point x="105" y="414" type="line"/>
      <point x="14" y="354" type="line"/>
    </contour>
    <component base="l.alt"/>
  </outline>
</glyph>
<glyph name="macronacute.cap" format="1">
  <advance width="0"/>
  <outline>
    <contour>
      <point x="0" y="682" type="move" name="_aboveUC"/>
    </contour>
    <contour>
      <point x="-110" y="746" type="line"/>
      <point x="110" y="746" type="line"/>
      <point x="110" y="774" type="line"/>
      <point x="-110" y="774" type="line"/>
    </contour>
    <contour>
      <point x="-32" y="826" type="line"/>
      <point x="-4" y="826" type="line"/>
      <point x="104" y="930" type="line"/>
      <point x="64" y="930" type="line"/>
    </contour>
  </outline>
</glyph>
<glyph name="macronacute" format="1">
  <advance width="0"/>
  <outline>
    <contour>
      <point x="0" y="502" type="move" name="_aboveLC"/>
    </contour>
    <contour>
      <point x="-110" y="608" type="line"/>
      <point x="110" y="608" type="line"/>
      <point x="110" y="636" type="line"/>
      <point x="-110" y="636" type="line"/>
    </contour>
    <contour>
      <point x="-40" y="706" type="line"/>
      <point x="-12" y="706" type="line"/>
      <point x="82" y="802" type="line"/>
      <point x="40" y="802" type="line"/>
    </contour>
  </outline>
</glyph>
<glyph name="macronacute.cap" format="1">
  <advance width="0"/>
  <outline>
    <contour>
      <point x="0" y="682" type="move" name="_aboveUC"/>
    </contour>
    <contour>
      <point x="-8" y="822" type="line"/>
      <point x="92" y="916" type="line"/>
      <point x="70" y="936" type="line"/>
      <point x="-24" y="836" type="line"/>
    </contour>
    <contour>
      <point x="-120" y="746" type="line"/>
      <point x="120" y="746" type="line"/>
      <point x="120" y="774" type="line"/>
      <point x="-120" y="774" type="line"/>
    </contour>
  </outline>
</glyph>
<glyph name="macronbelowcmb" format="1">
  <advance width="0"/>
  <outline>
    <contour>
      <point x="0" y="-22" type="move" name="_belowLC"/>
    </contour>
    <contour>
      <point x="-112" y="-156" type="line"/>
      <point x="110" y="-156" type="line"/>
      <point x="110" y="-128" type="line"/>
      <point x="-112" y="-128" type="line"/>
    </contour>
  </outline>
</glyph>
<glyph name="macroncmb.cap" format="1">
  <advance width="0"/>
  <outline>
    <contour>
      <point x="0" y="682" type="move" name="_aboveUC"/>
    </contour>
    <contour>
      <point x="-110" y="746" type="line"/>
      <point x="110" y="746" type="line"/>
      <point x="110" y="774" type="line"/>
      <point x="-110" y="774" type="line"/>
    </contour>
  </outline>
</glyph>
<glyph name="macroncmb" format="1">
  <advance width="0"/>
  <outline>
    <contour>
      <point x="0" y="502" type="move" name="_aboveLC"/>
    </contour>
    <contour>
      <point x="-110" y="608" type="line"/>
      <point x="110" y="608" type="line"/>
      <point x="110" y="636" type="line"/>
      <point x="-110" y="636" type="line"/>
    </contour>
  </outline>
</glyph>
<glyph name="macroncmb.cap" format="1">
  <advance width="0"/>
  <outline>
    <contour>
      <point x="0" y="682" type="move" name="_aboveUC"/>
    </contour>
    <contour>
      <point x="-120" y="746" type="line"/>
      <point x="120" y="746" type="line"/>
      <point x="120" y="774" type="line"/>
      <point x="-120" y="774" type="line"/>
    </contour>
  </outline>
</glyph>
<glyph name="mturned" format="1">
  <advance width="806"/>
  <outline>
    <contour>
      <point x="404" y="502" type="move" name="aboveLC"/>
    </contour>
    <contour>
      <point x="414" y="-22" type="move" name="belowLC"/>
    </contour>
    <contour>
      <point x="238" y="-12" type="curve" smooth="yes"/>
      <point x="292" y="-12"/>
      <point x="346" y="26"/>
      <point x="402" y="88" type="curve"/>
      <point x="418" y="28"/>
      <point x="456" y="-12"/>
      <point x="534" y="-12" type="curve" smooth="yes"/>
      <point x="586" y="-12"/>
      <point x="642" y="26"/>
      <point x="686" y="76" type="curve"/>
      <point x="688" y="76" type="line"/>
      <point x="692" y="0" type="line"/>
      <point x="718" y="0" type="line"/>
      <point x="718" y="478" type="line"/>
      <point x="688" y="478" type="line"/>
      <point x="688" y="112" type="line"/>
      <point x="632" y="48"/>
      <point x="582" y="16"/>
      <point x="536" y="16" type="curve" smooth="yes"/>
      <point x="458" y="16"/>
      <point x="422" y="68"/>
      <point x="422" y="174" type="curve" smooth="yes"/>
      <point x="422" y="478" type="line"/>
      <point x="392" y="478" type="line"/>
      <point x="392" y="112" type="line"/>
      <point x="336" y="48"/>
      <point x="288" y="16"/>
      <point x="240" y="16" type="curve" smooth="yes"/>
      <point x="162" y="16"/>
      <point x="126" y="68"/>
      <point x="126" y="174" type="curve" smooth="yes"/>
      <point x="126" y="478" type="line"/>
      <point x="96" y="478" type="line"/>
      <point x="96" y="170" type="line" smooth="yes"/>
      <point x="96" y="46"/>
      <point x="144" y="-12"/>
    </contour>
  </outline>
</glyph>
<glyph name="o.sups" format="1">
  <advance width="358"/>
  <outline>
    <contour>
      <point x="178" y="262" type="curve" smooth="yes"/>
      <point x="258" y="262"/>
      <point x="322" y="324"/>
      <point x="322" y="428" type="curve" smooth="yes"/>
      <point x="322" y="534"/>
      <point x="258" y="594"/>
      <point x="178" y="594" type="curve" smooth="yes"/>
      <point x="98" y="594"/>
      <point x="34" y="534"/>
      <point x="34" y="428" type="curve" smooth="yes"/>
      <point x="34" y="324"/>
      <point x="98" y="262"/>
    </contour>
    <contour>
      <point x="178" y="288" type="curve" smooth="yes"/>
      <point x="110" y="288"/>
      <point x="64" y="346"/>
      <point x="64" y="428" type="curve" smooth="yes"/>
      <point x="64" y="512"/>
      <point x="110" y="568"/>
      <point x="178" y="568" type="curve" smooth="yes"/>
      <point x="246" y="568"/>
      <point x="292" y="512"/>
      <point x="292" y="428" type="curve" smooth="yes"/>
      <point x="292" y="346"/>
      <point x="246" y="288"/>
    </contour>
  </outline>
</glyph>
<glyph name="obarcyr" format="1">
  <advance width="532"/>
  <outline>
    <component base="obar"/>
    <contour>
      <point x="266" y="502" type="move" name="aboveLC"/>
    </contour>
  </outline>
</glyph>
<glyph name="ogonek" format="1">
  <advance width="532"/>
  <outline>
    <contour>
      <point x="266" y="0" type="move" name="_ogonekLC"/>
    </contour>
    <component base="ogonekcmb" xOffset="266"/>
  </outline>
</glyph>
<glyph name="ogonekcmb.cap" format="1">
  <outline>
    <contour>
      <point x="32" y="-202" type="curve" smooth="yes"/>
      <point x="52" y="-202"/>
      <point x="78" y="-192"/>
      <point x="92" y="-180" type="curve"/>
      <point x="78" y="-160" type="line"/>
      <point x="64" y="-170"/>
      <point x="52" y="-174"/>
      <point x="34" y="-174" type="curve" smooth="yes"/>
      <point x="8" y="-174"/>
      <point x="-18" y="-156"/>
      <point x="-18" y="-120" type="curve" smooth="yes"/>
      <point x="-18" y="-76"/>
      <point x="10" y="-30"/>
      <point x="58" y="4" type="curve"/>
      <point x="22" y="4" type="line"/>
      <point x="-16" y="-26"/>
      <point x="-48" y="-72"/>
      <point x="-48" y="-122" type="curve" smooth="yes"/>
      <point x="-48" y="-176"/>
      <point x="-12" y="-202"/>
    </contour>
    <contour>
      <point x="0" y="0" type="move" name="_ogonekUC"/>
    </contour>
  </outline>
</glyph>
<glyph name="one.dnom" format="1">
  <advance width="360"/>
  <outline>
    <contour>
      <point x="178" y="0" type="line"/>
      <point x="206" y="0" type="line"/>
      <point x="206" y="390" type="line"/>
      <point x="180" y="390" type="line"/>
      <point x="158" y="372"/>
      <point x="132" y="360"/>
      <point x="96" y="352" type="curve"/>
      <point x="96" y="330" type="line"/>
      <point x="178" y="330" type="line"/>
    </contour>
  </outline>
</glyph>
<glyph name="oxia" format="1">
  <advance width="532"/>
  <outline>
    <component base="tonoscmb" xOffset="266"/>
    <contour>
      <point x="266" y="502" type="move" name="_aboveLC"/>
    </contour>
  </outline>
</glyph>
<glyph name="perispomenicmb.cap" format="1">
  <advance width="0"/>
  <outline>
    <contour>
      <point x="0" y="682" type="move" name="_aboveUC"/>
    </contour>
    <component base="tildecmb.cap"/>
  </outline>
</glyph>
<glyph name="phi.alt" format="1">
  <advance width="634"/>
  <outline>
    <contour>
      <point x="302" y="-180" type="line"/>
      <point x="332" y="-180" type="line"/>
      <point x="330" y="-15"/>
      <point x="330" y="149"/>
      <point x="330" y="314" type="curve" smooth="yes"/>
      <point x="330" y="424"/>
      <point x="372" y="462"/>
      <point x="424" y="462" type="curve" smooth="yes"/>
      <point x="496" y="462"/>
      <point x="548" y="368"/>
      <point x="548" y="246" type="curve" smooth="yes"/>
      <point x="548" y="112"/>
      <point x="450" y="16"/>
      <point x="328" y="16" type="curve"/>
      <point x="326" y="-10" type="line"/>
      <point x="460" y="-10"/>
      <point x="580" y="84"/>
      <point x="580" y="246" type="curve" smooth="yes"/>
      <point x="580" y="394"/>
      <point x="524" y="490"/>
      <point x="426" y="490" type="curve" smooth="yes"/>
      <point x="354" y="490"/>
      <point x="302" y="438"/>
      <point x="302" y="327" type="curve" smooth="yes"/>
    </contour>
    <contour>
      <point x="308" y="-10" type="curve"/>
      <point x="308" y="16" type="line"/>
      <point x="194" y="16"/>
      <point x="84" y="86"/>
      <point x="84" y="226" type="curve" smooth="yes"/>
      <point x="84" y="336"/>
      <point x="122" y="399"/>
      <point x="188" y="472" type="curve"/>
      <point x="164" y="490" type="line"/>
      <point x="102" y="417"/>
      <point x="54" y="342"/>
      <point x="54" y="230" type="curve" smooth="yes"/>
      <point x="54" y="64"/>
      <point x="180" y="-10"/>
    </contour>
  </outline>
</glyph>
<glyph name="pi" format="1">
  <advance width="546"/>
  <outline>
    <contour>
      <point x="455" y="-12" type="curve" smooth="yes"/>
      <point x="476" y="-12"/>
      <point x="489" y="-8"/>
      <point x="504" y="-4" type="curve"/>
      <point x="498" y="22" type="line"/>
      <point x="477" y="18"/>
      <point x="465" y="16"/>
      <point x="457" y="16" type="curve" smooth="yes"/>
      <point x="425" y="16"/>
      <point x="411" y="32"/>
      <point x="411" y="66" type="curve" smooth="yes"/>
      <point x="411" y="132"/>
      <point x="413" y="319"/>
      <point x="419" y="448" type="curve"/>
      <point x="520" y="448" type="line"/>
      <point x="520" y="478" type="line"/>
      <point x="92" y="478" type="line"/>
      <point x="26" y="474" type="line"/>
      <point x="26" y="448" type="line"/>
      <point x="142" y="448" type="line"/>
      <point x="142" y="300"/>
      <point x="128" y="140"/>
      <point x="108" y="0" type="curve"/>
      <point x="140" y="-2" type="line"/>
      <point x="154" y="138"/>
      <point x="170" y="298"/>
      <point x="170" y="448" type="curve"/>
      <point x="389" y="448" type="line"/>
      <point x="387" y="323"/>
      <point x="383" y="138"/>
      <point x="383" y="72" type="curve" smooth="yes"/>
      <point x="383" y="12"/>
      <point x="406" y="-12"/>
    </contour>
  </outline>
</glyph>
<glyph name="plusbelowcmb" format="1">
  <outline>
    <contour>
      <point x="86" y="-166" type="line"/>
      <point x="86" y="-138" type="line"/>
      <point x="14" y="-138" type="line"/>
      <point x="14" y="-62" type="line"/>
      <point x="-14" y="-62" type="line"/>
      <point x="-14" y="-138" type="line"/>
      <point x="-86" y="-138" type="line"/>
      <point x="-86" y="-166" type="line"/>
      <point x="-14" y="-166" type="line"/>
      <point x="-14" y="-242" type="line"/>
      <point x="14" y="-242" type="line"/>
      <point x="14" y="-166" type="line"/>
    </contour>
    <contour>
      <point x="0" y="-22" type="move" name="_belowLC"/>
    </contour>
  </outline>
</glyph>
<glyph name="psili" format="1">
  <advance width="532"/>
  <outline>
    <contour>
      <point x="266" y="502" type="move" name="_aboveLC"/>
    </contour>
    <component base="leniscmb" xOffset="266"/>
  </outline>
</glyph>
<glyph name="q.sups" format="1">
  <advance width="364"/>
  <outline>
    <contour>
      <point x="276" y="130" type="line"/>
      <point x="304" y="130" type="line"/>
      <point x="304" y="586" type="line"/>
      <point x="282" y="586" type="line"/>
      <point x="278" y="556" type="line"/>
      <point x="274" y="556" type="line"/>
      <point x="248" y="580"/>
      <point x="216" y="594"/>
      <point x="180" y="594" type="curve" smooth="yes"/>
      <point x="104" y="594"/>
      <point x="38" y="532"/>
      <point x="38" y="428" type="curve" smooth="yes"/>
      <point x="38" y="324"/>
      <point x="90" y="262"/>
      <point x="176" y="262" type="curve" smooth="yes"/>
      <point x="216" y="262"/>
      <point x="250" y="280"/>
      <point x="278" y="306" type="curve"/>
      <point x="276" y="244" type="line"/>
    </contour>
    <contour>
      <point x="178" y="288" type="curve" smooth="yes"/>
      <point x="102" y="288"/>
      <point x="68" y="346"/>
      <point x="68" y="428" type="curve" smooth="yes"/>
      <point x="68" y="510"/>
      <point x="118" y="568"/>
      <point x="178" y="568" type="curve" smooth="yes"/>
      <point x="208" y="568"/>
      <point x="242" y="556"/>
      <point x="276" y="526" type="curve"/>
      <point x="276" y="334" type="line"/>
      <point x="242" y="304"/>
      <point x="210" y="288"/>
    </contour>
  </outline>
</glyph>
<glyph name="questiondown.sc" format="1">
  <advance width="394"/>
  <outline>
    <contour>
      <point x="202" y="-64" type="curve" smooth="yes"/>
      <point x="266" y="-64"/>
      <point x="312" y="-36"/>
      <point x="348" y="0" type="curve"/>
      <point x="328" y="20" type="line"/>
      <point x="294" y="-17"/>
      <point x="250" y="-36"/>
      <point x="204" y="-36" type="curve" smooth="yes"/>
      <point x="127" y="-36"/>
      <point x="94" y="9"/>
      <point x="94" y="58" type="curve" smooth="yes"/>
      <point x="94" y="178"/>
      <point x="251" y="180"/>
      <point x="230" y="306" type="curve"/>
      <point x="202" y="306" type="line"/>
      <point x="221" y="192"/>
      <point x="62" y="191"/>
      <point x="62" y="56" type="curve" smooth="yes"/>
      <point x="62" y="-9"/>
      <point x="112" y="-64"/>
    </contour>
    <contour>
      <point x="212" y="412" type="curve" smooth="yes"/>
      <point x="230" y="412"/>
      <point x="248" y="426"/>
      <point x="248" y="452" type="curve" smooth="yes"/>
      <point x="248" y="476"/>
      <point x="230" y="490"/>
      <point x="212" y="490" type="curve" smooth="yes"/>
      <point x="194" y="490"/>
      <point x="176" y="476"/>
      <point x="176" y="452" type="curve" smooth="yes"/>
      <point x="176" y="426"/>
      <point x="194" y="412"/>
    </contour>
  </outline>
</glyph>
<glyph name="ringbelowcmb" format="1">
  <advance width="0"/>
  <outline>
    <contour>
      <point x="0" y="-22" type="move" name="_belowLC"/>
    </contour>
    <contour>
      <point x="0" y="-246" type="curve" smooth="yes"/>
      <point x="44" y="-246"/>
      <point x="78" y="-212"/>
      <point x="78" y="-162" type="curve" smooth="yes"/>
      <point x="78" y="-112"/>
      <point x="44" y="-78"/>
      <point x="0" y="-78" type="curve" smooth="yes"/>
      <point x="-44" y="-78"/>
      <point x="-78" y="-112"/>
      <point x="-78" y="-162" type="curve" smooth="yes"/>
      <point x="-78" y="-212"/>
      <point x="-44" y="-246"/>
    </contour>
    <contour>
      <point x="0" y="-224" type="curve" smooth="yes"/>
      <point x="-30" y="-224"/>
      <point x="-54" y="-200"/>
      <point x="-54" y="-162" type="curve" smooth="yes"/>
      <point x="-54" y="-124"/>
      <point x="-30" y="-100"/>
      <point x="0" y="-100" type="curve" smooth="yes"/>
      <point x="30" y="-100"/>
      <point x="54" y="-124"/>
      <point x="54" y="-162" type="curve" smooth="yes"/>
      <point x="54" y="-200"/>
      <point x="30" y="-224"/>
    </contour>
  </outline>
</glyph>
<glyph name="ringcmb.cap" format="1">
  <advance width="0"/>
  <outline>
    <contour>
      <point x="0" y="682" type="move" name="_aboveUC"/>
    </contour>
    <contour>
      <point x="0" y="700" type="curve" smooth="yes"/>
      <point x="42" y="700"/>
      <point x="78" y="732"/>
      <point x="78" y="780" type="curve" smooth="yes"/>
      <point x="78" y="828"/>
      <point x="42" y="860"/>
      <point x="0" y="860" type="curve" smooth="yes"/>
      <point x="-44" y="860"/>
      <point x="-78" y="828"/>
      <point x="-78" y="780" type="curve" smooth="yes"/>
      <point x="-78" y="732"/>
      <point x="-44" y="700"/>
    </contour>
    <contour>
      <point x="0" y="722" type="curve" smooth="yes"/>
      <point x="-30" y="722"/>
      <point x="-54" y="742"/>
      <point x="-54" y="780" type="curve" smooth="yes"/>
      <point x="-54" y="816"/>
      <point x="-30" y="838"/>
      <point x="0" y="838" type="curve" smooth="yes"/>
      <point x="28" y="838"/>
      <point x="52" y="816"/>
      <point x="52" y="780" type="curve" smooth="yes"/>
      <point x="52" y="742"/>
      <point x="28" y="722"/>
    </contour>
  </outline>
</glyph>
<glyph name="ringcmb" format="1">
  <outline>
    <contour>
      <point x="0" y="546" type="curve" smooth="yes"/>
      <point x="52" y="546"/>
      <point x="92" y="584"/>
      <point x="92" y="640" type="curve" smooth="yes"/>
      <point x="92" y="696"/>
      <point x="52" y="734"/>
      <point x="0" y="734" type="curve" smooth="yes"/>
      <point x="-52" y="734"/>
      <point x="-92" y="696"/>
      <point x="-92" y="640" type="curve" smooth="yes"/>
      <point x="-92" y="584"/>
      <point x="-52" y="546"/>
    </contour>
    <contour>
      <point x="0" y="568" type="curve" smooth="yes"/>
      <point x="-38" y="568"/>
      <point x="-68" y="596"/>
      <point x="-68" y="640" type="curve" smooth="yes"/>
      <point x="-68" y="684"/>
      <point x="-38" y="712"/>
      <point x="0" y="712" type="curve" smooth="yes"/>
      <point x="38" y="712"/>
      <point x="68" y="684"/>
      <point x="68" y="640" type="curve" smooth="yes"/>
      <point x="68" y="596"/>
      <point x="38" y="568"/>
    </contour>
    <contour>
      <point x="0" y="502" type="move" name="_aboveLC"/>
    </contour>
  </outline>
</glyph>
<glyph name="ringhalfleftbelowcmb" format="1">
  <outline>
    <contour>
      <point x="48" y="-256" type="curve"/>
      <point x="48" y="-236" type="line"/>
      <point x="-7" y="-236"/>
      <point x="-30" y="-207"/>
      <point x="-30" y="-164" type="curve" smooth="yes"/>
      <point x="-30" y="-121"/>
      <point x="-7" y="-92"/>
      <point x="48" y="-92" type="curve"/>
      <point x="48" y="-72" type="line"/>
      <point x="-16" y="-70"/>
      <point x="-58" y="-105"/>
      <point x="-58" y="-164" type="curve" smooth="yes"/>
      <point x="-58" y="-223"/>
      <point x="-16" y="-258"/>
    </contour>
    <contour>
      <point x="0" y="-22" type="move" name="_belowLC"/>
    </contour>
  </outline>
</glyph>
<glyph name="ringhalfleftmod" format="1">
  <advance width="158"/>
  <outline>
    <contour>
      <point x="124" y="548" type="curve"/>
      <point x="124" y="568" type="line"/>
      <point x="69" y="568"/>
      <point x="46" y="597"/>
      <point x="46" y="640" type="curve" smooth="yes"/>
      <point x="46" y="683"/>
      <point x="69" y="712"/>
      <point x="124" y="712" type="curve"/>
      <point x="124" y="732" type="line"/>
      <point x="60" y="734"/>
      <point x="18" y="699"/>
      <point x="18" y="640" type="curve" smooth="yes"/>
      <point x="18" y="581"/>
      <point x="60" y="546"/>
    </contour>
  </outline>
</glyph>
<glyph name="ringhalfrightmod" format="1">
  <advance width="158"/>
  <outline>
    <contour>
      <point x="34" y="548" type="line"/>
      <point x="98" y="546"/>
      <point x="140" y="581"/>
      <point x="140" y="640" type="curve" smooth="yes"/>
      <point x="140" y="699"/>
      <point x="98" y="734"/>
      <point x="34" y="732" type="curve"/>
      <point x="34" y="712" type="line"/>
      <point x="89" y="712"/>
      <point x="112" y="683"/>
      <point x="112" y="640" type="curve" smooth="yes"/>
      <point x="112" y="597"/>
      <point x="89" y="568"/>
      <point x="34" y="568" type="curve"/>
    </contour>
  </outline>
</glyph>
<glyph name="rturned" format="1">
  <advance width="306"/>
  <outline>
    <contour>
      <point x="92" y="502" type="move" name="aboveLC"/>
    </contour>
    <contour>
      <point x="10" y="-22" type="move" name="belowLC"/>
    </contour>
    <contour>
      <point x="42" y="-12" type="curve" smooth="yes"/>
      <point x="100" y="-12"/>
      <point x="146" y="32"/>
      <point x="178" y="90" type="curve"/>
      <point x="180" y="90" type="line"/>
      <point x="184" y="0" type="line"/>
      <point x="210" y="0" type="line"/>
      <point x="210" y="478" type="line"/>
      <point x="180" y="478" type="line"/>
      <point x="180" y="146" type="line"/>
      <point x="142" y="52"/>
      <point x="90" y="18"/>
      <point x="46" y="18" type="curve" smooth="yes"/>
      <point x="28" y="18"/>
      <point x="20" y="20"/>
      <point x="4" y="26" type="curve"/>
      <point x="-4" y="-2" type="line"/>
      <point x="12" y="-10"/>
      <point x="26" y="-12"/>
    </contour>
  </outline>
</glyph>
<glyph name="ruble" format="1">
  <advance width="472"/>
  <outline>
    <contour>
      <point x="98" y="0" type="line"/>
      <point x="128" y="0" type="line"/>
      <point x="128" y="282" type="line"/>
      <point x="178" y="282" type="line" smooth="yes"/>
      <point x="304" y="282"/>
      <point x="390" y="342"/>
      <point x="390" y="468" type="curve" smooth="yes"/>
      <point x="390" y="592"/>
      <point x="304" y="640"/>
      <point x="178" y="640" type="curve" smooth="yes"/>
      <point x="98" y="640" type="line"/>
    </contour>
    <contour>
      <point x="128" y="310" type="line"/>
      <point x="128" y="612" type="line"/>
      <point x="166" y="612" type="line" smooth="yes"/>
      <point x="290" y="612"/>
      <point x="358" y="576"/>
      <point x="358" y="468" type="curve" smooth="yes"/>
      <point x="358" y="360"/>
      <point x="290" y="310"/>
      <point x="166" y="310" type="curve" smooth="yes"/>
    </contour>
    <contour>
      <point x="16" y="184" type="line"/>
      <point x="336" y="184" type="line"/>
      <point x="336" y="212" type="line"/>
      <point x="98" y="212" type="line"/>
      <point x="16" y="208" type="line"/>
    </contour>
    <contour>
      <point x="16" y="282" type="line"/>
      <point x="116" y="282" type="line"/>
      <point x="116" y="310" type="line"/>
      <point x="98" y="310" type="line"/>
      <point x="16" y="306" type="line"/>
    </contour>
  </outline>
</glyph>
<glyph name="seagullbelowcmb" format="1">
  <outline>
    <contour>
      <point x="-152" y="-222" type="curve"/>
      <point x="-126" y="-224" type="line"/>
      <point x="-126" y="-131"/>
      <point x="-103" y="-108"/>
      <point x="-68" y="-108" type="curve" smooth="yes"/>
      <point x="-34" y="-108"/>
      <point x="-14" y="-141"/>
      <point x="-14" y="-208" type="curve" smooth="yes"/>
      <point x="-14" y="-224" type="line"/>
      <point x="14" y="-224" type="line"/>
      <point x="14" y="-208" type="line" smooth="yes"/>
      <point x="14" y="-141"/>
      <point x="34" y="-108"/>
      <point x="68" y="-108" type="curve" smooth="yes"/>
      <point x="103" y="-108"/>
      <point x="126" y="-131"/>
      <point x="126" y="-224" type="curve"/>
      <point x="152" y="-222" type="line"/>
      <point x="153" y="-121"/>
      <point x="120" y="-84"/>
      <point x="70" y="-84" type="curve" smooth="yes"/>
      <point x="38" y="-84"/>
      <point x="9" y="-99"/>
      <point x="1" y="-145" type="curve"/>
      <point x="-1" y="-145" type="line"/>
      <point x="-9" y="-99"/>
      <point x="-38" y="-84"/>
      <point x="-70" y="-84" type="curve" smooth="yes"/>
      <point x="-120" y="-84"/>
      <point x="-153" y="-121"/>
    </contour>
    <contour>
      <point x="0" y="-22" type="move" name="_belowLC"/>
    </contour>
  </outline>
</glyph>
<glyph name="squarebelowcmb" format="1">
  <advance width="0"/>
  <outline>
    <contour>
      <point x="0" y="-22" type="move" name="_belowLC"/>
    </contour>
    <contour>
      <point x="-106" y="-234" type="line"/>
      <point x="106" y="-234" type="line"/>
      <point x="106" y="-90" type="line"/>
      <point x="-106" y="-90" type="line"/>
    </contour>
    <contour>
      <point x="-80" y="-206" type="line"/>
      <point x="-80" y="-118" type="line"/>
      <point x="80" y="-118" type="line"/>
      <point x="80" y="-206" type="line"/>
    </contour>
  </outline>
</glyph>
<glyph name="squareblack" format="1">
  <advance width="728"/>
  <outline>
    <contour>
      <point x="54" y="0" type="line"/>
      <point x="674" y="0" type="line"/>
      <point x="674" y="640" type="line"/>
      <point x="54" y="640" type="line"/>
    </contour>
  </outline>
</glyph>
<glyph name="squareshadow" format="1">
  <advance width="752"/>
  <outline>
    <contour>
      <point x="54" y="-12" type="line"/>
      <point x="656" y="-12" type="line"/>
      <point x="698" y="40" type="line"/>
      <point x="698" y="652" type="line"/>
      <point x="106" y="652" type="line"/>
      <point x="54" y="610" type="line"/>
    </contour>
    <contour>
      <point x="82" y="14" type="line"/>
      <point x="82" y="588" type="line"/>
      <point x="634" y="588" type="line"/>
      <point x="634" y="14" type="line"/>
    </contour>
  </outline>
</glyph>
<glyph name="tbar" format="1">
  <advance width="302"/>
  <outline>
    <contour>
      <point x="30" y="238" type="line"/>
      <point x="278" y="238" type="line"/>
      <point x="278" y="266" type="line"/>
      <point x="106" y="266" type="line"/>
      <point x="30" y="262" type="line"/>
    </contour>
    <component base="t"/>
  </outline>
</glyph>
